SplineFontDB: 3.2
FontName: Voskresensky-Regular
FullName: Voskresensky Regular
FamilyName: Voskresensky
Weight: Regular
Copyright: Copyright 2021 Aleksandr Andreev, Nikita Simmons. Slavonic Computing Initiative (https://sci.ponomar.net/).
Version: 1.0
ItalicAngle: 0
UnderlinePosition: -150
UnderlineWidth: 50
Ascent: 800
Descent: 200
InvalidEm: 0
sfntRevision: 0x00010000
LayerCount: 2
Layer: 0 0 "Back" 1
Layer: 1 0 "Fore" 0
XUID: [1021 988 -1528790266 12710615]
StyleMap: 0x0040
FSType: 0
OS2Version: 4
OS2_WeightWidthSlopeOnly: 0
OS2_UseTypoMetrics: 1
CreationTime: 1485932044
ModificationTime: 1620124541
PfmFamily: 17
TTFWeight: 400
TTFWidth: 5
LineGap: 90
VLineGap: 0
Panose: 2 0 5 3 0 0 0 0 0 0
OS2TypoAscent: 800
OS2TypoAOffset: 0
OS2TypoDescent: -200
OS2TypoDOffset: 0
OS2TypoLinegap: 90
OS2WinAscent: 783
OS2WinAOffset: 0
OS2WinDescent: 218
OS2WinDOffset: 0
HheadAscent: 800
HheadAOffset: 0
HheadDescent: -200
HheadDOffset: 0
OS2SubXSize: 650
OS2SubYSize: 700
OS2SubXOff: 0
OS2SubYOff: 140
OS2SupXSize: 650
OS2SupYSize: 700
OS2SupXOff: 0
OS2SupYOff: 480
OS2StrikeYSize: 49
OS2StrikeYPos: 258
OS2CapHeight: 662
OS2XHeight: 450
OS2Vendor: '    '
OS2CodePages: 00000001.00000000
OS2UnicodeRanges: 80000003.12002002.00000000.00000000
Lookup: 4 0 0 "'ccmp' Cyrillic Ligatures" { "'ccmp' Cyrillic Ligatures-1"  } ['ccmp' ('DFLT' <'dflt' > 'cyrl' <'dflt' > 'geor' <'dflt' > 'latn' <'dflt' > ) ]
Lookup: 4 0 0 "'ccmp' Znamenny Ligatures" { "'ccmp' Znamenny Ligatures 0-1"  } ['ccmp' ('DFLT' <'dflt' > 'latn' <'dflt' > ) ]
Lookup: 3 0 0 "'salt' Stylistic Alternatives" { "'salt' Stylistic Alternatives-1"  } ['salt' ('DFLT' <'dflt' > 'cyrl' <'dflt' > 'geor' <'dflt' > 'latn' <'dflt' > ) ]
Lookup: 260 0 0 "'mark' Cyrillic diacritics" { "'mark' Cyrillic diacritics-1"  } ['mark' ('DFLT' <'dflt' > 'cyrl' <'dflt' > 'geor' <'dflt' > 'latn' <'dflt' > ) ]
Lookup: 260 0 0 "'mark' Mark Positioning" { "'mark' Mark Positioning-1"  } ['mark' ('DFLT' <'dflt' > 'latn' <'dflt' > ) ]

StartChar: .notdef
Encoding: 1114112 -1 0
Width: 500
Flags: MW
LayerCount: 2
Fore
SplineSet
50 0 m 1
 50 533 l 1
 450 533 l 1
 450 0 l 1
 50 0 l 1
100 50 m 1
 400 50 l 1
 400 483 l 1
 100 483 l 1
 100 50 l 1
EndSplineSet
Validated: 1
EndChar

StartChar: uni0001
Encoding: 1 1 2
Width: 500
GlyphClass: 2
Flags: MW
LayerCount: 2
Fore
SplineSet
37 770 m 1
 464 770 l 1
 464 0 l 1
 37 0 l 1
 37 770 l 1
66 748 m 1
 250 398 l 1
 435 748 l 1
 66 748 l 1
258 383 m 1
 442 34 l 1
 442 733 l 1
 258 383 l 1
435 19 m 1
 250 369 l 1
 66 19 l 1
 435 19 l 1
59 733 m 1
 59 34 l 1
 243 383 l 1
 59 733 l 1
EndSplineSet
Validated: 1
EndChar

StartChar: uni0002
Encoding: 2 2 3
Width: 500
GlyphClass: 2
Flags: MW
LayerCount: 2
Fore
SplineSet
37 770 m 1
 464 770 l 1
 464 0 l 1
 37 0 l 1
 37 770 l 1
66 748 m 1
 250 398 l 1
 435 748 l 1
 66 748 l 1
258 383 m 1
 442 34 l 1
 442 733 l 1
 258 383 l 1
435 19 m 1
 250 369 l 1
 66 19 l 1
 435 19 l 1
59 733 m 1
 59 34 l 1
 243 383 l 1
 59 733 l 1
EndSplineSet
Validated: 1
EndChar

StartChar: uni0003
Encoding: 3 3 4
Width: 500
GlyphClass: 2
Flags: MW
LayerCount: 2
Fore
SplineSet
37 770 m 1
 464 770 l 1
 464 0 l 1
 37 0 l 1
 37 770 l 1
66 748 m 1
 250 398 l 1
 435 748 l 1
 66 748 l 1
258 383 m 1
 442 34 l 1
 442 733 l 1
 258 383 l 1
435 19 m 1
 250 369 l 1
 66 19 l 1
 435 19 l 1
59 733 m 1
 59 34 l 1
 243 383 l 1
 59 733 l 1
EndSplineSet
Validated: 1
EndChar

StartChar: uni0004
Encoding: 4 4 5
Width: 500
GlyphClass: 2
Flags: MW
LayerCount: 2
Fore
SplineSet
37 770 m 1
 464 770 l 1
 464 0 l 1
 37 0 l 1
 37 770 l 1
66 748 m 1
 250 398 l 1
 435 748 l 1
 66 748 l 1
258 383 m 1
 442 34 l 1
 442 733 l 1
 258 383 l 1
435 19 m 1
 250 369 l 1
 66 19 l 1
 435 19 l 1
59 733 m 1
 59 34 l 1
 243 383 l 1
 59 733 l 1
EndSplineSet
Validated: 1
EndChar

StartChar: uni0005
Encoding: 5 5 6
Width: 500
GlyphClass: 2
Flags: MW
LayerCount: 2
Fore
SplineSet
37 770 m 1
 464 770 l 1
 464 0 l 1
 37 0 l 1
 37 770 l 1
66 748 m 1
 250 398 l 1
 435 748 l 1
 66 748 l 1
258 383 m 1
 442 34 l 1
 442 733 l 1
 258 383 l 1
435 19 m 1
 250 369 l 1
 66 19 l 1
 435 19 l 1
59 733 m 1
 59 34 l 1
 243 383 l 1
 59 733 l 1
EndSplineSet
Validated: 1
EndChar

StartChar: uni0006
Encoding: 6 6 7
Width: 500
GlyphClass: 2
Flags: MW
LayerCount: 2
Fore
SplineSet
37 770 m 1
 464 770 l 1
 464 0 l 1
 37 0 l 1
 37 770 l 1
66 748 m 1
 250 398 l 1
 435 748 l 1
 66 748 l 1
258 383 m 1
 442 34 l 1
 442 733 l 1
 258 383 l 1
435 19 m 1
 250 369 l 1
 66 19 l 1
 435 19 l 1
59 733 m 1
 59 34 l 1
 243 383 l 1
 59 733 l 1
EndSplineSet
Validated: 1
EndChar

StartChar: uni0007
Encoding: 7 7 8
Width: 500
GlyphClass: 2
Flags: MW
LayerCount: 2
Fore
SplineSet
37 770 m 1
 464 770 l 1
 464 0 l 1
 37 0 l 1
 37 770 l 1
66 748 m 1
 250 398 l 1
 435 748 l 1
 66 748 l 1
258 383 m 1
 442 34 l 1
 442 733 l 1
 258 383 l 1
435 19 m 1
 250 369 l 1
 66 19 l 1
 435 19 l 1
59 733 m 1
 59 34 l 1
 243 383 l 1
 59 733 l 1
EndSplineSet
Validated: 1
EndChar

StartChar: uni000B
Encoding: 11 11 12
Width: 500
GlyphClass: 2
Flags: HMW
LayerCount: 2
Fore
SplineSet
37 770 m 1
 464 770 l 1
 464 0 l 1
 37 0 l 1
 37 770 l 1
66 748 m 1
 250 398 l 1
 435 748 l 1
 66 748 l 1
258 383 m 1
 442 34 l 1
 442 733 l 1
 258 383 l 1
435 19 m 1
 250 369 l 1
 66 19 l 1
 435 19 l 1
59 733 m 1
 59 34 l 1
 243 383 l 1
 59 733 l 1
EndSplineSet
Validated: 1
EndChar

StartChar: uni000C
Encoding: 12 12 13
Width: 500
GlyphClass: 2
Flags: HMW
LayerCount: 2
Fore
SplineSet
37 770 m 1
 464 770 l 1
 464 0 l 1
 37 0 l 1
 37 770 l 1
66 748 m 1
 250 398 l 1
 435 748 l 1
 66 748 l 1
258 383 m 1
 442 34 l 1
 442 733 l 1
 258 383 l 1
435 19 m 1
 250 369 l 1
 66 19 l 1
 435 19 l 1
59 733 m 1
 59 34 l 1
 243 383 l 1
 59 733 l 1
EndSplineSet
Validated: 1
EndChar

StartChar: uni000E
Encoding: 14 14 15
Width: 500
GlyphClass: 2
Flags: MW
LayerCount: 2
Fore
SplineSet
37 770 m 1
 464 770 l 1
 464 0 l 1
 37 0 l 1
 37 770 l 1
66 748 m 1
 250 398 l 1
 435 748 l 1
 66 748 l 1
258 383 m 1
 442 34 l 1
 442 733 l 1
 258 383 l 1
435 19 m 1
 250 369 l 1
 66 19 l 1
 435 19 l 1
59 733 m 1
 59 34 l 1
 243 383 l 1
 59 733 l 1
EndSplineSet
Validated: 1
EndChar

StartChar: uni000F
Encoding: 15 15 16
Width: 500
GlyphClass: 2
Flags: MW
LayerCount: 2
Fore
SplineSet
37 770 m 1
 464 770 l 1
 464 0 l 1
 37 0 l 1
 37 770 l 1
66 748 m 1
 250 398 l 1
 435 748 l 1
 66 748 l 1
258 383 m 1
 442 34 l 1
 442 733 l 1
 258 383 l 1
435 19 m 1
 250 369 l 1
 66 19 l 1
 435 19 l 1
59 733 m 1
 59 34 l 1
 243 383 l 1
 59 733 l 1
EndSplineSet
Validated: 1
EndChar

StartChar: uni0010
Encoding: 16 16 17
Width: 500
GlyphClass: 2
Flags: MW
LayerCount: 2
Fore
SplineSet
37 770 m 1
 464 770 l 1
 464 0 l 1
 37 0 l 1
 37 770 l 1
66 748 m 1
 250 398 l 1
 435 748 l 1
 66 748 l 1
258 383 m 1
 442 34 l 1
 442 733 l 1
 258 383 l 1
435 19 m 1
 250 369 l 1
 66 19 l 1
 435 19 l 1
59 733 m 1
 59 34 l 1
 243 383 l 1
 59 733 l 1
EndSplineSet
Validated: 1
EndChar

StartChar: uni0011
Encoding: 17 17 18
Width: 500
GlyphClass: 2
Flags: MW
LayerCount: 2
Fore
SplineSet
37 770 m 1
 464 770 l 1
 464 0 l 1
 37 0 l 1
 37 770 l 1
66 748 m 1
 250 398 l 1
 435 748 l 1
 66 748 l 1
258 383 m 1
 442 34 l 1
 442 733 l 1
 258 383 l 1
435 19 m 1
 250 369 l 1
 66 19 l 1
 435 19 l 1
59 733 m 1
 59 34 l 1
 243 383 l 1
 59 733 l 1
EndSplineSet
Validated: 1
EndChar

StartChar: uni0012
Encoding: 18 18 19
Width: 500
GlyphClass: 2
Flags: MW
LayerCount: 2
Fore
SplineSet
37 770 m 1
 464 770 l 1
 464 0 l 1
 37 0 l 1
 37 770 l 1
66 748 m 1
 250 398 l 1
 435 748 l 1
 66 748 l 1
258 383 m 1
 442 34 l 1
 442 733 l 1
 258 383 l 1
435 19 m 1
 250 369 l 1
 66 19 l 1
 435 19 l 1
59 733 m 1
 59 34 l 1
 243 383 l 1
 59 733 l 1
EndSplineSet
Validated: 1
EndChar

StartChar: uni0013
Encoding: 19 19 20
Width: 500
GlyphClass: 2
Flags: MW
LayerCount: 2
Fore
SplineSet
37 770 m 1
 464 770 l 1
 464 0 l 1
 37 0 l 1
 37 770 l 1
66 748 m 1
 250 398 l 1
 435 748 l 1
 66 748 l 1
258 383 m 1
 442 34 l 1
 442 733 l 1
 258 383 l 1
435 19 m 1
 250 369 l 1
 66 19 l 1
 435 19 l 1
59 733 m 1
 59 34 l 1
 243 383 l 1
 59 733 l 1
EndSplineSet
Validated: 1
EndChar

StartChar: uni0014
Encoding: 20 20 21
Width: 500
GlyphClass: 2
Flags: MW
LayerCount: 2
Fore
SplineSet
37 770 m 1
 464 770 l 1
 464 0 l 1
 37 0 l 1
 37 770 l 1
66 748 m 1
 250 398 l 1
 435 748 l 1
 66 748 l 1
258 383 m 1
 442 34 l 1
 442 733 l 1
 258 383 l 1
435 19 m 1
 250 369 l 1
 66 19 l 1
 435 19 l 1
59 733 m 1
 59 34 l 1
 243 383 l 1
 59 733 l 1
EndSplineSet
Validated: 1
EndChar

StartChar: uni0015
Encoding: 21 21 22
Width: 500
GlyphClass: 2
Flags: MW
LayerCount: 2
Fore
SplineSet
37 770 m 1
 464 770 l 1
 464 0 l 1
 37 0 l 1
 37 770 l 1
66 748 m 1
 250 398 l 1
 435 748 l 1
 66 748 l 1
258 383 m 1
 442 34 l 1
 442 733 l 1
 258 383 l 1
435 19 m 1
 250 369 l 1
 66 19 l 1
 435 19 l 1
59 733 m 1
 59 34 l 1
 243 383 l 1
 59 733 l 1
EndSplineSet
Validated: 1
EndChar

StartChar: uni0016
Encoding: 22 22 23
Width: 500
GlyphClass: 2
Flags: MW
LayerCount: 2
Fore
SplineSet
37 770 m 1
 464 770 l 1
 464 0 l 1
 37 0 l 1
 37 770 l 1
66 748 m 1
 250 398 l 1
 435 748 l 1
 66 748 l 1
258 383 m 1
 442 34 l 1
 442 733 l 1
 258 383 l 1
435 19 m 1
 250 369 l 1
 66 19 l 1
 435 19 l 1
59 733 m 1
 59 34 l 1
 243 383 l 1
 59 733 l 1
EndSplineSet
Validated: 1
EndChar

StartChar: uni0017
Encoding: 23 23 24
Width: 500
GlyphClass: 2
Flags: MW
LayerCount: 2
Fore
SplineSet
37 770 m 1
 464 770 l 1
 464 0 l 1
 37 0 l 1
 37 770 l 1
66 748 m 1
 250 398 l 1
 435 748 l 1
 66 748 l 1
258 383 m 1
 442 34 l 1
 442 733 l 1
 258 383 l 1
435 19 m 1
 250 369 l 1
 66 19 l 1
 435 19 l 1
59 733 m 1
 59 34 l 1
 243 383 l 1
 59 733 l 1
EndSplineSet
Validated: 1
EndChar

StartChar: uni0018
Encoding: 24 24 25
Width: 500
GlyphClass: 2
Flags: MW
LayerCount: 2
Fore
SplineSet
37 770 m 1
 464 770 l 1
 464 0 l 1
 37 0 l 1
 37 770 l 1
66 748 m 1
 250 398 l 1
 435 748 l 1
 66 748 l 1
258 383 m 1
 442 34 l 1
 442 733 l 1
 258 383 l 1
435 19 m 1
 250 369 l 1
 66 19 l 1
 435 19 l 1
59 733 m 1
 59 34 l 1
 243 383 l 1
 59 733 l 1
EndSplineSet
Validated: 1
EndChar

StartChar: uni0019
Encoding: 25 25 26
Width: 500
GlyphClass: 2
Flags: MW
LayerCount: 2
Fore
SplineSet
37 770 m 1
 464 770 l 1
 464 0 l 1
 37 0 l 1
 37 770 l 1
66 748 m 1
 250 398 l 1
 435 748 l 1
 66 748 l 1
258 383 m 1
 442 34 l 1
 442 733 l 1
 258 383 l 1
435 19 m 1
 250 369 l 1
 66 19 l 1
 435 19 l 1
59 733 m 1
 59 34 l 1
 243 383 l 1
 59 733 l 1
EndSplineSet
Validated: 1
EndChar

StartChar: uni001A
Encoding: 26 26 27
Width: 500
GlyphClass: 2
Flags: MW
LayerCount: 2
Fore
SplineSet
37 770 m 1
 464 770 l 1
 464 0 l 1
 37 0 l 1
 37 770 l 1
66 748 m 1
 250 398 l 1
 435 748 l 1
 66 748 l 1
258 383 m 1
 442 34 l 1
 442 733 l 1
 258 383 l 1
435 19 m 1
 250 369 l 1
 66 19 l 1
 435 19 l 1
59 733 m 1
 59 34 l 1
 243 383 l 1
 59 733 l 1
EndSplineSet
Validated: 1
EndChar

StartChar: uni001B
Encoding: 27 27 28
Width: 500
GlyphClass: 2
Flags: MW
LayerCount: 2
Fore
SplineSet
37 770 m 1
 464 770 l 1
 464 0 l 1
 37 0 l 1
 37 770 l 1
66 748 m 1
 250 398 l 1
 435 748 l 1
 66 748 l 1
258 383 m 1
 442 34 l 1
 442 733 l 1
 258 383 l 1
435 19 m 1
 250 369 l 1
 66 19 l 1
 435 19 l 1
59 733 m 1
 59 34 l 1
 243 383 l 1
 59 733 l 1
EndSplineSet
Validated: 1
EndChar

StartChar: uni001C
Encoding: 28 28 29
Width: 500
GlyphClass: 2
Flags: MW
LayerCount: 2
Fore
SplineSet
37 770 m 1
 464 770 l 1
 464 0 l 1
 37 0 l 1
 37 770 l 1
66 748 m 1
 250 398 l 1
 435 748 l 1
 66 748 l 1
258 383 m 1
 442 34 l 1
 442 733 l 1
 258 383 l 1
435 19 m 1
 250 369 l 1
 66 19 l 1
 435 19 l 1
59 733 m 1
 59 34 l 1
 243 383 l 1
 59 733 l 1
EndSplineSet
Validated: 1
EndChar

StartChar: uni001E
Encoding: 30 30 31
Width: 500
GlyphClass: 2
Flags: MW
LayerCount: 2
Fore
SplineSet
37 770 m 1
 464 770 l 1
 464 0 l 1
 37 0 l 1
 37 770 l 1
66 748 m 1
 250 398 l 1
 435 748 l 1
 66 748 l 1
258 383 m 1
 442 34 l 1
 442 733 l 1
 258 383 l 1
435 19 m 1
 250 369 l 1
 66 19 l 1
 435 19 l 1
59 733 m 1
 59 34 l 1
 243 383 l 1
 59 733 l 1
EndSplineSet
Validated: 1
EndChar

StartChar: uni001F
Encoding: 31 31 32
Width: 500
GlyphClass: 2
Flags: MW
LayerCount: 2
Fore
SplineSet
37 770 m 1
 464 770 l 1
 464 0 l 1
 37 0 l 1
 37 770 l 1
66 748 m 1
 250 398 l 1
 435 748 l 1
 66 748 l 1
258 383 m 1
 442 34 l 1
 442 733 l 1
 258 383 l 1
435 19 m 1
 250 369 l 1
 66 19 l 1
 435 19 l 1
59 733 m 1
 59 34 l 1
 243 383 l 1
 59 733 l 1
EndSplineSet
Validated: 1
EndChar

StartChar: exclam
Encoding: 33 33 34
Width: 253
GlyphClass: 2
Flags: MW
LayerCount: 2
Fore
SplineSet
73.919921875 591.360351562 m 0
 73.919921875 626.560546875 93.2802734375 656.479492188 126.719726562 656.479492188 c 0
 161.919921875 656.479492188 179.51953125 624.799804688 179.51953125 586.080078125 c 0
 177.759765625 582.560546875 177.759765625 579.041015625 177.759765625 573.760742188 c 2
 177.759765625 556.161132812 l 1
 135.51953125 179.521484375 l 1
 117.919921875 179.521484375 l 1
 75.6796875 556.161132812 l 2
 73.919921875 572.000976562 73.919921875 582.560546875 73.919921875 591.360351562 c 0
73.919921875 52.798828125 m 0
 73.919921875 79.19921875 98.5595703125 102.079101562 126.719726562 102.079101562 c 0
 153.120117188 102.079101562 177.759765625 79.19921875 177.759765625 52.798828125 c 0
 177.759765625 24.638671875 153.120117188 -0.0009765625 126.719726562 -0.0009765625 c 0
 98.5595703125 -0.0009765625 73.919921875 24.638671875 73.919921875 52.798828125 c 0
EndSplineSet
Validated: 1
EndChar

StartChar: quotedbl
Encoding: 34 34 35
Width: 378
GlyphClass: 2
Flags: MW
LayerCount: 2
Fore
SplineSet
265.759765625 663.51953125 m 0
 290.399414062 663.51953125 306.239257812 645.921875 306.239257812 619.521484375 c 0
 306.239257812 596.641601562 304.479492188 570.241210938 299.19921875 543.840820312 c 2
 274.559570312 422.400390625 l 1
 255.19921875 422.400390625 l 1
 223.51953125 593.120117188 l 1
 223.51953125 600.159830729 223.51953125 607.199544271 223.51953125 614.239257812 c 0
 223.51953125 644.159179688 235.83984375 663.51953125 265.759765625 663.51953125 c 0
112.639648438 663.521484375 m 0
 137.279296875 663.521484375 154.880859375 644.16015625 154.880859375 619.520507812 c 0
 154.880859375 594.880859375 149.600585938 573.760742188 144.3203125 543.840820312 c 2
 123.200195312 422.400390625 l 1
 103.83984375 422.400390625 l 1
 80.9599609375 545.600585938 l 2
 75.6796875 579.041015625 72.16015625 601.920898438 72.16015625 614.241210938 c 0
 72.16015625 644.161132812 84.48046875 663.521484375 112.639648438 663.521484375 c 0
EndSplineSet
Validated: 1
EndChar

StartChar: numbersign
Encoding: 35 35 36
Width: 638
GlyphClass: 2
Flags: MW
LayerCount: 2
Fore
SplineSet
112.639648438 0 m 1
 161.919921875 209.440429688 l 1
 72.16015625 209.440429688 l 1
 72.16015625 248.16015625 l 1
 168.959960938 248.16015625 l 1
 205.919921875 404.799804688 l 1
 72.16015625 404.799804688 l 1
 72.16015625 441.759765625 l 1
 214.719726562 441.759765625 l 1
 262.239257812 651.200195312 l 1
 306.239257812 651.200195312 l 1
 258.719726562 441.759765625 l 1
 432.959960938 441.759765625 l 1
 484 651.200195312 l 1
 526.240234375 651.200195312 l 1
 476.959960938 441.759765625 l 1
 566.719726562 441.759765625 l 1
 566.719726562 404.799804688 l 1
 469.919921875 404.799804688 l 1
 432.959960938 248.16015625 l 1
 566.719726562 248.16015625 l 1
 566.719726562 209.440429688 l 1
 424.16015625 209.440429688 l 1
 376.640625 0 l 1
 334.400390625 0 l 1
 381.919921875 209.440429688 l 1
 205.919921875 209.440429688 l 1
 156.639648438 0 l 1
 112.639648438 0 l 1
212.959960938 248.16015625 m 1
 388.959960938 248.16015625 l 1
 425.919921875 404.799804688 l 1
 249.919921875 404.799804688 l 1
 212.959960938 248.16015625 l 1
EndSplineSet
Validated: 1
EndChar

StartChar: dollar
Encoding: 36 36 37
Width: 528
GlyphClass: 2
Flags: MW
LayerCount: 2
Fore
SplineSet
75.6796875 496.3203125 m 0
 75.6796875 591.360351562 153.122070312 638.87890625 239.362304688 647.678710938 c 1
 239.362304688 689.918945312 l 1
 269.282226562 689.918945312 l 1
 269.282226562 647.678710938 l 1
 278.08203125 645.918945312 283.362304688 645.918945312 288.642578125 645.918945312 c 2
 295.682617188 645.918945312 l 2
 302.72265625 645.918945312 308.002929688 645.918945312 318.5625 644.159179688 c 0
 353.762695312 633.599609375 374.8828125 624.799804688 422.40234375 607.200195312 c 1
 422.40234375 468.16015625 l 1
 403.041992188 468.16015625 l 1
 403.041992188 563.200195312 359.041992188 616 269.282226562 616 c 1
 269.282226562 380.16015625 l 1
 308.001953125 353.759765625 341.442382812 329.120117188 364.322265625 311.520507812 c 0
 413.602539062 272.80078125 452.322265625 242.880859375 452.322265625 163.680664062 c 0
 452.322265625 86.2412109375 401.282226562 38.720703125 344.961914062 14.0810546875 c 0
 323.841796875 3.5205078125 297.44140625 -5.279296875 269.28125 -5.279296875 c 1
 269.28125 -63.359375 l 1
 239.361328125 -63.359375 l 1
 239.361328125 -5.279296875 l 1
 170.721679688 -5.279296875 130.241210938 10.560546875 75.6806640625 31.6806640625 c 1
 75.6806640625 163.680664062 l 1
 95.041015625 163.680664062 l 1
 95.041015625 75.6806640625 149.600585938 26.4013671875 239.360351562 26.4013671875 c 1
 239.360351562 295.680664062 l 1
 188.3203125 327.360351562 146.080078125 355.520507812 112.639648438 394.240234375 c 0
 88 422.400390625 75.6796875 450.560546875 75.6796875 496.3203125 c 0
239.362304688 615.999023438 m 1
 184.802734375 608.958984375 147.841796875 580.799804688 147.841796875 526.240234375 c 0
 147.841796875 505.120117188 153.122070312 484 167.202148438 462.879882812 c 0
 181.282226562 443.51953125 205.921875 422.399414062 239.362304688 401.279296875 c 1
 239.362304688 615.999023438 l 1
269.28125 26.400390625 m 1
 330.880859375 36.9599609375 378.401367188 73.9208984375 378.401367188 142.560546875 c 0
 378.401367188 186.560546875 355.521484375 207.680664062 327.361328125 232.3203125 c 0
 313.28125 244.640625 293.920898438 258.720703125 269.28125 276.3203125 c 1
 269.28125 26.400390625 l 1
EndSplineSet
Validated: 1
EndChar

StartChar: percent
Encoding: 37 37 38
Width: 860
GlyphClass: 2
Flags: MW
LayerCount: 2
Fore
SplineSet
675.83984375 656.48046875 m 1
 225.280273438 0 l 1
 184.799804688 0 l 1
 635.359375 656.48046875 l 1
 675.83984375 656.48046875 l 1
336.16015625 489.280273438 m 0
 336.16015625 396 292.16015625 322.080078125 200.640625 322.080078125 c 0
 114.400390625 322.080078125 73.919921875 406.560546875 73.919921875 494.560546875 c 0
 73.919921875 566.720703125 109.120117188 617.760742188 154.879882812 644.161132812 c 0
 168.959960938 652.9609375 184.799804688 656.48046875 200.639648438 656.48046875 c 2
 207.6796875 656.48046875 l 2
 293.919921875 656.48046875 336.16015625 575.520507812 336.16015625 489.280273438 c 0
264 487.520507812 m 0
 264 550.880859375 256.959960938 631.840820312 205.919921875 631.840820312 c 0
 151.360351562 631.840820312 147.840820312 552.640625 147.840820312 489.280273438 c 0
 147.840820312 424.16015625 151.360351562 346.719726562 204.16015625 346.719726562 c 0
 255.200195312 346.719726562 264 424.16015625 264 487.520507812 c 0
786.719726562 174.240234375 m 0
 786.719726562 79.2001953125 744.479492188 -0.0009765625 656.479492188 -0.0009765625 c 0
 568.479492188 -0.0009765625 524.479492188 82.71875 524.479492188 172.479492188 c 0
 524.479492188 242.879882812 557.919921875 295.6796875 603.6796875 320.319335938 c 0
 619.51953125 327.359375 633.599609375 332.639648438 649.439453125 332.639648438 c 2
 654.719726562 332.639648438 l 2
 735.6796875 332.639648438 786.719726562 256.959960938 786.719726562 174.240234375 c 0
714.559570312 163.6796875 m 0
 714.559570312 228.799804688 705.758789062 307.998046875 654.71875 307.998046875 c 0
 637.119140625 307.998046875 623.0390625 297.438476562 612.479492188 274.55859375 c 0
 601.919921875 253.438476562 596.639648438 214.71875 596.639648438 161.918945312 c 0
 596.639648438 96.798828125 605.439453125 24.638671875 654.719726562 24.638671875 c 0
 672.319335938 24.638671875 686.399414062 35.19921875 696.958984375 58.0791015625 c 0
 709.279296875 79.19921875 714.559570312 114.399414062 714.559570312 163.6796875 c 0
EndSplineSet
Validated: 1
EndChar

StartChar: ampersand
Encoding: 38 38 39
Width: 848
GlyphClass: 2
Flags: MW
LayerCount: 2
Fore
SplineSet
584.3203125 318.559570312 m 0
 584.3203125 344.959960938 564.9609375 371.359375 538.560546875 371.359375 c 1
 538.560546875 390.719726562 l 1
 740.9609375 390.719726562 l 1
 740.9609375 371.359375 l 1
 689.920898438 371.359375 675.840820312 359.0390625 652.9609375 323.838867188 c 0
 630.081054688 288.638671875 598.401367188 256.958984375 572.000976562 218.239257812 c 0
 556.161132812 193.599609375 540.321289062 170.719726562 522.721679688 149.599609375 c 1
 550.881835938 116.159179688 577.282226562 93.279296875 598.40234375 79.19921875 c 0
 621.282226562 65.119140625 644.162109375 59.8388671875 667.041992188 59.8388671875 c 0
 716.322265625 59.8388671875 744.482421875 87.9990234375 755.041992188 130.239257812 c 1
 774.40234375 117.918945312 l 1
 753.282226562 42.2392578125 711.041992188 -14.0810546875 624.801757812 -14.0810546875 c 0
 598.401367188 -14.0810546875 572.000976562 -7.041015625 545.600585938 7.0390625 c 0
 517.440429688 21.119140625 489.280273438 43.9990234375 455.83984375 79.19921875 c 1
 401.280273438 29.9189453125 344.959960938 -14.0810546875 246.400390625 -14.0810546875 c 0
 167.200195312 -14.0810546875 110.879882812 21.119140625 86.240234375 73.9189453125 c 0
 77.4404296875 91.5185546875 73.919921875 109.119140625 73.919921875 128.479492188 c 0
 73.919921875 214.719726562 123.200195312 262.239257812 176 302.719726562 c 0
 202.400390625 323.83984375 234.080078125 343.200195312 272.799804688 364.3203125 c 1
 249.919921875 417.120117188 234.080078125 448.799804688 234.080078125 508.639648438 c 0
 234.080078125 605.439453125 304.48046875 667.0390625 401.280273438 667.0390625 c 0
 475.200195312 667.0390625 531.520507812 623.0390625 531.520507812 549.119140625 c 0
 531.520507812 482.239257812 491.040039062 450.559570312 447.040039062 420.639648438 c 0
 427.6796875 406.559570312 403.040039062 392.479492188 373.120117188 376.639648438 c 1
 411.83984375 304.479492188 454.080078125 239.359375 499.83984375 177.759765625 c 1
 557.919921875 244.639648438 584.3203125 272.799804688 584.3203125 318.559570312 c 0
401.28125 633.598632812 m 0
 352.000976562 633.598632812 316.799804688 594.87890625 316.799804688 545.598632812 c 0
 316.799804688 491.0390625 337.919921875 450.55859375 357.280273438 408.318359375 c 1
 434.720703125 443.518554688 475.201171875 492.798828125 475.201171875 552.638671875 c 0
 475.201171875 596.638671875 443.521484375 633.598632812 401.28125 633.598632812 c 0
174.240234375 172.478515625 m 0
 174.240234375 98.55859375 221.759765625 43.998046875 295.6796875 43.998046875 c 0
 359.040039062 43.998046875 392.48046875 73.91796875 431.200195312 105.59765625 c 1
 371.360351562 186.557617188 332.640625 242.877929688 288.640625 332.637695312 c 1
 211.200195312 288.637695312 174.240234375 234.078125 174.240234375 172.478515625 c 0
EndSplineSet
Validated: 1
EndChar

StartChar: quotesingle
Encoding: 39 39 40
Width: 232
GlyphClass: 2
Flags: MW
LayerCount: 2
Fore
SplineSet
73.919921875 593.120117188 m 1
 73.9189453125 614.241210938 l 2
 73.9189453125 644.161132812 87.9990234375 663.521484375 116.159179688 663.521484375 c 0
 140.798828125 663.521484375 158.3984375 645.921875 158.3984375 619.521484375 c 0
 158.3984375 596.641601562 154.87890625 570.241210938 151.359375 543.840820312 c 1
 126.719726562 422.400390625 l 1
 105.599609375 422.400390625 l 1
 73.919921875 593.120117188 l 1
EndSplineSet
Validated: 1
EndChar

StartChar: parenleft
Encoding: 40 40 41
Width: 323
GlyphClass: 2
Flags: MW
LayerCount: 2
Fore
SplineSet
259.866210938 -1.759765625 m 1
 197.3515625 36.2548828125 53.7353515625 157.060546875 53.7353515625 360.657226562 c 0
 53.7353515625 575.236328125 193.126953125 674.078125 262.400390625 718.852539062 c 1
 270.002929688 705.336914062 l 1
 182.989257812 635.217773438 126.389648438 570.168945312 126.389648438 363.192382812 c 0
 126.389648438 147.76953125 182.989257812 80.1845703125 270.002929688 11.755859375 c 1
 259.866210938 -1.759765625 l 1
EndSplineSet
Validated: 1
EndChar

StartChar: parenright
Encoding: 41 41 42
Width: 323
GlyphClass: 2
Flags: MW
LayerCount: 2
Fore
SplineSet
63.3603515625 -1.759765625 m 1
 54.55859375 12.3193359375 l 1
 140.798828125 80.958984375 197.119140625 147.838867188 197.119140625 362.55859375 c 0
 197.119140625 570.23828125 140.798828125 635.358398438 54.55859375 705.758789062 c 1
 61.5986328125 718.079101562 l 1
 130.239257812 674.079101562 269.279296875 575.51953125 269.279296875 360.799804688 c 0
 269.279296875 156.639648438 126.719726562 36.9599609375 63.3603515625 -1.759765625 c 1
EndSplineSet
Validated: 1
EndChar

StartChar: asterisk
Encoding: 42 42 43
Width: 443
GlyphClass: 2
Flags: MW
LayerCount: 2
Fore
SplineSet
274.559570312 563.200195312 m 0
 309.759765625 563.200195312 323.838867188 587.83984375 355.518554688 587.83984375 c 0
 362.55859375 587.83984375 367.838867188 582.559570312 367.838867188 577.279296875 c 0
 367.838867188 563.19921875 344.958984375 547.359375 336.159179688 542.079101562 c 0
 323.838867188 533.279296875 295.678710938 513.918945312 295.678710938 499.838867188 c 0
 295.678710938 480.478515625 325.598632812 462.87890625 337.918945312 454.079101562 c 0
 350.239257812 445.279296875 373.119140625 432.958984375 373.119140625 418.87890625 c 0
 373.119140625 411.838867188 366.079101562 406.55859375 357.279296875 406.55859375 c 0
 325.599609375 406.55859375 297.439453125 434.71875 267.51953125 434.71875 c 0
 244.639648438 434.71875 246.399414062 346.71875 223.51953125 346.71875 c 0
 193.599609375 346.71875 198.879882812 439.999023438 176 439.999023438 c 0
 165.440429688 439.999023438 139.040039062 422.399414062 130.240234375 420.639648438 c 0
 123.200195312 417.120117188 102.080078125 406.560546875 89.759765625 406.560546875 c 0
 82.7197265625 406.560546875 75.6796875 410.080078125 75.6796875 415.360351562 c 0
 75.6796875 427.680664062 102.080078125 447.041015625 109.120117188 452.321289062 c 0
 121.440429688 464.641601562 149.600585938 480.481445312 149.600585938 496.321289062 c 0
 149.600585938 517.44140625 121.440429688 535.041015625 105.600585938 545.600585938 c 0
 98.560546875 552.640625 72.1611328125 570.240234375 72.1611328125 582.560546875 c 2
 72.1611328125 586.080078125 l 1
 73.9208984375 589.599609375 80.9609375 591.359375 86.2412109375 591.359375 c 0
 123.201171875 591.359375 137.28125 563.19921875 176.000976562 563.19921875 c 0
 200.640625 563.19921875 200.640625 598.399414062 205.920898438 621.279296875 c 0
 209.440429688 637.119140625 214.720703125 665.279296875 228.80078125 665.279296875 c 0
 255.201171875 665.279296875 246.401367188 573.759765625 264.000976562 564.959960938 c 0
 267.520507812 563.200195312 271.040039062 563.200195312 274.559570312 563.200195312 c 0
179.518554688 501.600585938 m 0
 179.518554688 478.720703125 197.119140625 464.640625 221.758789062 464.640625 c 0
 242.87890625 464.640625 265.758789062 476.9609375 265.758789062 499.840820312 c 0
 265.758789062 520.9609375 246.3984375 545.600585938 221.758789062 545.600585938 c 0
 198.87890625 545.600585938 179.518554688 524.48046875 179.518554688 501.600585938 c 0
EndSplineSet
Validated: 1
EndChar

StartChar: plus
Encoding: 43 43 44
Width: 800
GlyphClass: 2
Flags: MW
LayerCount: 2
Fore
SplineSet
374.879882812 0 m 1
 374.879882812 308 l 1
 75.6796875 308 l 1
 75.6796875 360.799804688 l 1
 374.879882812 360.799804688 l 1
 374.879882812 661.759765625 l 1
 422.399414062 661.759765625 l 1
 422.399414062 360.799804688 l 1
 723.359375 360.799804688 l 1
 723.359375 308 l 1
 422.399414062 308 l 1
 422.399414062 0 l 1
 374.879882812 0 l 1
EndSplineSet
Validated: 1
EndChar

StartChar: comma
Encoding: 44 44 45
Width: 195
GlyphClass: 2
Flags: HMW
LayerCount: 2
Fore
SplineSet
165 56 m 0
 165 27.1613984929 147.593844902 -3.64677060915 130 -23 c 1
 115 -41 l 1
 88.3333333333 -71 57.6666666667 -95.3333333333 23 -114 c 0
 17 -116.666666667 11.6666666667 -118 7 -118 c 0
 2.33333333333 -118 0 -117 0 -115 c 2
 -1 -110 l 1
 -0.333333333333 -108 1.33333333333 -106 4 -104 c 0
 20.1673595127 -87.8326404873 56.8827604324 -42.7684847297 56.8827604324 -8.84753284049 c 0
 56.8827604324 -0.313945745174 54.5590850138 7.51440081718 49 14 c 1
 40 26 l 2
 31.3333333333 36.6666666667 27 48 27 60 c 0
 27 107.333333333 49.3333333333 131 94 131 c 0
 141.333333333 131 165 106 165 56 c 0
EndSplineSet
Validated: 1
EndChar

StartChar: hyphen
Encoding: 45 45 46
Width: 570
GlyphClass: 2
Flags: MW
LayerCount: 2
Fore
SplineSet
68.6396484375 360.799804688 m 1
 501.599609375 360.799804688 l 1
 501.599609375 308 l 1
 68.6396484375 308 l 1
 68.6396484375 360.799804688 l 1
EndSplineSet
Validated: 1
EndChar

StartChar: period
Encoding: 46 46 47
Width: 214
GlyphClass: 2
Flags: MW
LayerCount: 2
Fore
SplineSet
45.759765625 61.599609375 m 0
 45.759765625 95.0400390625 73.919921875 121.440429688 107.360351562 121.440429688 c 0
 140.80078125 121.440429688 168.9609375 95.0400390625 168.9609375 61.599609375 c 0
 168.9609375 28.16015625 140.80078125 0 107.360351562 0 c 0
 73.919921875 -0 45.759765625 28.16015625 45.759765625 61.599609375 c 0
EndSplineSet
Validated: 1
EndChar

StartChar: slash
Encoding: 47 47 48
Width: 427
GlyphClass: 2
Flags: HMW
LayerCount: 2
Fore
SplineSet
418.879882812 686.400390625 m 1
 68.6396484375 -24.6396484375 l 1
 8.7998046875 -24.6396484375 l 1
 360.799804688 686.400390625 l 1
 418.879882812 686.400390625 l 1
EndSplineSet
Validated: 1
EndChar

StartChar: zero
Encoding: 48 48 49
Width: 501
GlyphClass: 2
Flags: MW
LayerCount: 2
Fore
SplineSet
251 -14.5078125 m 0
 111.959960938 -14.5078125 23.9599609375 133.330078125 23.9599609375 335.73046875 c 0
 23.9599609375 524.05078125 108.440429688 677.170898438 254.520507812 677.170898438 c 0
 386.520507812 677.170898438 478.040039062 536.37109375 478.040039062 330.451171875 c 0
 478.040039062 129.811523438 390.040039062 -14.5078125 251 -14.5078125 c 0
252.759765625 650.770507812 m 0
 166.51953125 650.770507812 120.758789062 539.889648438 120.758789062 326.9296875 c 0
 120.758789062 119.25 164.758789062 11.8896484375 250.999023438 11.8896484375 c 0
 337.239257812 11.8896484375 381.239257812 119.25 381.239257812 328.690429688 c 0
 381.239257812 538.130859375 335.479492188 650.770507812 252.759765625 650.770507812 c 0
EndSplineSet
Validated: 1
EndChar

StartChar: one
Encoding: 49 49 50
Width: 366
GlyphClass: 2
Flags: MW
LayerCount: 2
Fore
SplineSet
110.879882812 586.080078125 m 0
 95.0400390625 586.080078125 77.44140625 579.0390625 36.9609375 563.19921875 c 1
 36.9609375 577.279296875 l 1
 223.520507812 672.319335938 l 1
 230.560546875 670.559570312 l 1
 230.560546875 70.400390625 l 2
 230.560546875 19.3603515625 248.16015625 7.0400390625 330.879882812 7.0400390625 c 1
 330.879882812 -7.0400390625 l 1
 44 -7.0400390625 l 1
 44 7.0400390625 l 1
 117.919921875 7.0400390625 142.559570312 28.16015625 142.559570312 96.7998046875 c 2
 142.559570312 536.799804688 l 2
 142.559570312 570.240234375 132 586.080078125 110.879882812 586.080078125 c 0
EndSplineSet
Validated: 1
EndChar

StartChar: two
Encoding: 50 50 51
Width: 517
GlyphClass: 2
Flags: MW
LayerCount: 2
Fore
SplineSet
36.9599609375 473.440429688 m 1
 47.51953125 519.200195312 84.4794921875 672.321289062 244.638671875 672.321289062 c 0
 350.23828125 672.321289062 431.198242188 594.880859375 431.198242188 494.560546875 c 0
 431.198242188 417.120117188 392.478515625 339.6796875 302.71875 246.399414062 c 2
 133.758789062 70.3994140625 l 1
 373.119140625 70.3994140625 l 2
 418.87890625 70.3994140625 431.19921875 79.19921875 469.918945312 137.279296875 c 1
 482.239257812 131.999023438 l 1
 427.6796875 -5.28125 l 1
 35.2001953125 -5.28125 l 1
 35.2001953125 7.0390625 l 1
 214.719726562 195.359375 l 2
 299.200195312 285.119140625 344.959960938 378.399414062 344.959960938 457.599609375 c 0
 344.959960938 540.319335938 286.879882812 598.399414062 204.16015625 598.399414062 c 0
 133.759765625 598.399414062 98.5595703125 566.719726562 58.080078125 468.16015625 c 1
 36.9599609375 473.440429688 l 1
EndSplineSet
Validated: 1
EndChar

StartChar: three
Encoding: 51 51 52
Width: 491
GlyphClass: 2
Flags: MW
LayerCount: 2
Fore
SplineSet
77.4404296875 84.48046875 m 0
 130.240234375 84.48046875 167.201171875 28.1591796875 235.840820312 28.1591796875 c 0
 316.80078125 28.1591796875 378.400390625 93.279296875 378.400390625 179.518554688 c 0
 378.400390625 318.55859375 246.400390625 327.358398438 154.880859375 327.358398438 c 1
 154.880859375 339.678710938 l 1
 235.840820312 366.079101562 332.640625 406.559570312 332.640625 508.639648438 c 0
 332.640625 572 285.12109375 617.759765625 214.720703125 617.759765625 c 0
 146.081054688 617.759765625 98.560546875 584.319335938 54.560546875 508.639648438 c 1
 36.9609375 513.919921875 l 1
 66.880859375 589.599609375 117.920898438 677.599609375 249.920898438 677.599609375 c 0
 350.241210938 677.599609375 418.880859375 621.279296875 418.880859375 538.559570312 c 0
 418.880859375 484 390.720703125 447.040039062 316.80078125 397.759765625 c 1
 388.9609375 369.599609375 455.840820312 337.919921875 455.840820312 227.040039062 c 0
 455.840820312 80.9599609375 323.840820312 -8.7998046875 158.400390625 -8.7998046875 c 0
 82.7197265625 -8.7998046875 35.2001953125 14.080078125 35.2001953125 49.2802734375 c 0
 35.2001953125 70.400390625 51.0400390625 84.48046875 77.4404296875 84.48046875 c 0
EndSplineSet
Validated: 1
EndChar

StartChar: four
Encoding: 52 52 53
Width: 535
GlyphClass: 2
Flags: MW
LayerCount: 2
Fore
SplineSet
513.919921875 212.959960938 m 1
 513.920898438 146.080078125 l 1
 408.321289062 146.080078125 l 1
 408.321289062 0 l 1
 329.12109375 0 l 1
 329.12109375 146.080078125 l 1
 36.9609375 146.080078125 l 1
 36.9609375 212.959960938 l 1
 362.560546875 674.080078125 l 1
 408.3203125 674.080078125 l 1
 408.3203125 212.959960938 l 1
 513.919921875 212.959960938 l 1
327.361328125 212.959960938 m 1
 327.361328125 568.479492188 l 1
 77.44140625 212.959960938 l 1
 327.361328125 212.959960938 l 1
EndSplineSet
Validated: 1
EndChar

StartChar: five
Encoding: 53 53 54
Width: 487
GlyphClass: 2
Flags: MW
LayerCount: 2
Fore
SplineSet
371.360351562 197.120117188 m 0
 371.360351562 381.919921875 147.838867188 413.599609375 84.4794921875 413.599609375 c 0
 75.6787109375 413.599609375 72.1591796875 415.359375 72.1591796875 420.639648438 c 2
 72.1591796875 425.919921875 l 1
 184.798828125 660 l 1
 397.758789062 660 l 2
 418.87890625 660 429.438476562 665.280273438 443.518554688 686.400390625 c 1
 454.078125 679.360351562 l 1
 415.358398438 591.360351562 l 2
 411.838867188 584.3203125 408.319335938 582.560546875 390.719726562 582.560546875 c 2
 191.83984375 582.560546875 l 1
 147.83984375 498.080078125 l 1
 337.919921875 464.639648438 441.759765625 399.51953125 441.759765625 244.639648438 c 0
 441.759765625 42.240234375 271.040039062 -8.7998046875 163.6796875 -8.7998046875 c 0
 88 -8.7998046875 38.7197265625 15.83984375 38.7197265625 52.7998046875 c 0
 38.7197265625 77.4404296875 52.7998046875 89.759765625 82.7197265625 89.759765625 c 0
 140.799804688 89.759765625 174.240234375 28.16015625 228.799804688 28.16015625 c 0
 308 28.16015625 371.360351562 102.080078125 371.360351562 197.120117188 c 0
EndSplineSet
Validated: 1
EndChar

StartChar: six
Encoding: 54 54 55
Width: 499
GlyphClass: 2
Flags: MW
LayerCount: 2
Fore
SplineSet
256.959960938 -10.5595703125 m 0
 124.959960938 -10.5595703125 35.201171875 105.598632812 35.201171875 279.838867188 c 0
 35.201171875 394.239257812 91.5205078125 647.6796875 441.760742188 679.359375 c 1
 445.280273438 663.51953125 l 1
 290.400390625 637.119140625 179.520507812 531.51953125 153.120117188 381.919921875 c 1
 214.719726562 418.879882812 235.83984375 425.919921875 278.080078125 425.919921875 c 0
 392.48046875 425.919921875 464.640625 346.719726562 464.640625 220 c 0
 464.640625 82.7197265625 380.16015625 -10.5595703125 256.959960938 -10.5595703125 c 0
241.12109375 380.159179688 m 0
 144.321289062 380.159179688 128.482421875 332.638671875 128.482421875 263.999023438 c 0
 128.482421875 110.87890625 181.282226562 17.5986328125 267.522460938 17.5986328125 c 0
 336.162109375 17.5986328125 374.881835938 77.439453125 374.881835938 186.55859375 c 0
 374.881835938 309.758789062 325.6015625 380.159179688 241.12109375 380.159179688 c 0
EndSplineSet
Validated: 1
EndChar

StartChar: seven
Encoding: 55 55 56
Width: 505
GlyphClass: 2
Flags: MW
LayerCount: 2
Fore
SplineSet
469.919921875 668.799804688 m 1
 469.919921875 652.959960938 l 1
 256.959960938 -8.7998046875 l 1
 190.080078125 -8.7998046875 l 1
 390.719726562 594.879882812 l 1
 170.719726562 594.879882812 l 2
 116.16015625 594.879882812 96.7998046875 580.799804688 52.7998046875 512.16015625 c 1
 36.9599609375 520.959960938 l 1
 96.7998046875 668.799804688 l 1
 469.919921875 668.799804688 l 1
EndSplineSet
Validated: 1
EndChar

StartChar: eight
Encoding: 56 56 57
Width: 459
GlyphClass: 2
Flags: MW
LayerCount: 2
Fore
SplineSet
265.759765625 362.559570312 m 1
 388.959960938 271.040039062 424.16015625 239.360351562 424.16015625 160.16015625 c 0
 424.16015625 54.5595703125 350.240234375 -12.3203125 228.799804688 -12.3203125 c 0
 112.639648438 -12.3203125 35.2001953125 56.3203125 35.2001953125 156.639648438 c 0
 35.2001953125 225.279296875 58.080078125 239.359375 168.959960938 323.83984375 c 1
 61.599609375 417.120117188 42.240234375 447.040039062 42.240234375 513.919921875 c 0
 42.240234375 605.439453125 121.440429688 674.079101562 232.3203125 674.079101562 c 0
 334.400390625 674.079101562 403.040039062 612.479492188 403.040039062 529.759765625 c 0
 403.040039062 459.359375 366.080078125 417.119140625 265.759765625 362.559570312 c 1
195.359375 302.719726562 m 1
 135.51953125 255.200195312 112.637695312 228.798828125 112.637695312 163.678710938 c 0
 112.637695312 75.6787109375 161.91796875 15.8388671875 239.358398438 15.8388671875 c 0
 306.23828125 15.8388671875 346.71875 61.5986328125 346.71875 128.479492188 c 0
 346.71875 214.719726562 293.918945312 230.559570312 195.359375 302.719726562 c 1
241.1171875 381.918945312 m 1
 269.27734375 403.0390625 332.638671875 439.999023438 332.638671875 529.758789062 c 0
 332.638671875 600.159179688 293.918945312 645.918945312 223.518554688 645.918945312 c 0
 160.158203125 645.918945312 117.91796875 603.678710938 117.91796875 545.598632812 c 0
 117.91796875 487.518554688 149.59765625 439.999023438 241.1171875 381.918945312 c 1
EndSplineSet
Validated: 1
EndChar

StartChar: nine
Encoding: 57 57 58
Width: 487
GlyphClass: 2
Flags: MW
LayerCount: 2
Fore
SplineSet
63.3603515625 -3.51953125 m 1
 61.59765625 15.8408203125 l 1
 207.677734375 40.4814453125 315.038085938 144.321289062 355.518554688 302.721679688 c 1
 304.478515625 262.241210938 263.998046875 246.401367188 211.198242188 246.401367188 c 0
 105.598632812 246.401367188 35.19921875 325.6015625 35.19921875 443.521484375 c 0
 35.19921875 573.76171875 121.439453125 672.321289062 237.599609375 672.321289062 c 0
 362.559570312 672.321289062 450.559570312 557.920898438 450.559570312 399.520507812 c 0
 450.559570312 292.16015625 406.559570312 35.2001953125 63.3603515625 -3.51953125 c 1
244.637695312 288.640625 m 0
 272.797851562 288.640625 357.278320312 302.721679688 357.278320312 360.801757812 c 2
 357.278320312 399.521484375 l 2
 357.278320312 561.44140625 313.278320312 644.161132812 228.797851562 644.161132812 c 0
 146.078125 644.161132812 124.958007812 547.361328125 124.958007812 476.9609375 c 0
 124.958007812 360.80078125 172.477539062 288.640625 244.637695312 288.640625 c 0
EndSplineSet
Validated: 1
EndChar

StartChar: colon
Encoding: 58 58 59
Width: 250
GlyphClass: 2
Flags: MW
LayerCount: 2
Fore
SplineSet
56.759765625 420.599609375 m 0
 56.759765625 454.040039062 84.919921875 480.440429688 118.360351562 480.440429688 c 0
 151.799804688 480.440429688 179.959960938 454.040039062 179.959960938 420.599609375 c 0
 179.959960938 387.16015625 151.799804688 359 118.360351562 359 c 0
 84.919921875 359 56.759765625 387.16015625 56.759765625 420.599609375 c 0
56.759765625 61.599609375 m 0
 56.759765625 95.0400390625 84.919921875 121.440429688 118.360351562 121.440429688 c 0
 151.799804688 121.440429688 179.959960938 95.0400390625 179.959960938 61.599609375 c 0
 179.959960938 28.16015625 151.799804688 0 118.360351562 0 c 0
 84.919921875 0 56.759765625 28.16015625 56.759765625 61.599609375 c 0
EndSplineSet
Validated: 1
EndChar

StartChar: semicolon
Encoding: 59 59 60
Width: 195
GlyphClass: 2
Flags: HMW
LayerCount: 2
Fore
SplineSet
96 327 m 0
 48 327 24 351.333333333 24 400 c 0
 24 448.666666667 48 473 96 473 c 0
 144.666666667 473 169 448.666666667 169 400 c 0
 169 351.333333333 144.666666667 327 96 327 c 0
165 56 m 0
 165 27.1613984929 147.593844902 -3.64677060915 130 -23 c 1
 115 -41 l 1
 88.3333333333 -71 57.6666666667 -95.3333333333 23 -114 c 0
 17 -116.666666667 11.6666666667 -118 7 -118 c 0
 2.33333333333 -118 0 -117 0 -115 c 2
 -1 -110 l 1
 -0.333333333333 -108 1.33333333333 -106 4 -104 c 0
 20.1673595127 -87.8326404873 56.8827604324 -42.7684847297 56.8827604324 -8.84753284049 c 0
 56.8827604324 -0.313945745174 54.5590850138 7.51440081718 49 14 c 1
 40 26 l 2
 31.3333333333 36.6666666667 27 48 27 60 c 0
 27 107.333333333 49.3333333333 131 94 131 c 0
 141.333333333 131 165 106 165 56 c 0
EndSplineSet
Validated: 1
EndChar

StartChar: less
Encoding: 60 60 61
Width: 739
GlyphClass: 2
Flags: MW
LayerCount: 2
Fore
SplineSet
712.799804688 0 m 1
 25.4990234375 311.181640625 l 1
 25.4990234375 400.475585938 l 1
 712.799804688 711.655273438 l 1
 712.799804688 647.681640625 l 1
 88.2373046875 355.828125 l 1
 712.799804688 63.9716796875 l 1
 712.799804688 0 l 1
EndSplineSet
Validated: 1
EndChar

StartChar: equal
Encoding: 61 61 62
Width: 850
GlyphClass: 2
Flags: MW
LayerCount: 2
Fore
SplineSet
797.280273438 522.719726562 m 1
 797.280273438 447.040039062 l 1
 52.7998046875 447.040039062 l 1
 52.7998046875 522.719726562 l 1
 797.280273438 522.719726562 l 1
797.280273438 267.520507812 m 1
 797.280273438 193.600585938 l 1
 52.7998046875 193.600585938 l 1
 52.7998046875 267.520507812 l 1
 797.280273438 267.520507812 l 1
EndSplineSet
Validated: 1
EndChar

StartChar: greater
Encoding: 62 62 63
Width: 739
GlyphClass: 2
Flags: MW
LayerCount: 2
Fore
SplineSet
28.16015625 0 m 1
 28.16015625 63.359375 l 1
 652.959960938 355.518554688 l 1
 28.16015625 647.678710938 l 1
 28.16015625 711.0390625 l 1
 716.3203125 401.279296875 l 1
 716.3203125 311.51953125 l 1
 28.16015625 0 l 1
EndSplineSet
Validated: 1
EndChar

StartChar: question
Encoding: 63 63 64
Width: 436
GlyphClass: 2
Flags: MW
LayerCount: 2
Fore
SplineSet
206.91796875 718.880859375 m 0
 304.571289062 718.880859375 392.159179688 657.86328125 392.159179688 555.81640625 c 0
 392.159179688 475.86328125 342.830078125 413.791992188 286.453125 342.254882812 c 0
 249.205078125 292.809570312 232.088867188 250.728515625 221.016601562 180.244140625 c 1
 203.901367188 180.244140625 l 1
 205.943359375 274.088867188 229.315429688 318.196289062 262.2890625 396.959960938 c 0
 286.452148438 454.8203125 299.538085938 512.682617188 299.538085938 561.076171875 c 0
 299.538085938 631.5625 251.217773438 687.317382812 190.813476562 687.317382812 c 0
 141.483398438 687.317382812 95.1748046875 655.759765625 95.1748046875 622.092773438 c 0
 95.1748046875 600.001953125 133.4296875 576.857421875 133.4296875 544.243164062 c 0
 133.4296875 518.99609375 116.314453125 501.112304688 92.154296875 501.112304688 c 0
 60.9453125 501.112304688 43.83203125 524.256835938 43.83203125 566.337890625 c 0
 43.83203125 653.655273438 114.30078125 718.880859375 206.91796875 718.880859375 c 0
213.967773438 111.861328125 m 0
 243.1640625 111.861328125 268.333007812 85.5615234375 268.333007812 54.0009765625 c 0
 268.333007812 22.4404296875 245.177734375 -0.705078125 212.962890625 -0.705078125 c 0
 182.76171875 -0.705078125 160.612304688 22.4404296875 160.612304688 52.9482421875 c 0
 160.612304688 86.61328125 183.766601562 111.861328125 213.967773438 111.861328125 c 0
EndSplineSet
Validated: 1
EndChar

StartChar: at
Encoding: 64 64 65
Width: 804
GlyphClass: 2
Flags: MW
LayerCount: 2
Fore
SplineSet
422.400390625 665.280273438 m 0
 241.120117188 665.280273438 124.961914062 510.399414062 124.961914062 325.599609375 c 0
 124.961914062 142.559570312 253.442382812 10.5595703125 432.961914062 10.5595703125 c 0
 503.362304688 10.5595703125 557.921875 24.6396484375 640.641601562 61.599609375 c 1
 652.961914062 29.919921875 l 1
 549.122070312 -15.83984375 496.322265625 -29.919921875 422.40234375 -29.919921875 c 0
 204.162109375 -29.919921875 35.2021484375 126.719726562 35.2021484375 329.120117188 c 0
 35.2021484375 535.040039062 207.681640625 698.719726562 420.641601562 698.719726562 c 0
 616.001953125 698.719726562 767.362304688 563.200195312 767.362304688 388.959960938 c 0
 767.362304688 253.440429688 677.602539062 135.520507812 573.762695312 135.520507812 c 0
 522.72265625 135.520507812 484.002929688 167.200195312 476.962890625 212.959960938 c 1
 441.762695312 165.440429688 390.72265625 137.280273438 344.962890625 137.280273438 c 0
 293.922851562 137.280273438 251.682617188 188.3203125 251.682617188 255.200195312 c 0
 251.682617188 371.360351562 334.40234375 520.959960938 459.362304688 520.959960938 c 0
 496.322265625 520.959960938 512.162109375 510.400390625 535.041992188 466.400390625 c 1
 545.6015625 506.880859375 l 1
 619.521484375 506.880859375 l 1
 549.12109375 237.600585938 l 1
 549.12109375 232.3203125 547.361328125 227.040039062 547.361328125 220 c 0
 547.361328125 186.559570312 561.44140625 170.719726562 589.6015625 170.719726562 c 0
 658.241210938 170.719726562 725.12109375 272.799804688 725.12109375 378.399414062 c 0
 725.12109375 536.799804688 587.840820312 665.280273438 422.400390625 665.280273438 c 0
517.442382812 413.599609375 m 0
 517.442382812 462.879882812 491.043945312 475.200195312 471.68359375 475.200195312 c 0
 422.403320312 475.200195312 327.36328125 397.759765625 327.36328125 272.799804688 c 0
 327.36328125 216.479492188 352.002929688 183.0390625 390.72265625 183.0390625 c 0
 462.8828125 183.0390625 517.442382812 327.359375 517.442382812 413.599609375 c 0
EndSplineSet
Validated: 1
EndChar

StartChar: A
Encoding: 65 65 66
Width: 721
GlyphClass: 2
Flags: MW
LayerCount: 2
Fore
SplineSet
706 19 m 1
 706 0 l 1
 451 0 l 1
 451 19 l 1
 504 20 521 28 521 53 c 0
 521 67 514 93 502 120 c 2
 461 216 l 1
 199 216 l 1
 153 99 l 2
 148 86 145 72 145 60 c 0
 145 32 165 19 213 19 c 1
 213 0 l 1
 15 0 l 1
 15 19 l 1
 63 21 77 36 139 183 c 2
 347 674 l 1
 367 674 l 1
 616 106 l 2
 648.866210938 31.0283203125 661 22 706 19 c 1
216 257 m 1
 447 257 l 1
 331 532 l 1
 216 257 l 1
EndSplineSet
Validated: 1
EndChar

StartChar: B
Encoding: 66 66 67
Width: 631
GlyphClass: 2
Flags: MW
LayerCount: 2
Fore
SplineSet
591 180 m 0
 591 108 543 0 349 0 c 2
 15 0 l 1
 15 19 l 1
 98 22 111 35 111 109 c 2
 111 553 l 2
 111 627 99 638 15 643 c 1
 15 662 l 1
 295 662 l 2
 468 662 557 604 557 492 c 0
 557 377 455 357 420 348 c 1
 460 338 591 310 591 180 c 0
276 37 m 0
 385 37 476 61 476 179 c 0
 476 320.844726562 346.797851562 326 213 326 c 1
 213 78 l 2
 213 46 227 37 276 37 c 0
213 366 m 1
 308 366 l 2
 402 366 455 410 455 488 c 0
 455 577 394 625 279 625 c 2
 235 625 l 2
 220 625 213 616 213 595 c 2
 213 366 l 1
EndSplineSet
Validated: 1
EndChar

StartChar: C
Encoding: 67 67 68
Width: 670
GlyphClass: 2
Flags: MW
LayerCount: 2
Fore
SplineSet
35 325 m 0
 35 536 183 676 370 676 c 0
 479 676 519 643 555 643 c 0
 575 643 591 655 597 676 c 1
 618 676 l 1
 627 450 l 1
 604 450 l 1
 576 545 518 636 389 636 c 0
 244 636 151 519 151 338 c 0
 151 94 287 30 399 30 c 0
 482 30 548 60 622 131 c 1
 640 113 l 1
 579 32 480 -14 367 -14 c 0
 171 -14 35 120 35 325 c 0
EndSplineSet
Validated: 1
EndChar

StartChar: D
Encoding: 68 68 69
Width: 719
GlyphClass: 2
Flags: MW
LayerCount: 2
Fore
SplineSet
684 334 m 0
 684 196 607 0 299 0 c 2
 15 0 l 1
 15 19 l 1
 91 24 103 37 103 109 c 2
 103 553 l 2
 103 627 94 636 15 643 c 1
 15 662 l 1
 285 662 l 2
 602 662 684 479 684 334 c 0
575 327 m 0
 575 461 511 625 257 625 c 0
 216 625 205 617 205 586 c 2
 205 78 l 2
 205 46 217 37 257 37 c 0
 445 37 575 110 575 327 c 0
EndSplineSet
Validated: 1
EndChar

StartChar: E
Encoding: 69 69 70
Width: 610
GlyphClass: 2
Flags: MW
LayerCount: 2
Fore
SplineSet
204 80 m 2
 204 42 211 37 309 37 c 2
 336 37 l 2
 479 37 522 61 572 169 c 1
 600 169 l 1
 555 0 l 1
 15 0 l 1
 15 19 l 1
 88 24 102 39 102 109 c 2
 102 553 l 2
 102 623 89 637 15 643 c 1
 15 662 l 1
 546 662 l 1
 549 519 l 1
 524 519 l 1
 507 609 485 624 372 624 c 2
 237 624 l 2
 210 624 204 618 204 590 c 2
 204 368 l 1
 358 368 l 2
 451 368 457 397 468 463 c 1
 491 463 l 1
 491 231 l 1
 468 231 l 1
 455 314 440 327 358 327 c 2
 204 327 l 1
 204 80 l 2
EndSplineSet
Validated: 1
EndChar

StartChar: F
Encoding: 70 70 71
Width: 564
GlyphClass: 2
Flags: MW
LayerCount: 2
Fore
SplineSet
482 231 m 1
 459 231 l 1
 447 312 430 327 349 327 c 2
 204 327 l 1
 204 119 l 2
 204 37.5 218 23 295 19 c 1
 295 0 l 1
 15 0 l 1
 15 19 l 1
 91 24 102 37 102 120 c 2
 102 553 l 2
 102 623 89 637 15 643 c 1
 15 662 l 1
 546 662 l 1
 549 519 l 1
 524 519 l 1
 507 609 485 624 372 624 c 2
 236 624 l 2
 209 624 204 618 204 590 c 2
 204 368 l 1
 349 368 l 2
 429 368 447 383 459 463 c 1
 482 463 l 1
 482 231 l 1
EndSplineSet
Validated: 1
EndChar

StartChar: G
Encoding: 71 71 72
Width: 722
GlyphClass: 2
Flags: MW
LayerCount: 2
Fore
SplineSet
395 636 m 0
 198 636 149 449 149 326 c 0
 149 140 249 26 412 26 c 0
 484 26 545 53 545 85 c 2
 545 247 l 2
 545 324 530 331 457 336 c 1
 457 354 l 1
 712 354 l 1
 712 336 l 1
 654 331 642 318 642 259 c 2
 642 56 l 1
 602 21 477 -14 391 -14 c 0
 255 -14 35 54 35 325 c 0
 35 529 178 676 378 676 c 0
 478 676 523 643 558 643 c 0
 579 643 597 657 603 676 c 1
 625 676 l 1
 633 465 l 1
 610 465 l 1
 576 547 525 636 395 636 c 0
EndSplineSet
Validated: 1
EndChar

StartChar: H
Encoding: 72 72 73
Width: 714
GlyphClass: 2
Flags: MW
LayerCount: 2
Fore
SplineSet
205 359 m 1
 508 359 l 1
 508 553 l 2
 508 625 497 636 420 643 c 1
 420 662 l 1
 698 662 l 1
 698 643 l 1
 621 636 610 625 610 553 c 2
 610 109 l 2
 610 38 623 25 698 19 c 1
 698 0 l 1
 420 0 l 1
 420 19 l 1
 498 24 508 36 508 120 c 2
 508 315 l 1
 205 315 l 1
 205 109 l 2
 205 38 218 25 293 19 c 1
 293 0 l 1
 15 0 l 1
 15 19 l 1
 93 24 103 36 103 120 c 2
 103 553 l 2
 103 625 92 636 15 643 c 1
 15 662 l 1
 293 662 l 1
 293 643 l 1
 216 636 205 625 205 553 c 2
 205 359 l 1
EndSplineSet
Validated: 1
EndChar

StartChar: I
Encoding: 73 73 74
Width: 327
GlyphClass: 2
Flags: MW
LayerCount: 2
Fore
SplineSet
112 109 m 2
 112 553 l 2
 112 627 100 638 15 643 c 1
 15 662 l 1
 312 662 l 1
 312 643 l 1
 228 639 214 626 214 553 c 2
 214 109 l 2
 214 36 230 22 312 19 c 1
 312 0 l 1
 15 0 l 1
 15 19 l 1
 99 22 112 34 112 109 c 2
EndSplineSet
Validated: 1
EndChar

StartChar: J
Encoding: 74 74 75
Width: 385
GlyphClass: 2
Flags: MW
LayerCount: 2
Fore
SplineSet
59 108 m 0
 120 108 102 24 138 24 c 0
 164 24 176 45 176 90 c 2
 176 553 l 2
 176 626 165 637 83 643 c 1
 83 662 l 1
 370 662 l 1
 370 643 l 1
 289 637 278 626 278 553 c 2
 278 183 l 2
 278 58 217 -14 109 -14 c 0
 51 -14 10 16 10 58 c 0
 10 85 32 108 59 108 c 0
EndSplineSet
Validated: 1
EndChar

StartChar: K
Encoding: 75 75 76
Width: 709
GlyphClass: 2
Flags: MW
LayerCount: 2
Fore
SplineSet
394 643 m 1
 394 662 l 1
 656 662 l 1
 656 643 l 1
 588 638 571 631 504 565 c 2
 314 377 l 1
 547 127 l 2
 638 30 652 20 704 19 c 1
 704 0 l 1
 399 0 l 1
 399 19 l 1
 425.807617188 21.234375 469 21 469 42 c 0
 469 66 415 137 339 212 c 2
 233 317 l 1
 207 296 l 1
 207 109 l 2
 207 36 219 24 297 19 c 1
 297 0 l 1
 15 0 l 1
 15 19 l 1
 94 24 105 37 105 120 c 2
 105 553 l 2
 105 624 93 637 15 643 c 1
 15 662 l 1
 299 662 l 1
 299 643 l 1
 218 637 207 626 207 553 c 2
 207 348 l 1
 384 509 l 2
 439 560 462 590 462 612 c 0
 462 632 450 640 420 642 c 0
 416 642 406 642 394 643 c 1
EndSplineSet
Validated: 1
EndChar

StartChar: L
Encoding: 76 76 77
Width: 611
GlyphClass: 2
Flags: MW
LayerCount: 2
Fore
SplineSet
357 39 m 2
 532 39 556 128 576 174 c 1
 601 174 l 1
 553 0 l 1
 15 0 l 1
 15 19 l 1
 88 24 102 39 102 109 c 2
 102 553 l 2
 102 623 89 637 15 643 c 1
 15 662 l 1
 297 662 l 1
 297 643 l 1
 218 638 204 624 204 553 c 2
 204 80 l 2
 204 45 217 39 290 39 c 2
 357 39 l 2
EndSplineSet
Validated: 1
EndChar

StartChar: M
Encoding: 77 77 78
Width: 881
GlyphClass: 2
Flags: MW
LayerCount: 2
Fore
SplineSet
677 573 m 1
 421 0 l 1
 407 0 l 1
 156 550 l 1
 156 147 l 2
 156 46 173 23 250 19 c 1
 250 0 l 1
 15 0 l 1
 15 19 l 1
 98 25 112 44 112 147 c 2
 112 553 l 2
 112 626 99 638 17 643 c 1
 17 662 l 1
 215 662 l 1
 446 157 l 1
 667 662 l 1
 866 662 l 1
 866 643 l 1
 792 637 779 624 779 553 c 2
 779 109 l 2
 779 38 793 24 866 19 c 1
 866 0 l 1
 586 0 l 1
 586 19 l 1
 665 24 677 37 677 120 c 2
 677 573 l 1
EndSplineSet
Validated: 1
EndChar

StartChar: N
Encoding: 78 78 79
Width: 725
GlyphClass: 2
Flags: MW
LayerCount: 2
Fore
SplineSet
710 643 m 1
 649 637 615 632 615 515 c 2
 615 -11 l 1
 598 -11 l 1
 156 539 l 1
 156 147 l 2
 156 46 173 23 250 19 c 1
 250 0 l 1
 15 0 l 1
 15 19 l 1
 98 25 112 44 112 147 c 2
 112 588 l 1
 72 635 58 643 15 643 c 1
 15 662 l 1
 186 662 l 1
 571 178 l 1
 571 515 l 2
 571 619 552 637 475 643 c 1
 475 662 l 1
 710 662 l 1
 710 643 l 1
EndSplineSet
Validated: 1
EndChar

StartChar: O
Encoding: 79 79 80
Width: 724
GlyphClass: 2
Flags: MW
LayerCount: 2
Fore
SplineSet
356 -14 m 0
 181 -14 35 121 35 331 c 0
 35 532 171 676 362 676 c 0
 552 676 689 536 689 327 c 0
 689 126 553 -14 356 -14 c 0
575 328 m 0
 575 577 450 640 362 640 c 0
 190 640 149 453 149 329 c 0
 149 208 191 22 360 22 c 0
 532 22 575 208 575 328 c 0
EndSplineSet
Validated: 1
EndChar

StartChar: P
Encoding: 80 80 81
Width: 576
GlyphClass: 2
Flags: MW
LayerCount: 2
Fore
SplineSet
541 481 m 0
 541 404 500 288 270 288 c 0
 244 288 227 289 201 291 c 1
 201 109 l 2
 201 36 216 22 295 19 c 1
 295 0 l 1
 15 0 l 1
 15 19 l 1
 91 26 99 36 99 120 c 2
 99 553 l 2
 99 625 89 635 15 643 c 1
 15 662 l 1
 279 662 l 2
 387 662 541 626 541 481 c 0
201 591 m 2
 201 331 l 1
 224 329 238 328 258 328 c 0
 373 328 432 378 432 475 c 0
 432 578 370 625 235 625 c 0
 208 625 201 618 201 591 c 2
EndSplineSet
Validated: 1
EndChar

StartChar: Q
Encoding: 81 81 82
Width: 723
GlyphClass: 2
Flags: MW
LayerCount: 2
Fore
SplineSet
689 331 m 0
 689 61 481 3 427 -7 c 1
 508 -112 588 -156 702 -159 c 1
 702 -177 l 1
 686.25 -178 678 -178 661 -178 c 0
 398 -178 322 -65 266 -1 c 1
 151 38 35 131 35 329 c 0
 35 532 171 676 362 676 c 0
 553 676 689 532 689 331 c 0
575 333 m 0
 575 520 491 640 365 640 c 0
 192 640 149 456 149 335 c 0
 149 87 271 22 362 22 c 0
 532 22 575 207 575 333 c 0
EndSplineSet
Validated: 1
EndChar

StartChar: R
Encoding: 82 82 83
Width: 667
GlyphClass: 2
Flags: MW
LayerCount: 2
Fore
SplineSet
291 662 m 2
 389 662 545 636 545 486 c 0
 545 348 405 327 364 319 c 1
 570 66 l 1
 599 32 619 22 657 19 c 1
 657 0 l 1
 496 0 l 1
 258 308 l 1
 202 306 l 1
 202 109 l 2
 202 37 215 24 292 19 c 1
 292 0 l 1
 15 0 l 1
 15 19 l 1
 90 25 100 37 100 120 c 2
 100 553 l 2
 100 624 90 635 15 643 c 1
 15 662 l 1
 291 662 l 2
202 343 m 1
 350 346 436 371 436 488 c 0
 436 582 378 625 253 625 c 0
 213 625 202 617 202 589 c 2
 202 343 l 1
EndSplineSet
Validated: 1
EndChar

StartChar: S
Encoding: 83 83 84
Width: 529
GlyphClass: 2
Flags: MW
LayerCount: 2
Fore
SplineSet
378 135 m 0
 378 306 59 300 59 505 c 0
 59 611 143 676 232 676 c 0
 306 676 351 642 382 642 c 0
 399 642 410 653 414 676 c 1
 435 676 l 1
 457 463 l 1
 432 463 l 1
 398 587 322 635 249 635 c 0
 187 635 145 597 145 542 c 0
 145 488 187 444 292 386 c 0
 424 315 479 250 479 168 c 0
 479 65 390 -14 275 -14 c 0
 188 -14 147 20 110 20 c 0
 95 20 83 6 82 -13 c 1
 60 -13 l 1
 30 199 l 1
 53 199 l 1
 103 77 166 22 255 22 c 0
 328 22 378 68 378 135 c 0
EndSplineSet
Validated: 1
EndChar

StartChar: T
Encoding: 84 84 85
Width: 606
GlyphClass: 2
Flags: MW
LayerCount: 2
Fore
SplineSet
252 620 m 1
 198 620 l 2
 86 620 63 601 39 492 c 1
 15 492 l 1
 21 662 l 1
 585 662 l 1
 591 492 l 1
 567 492 l 1
 544 602 522 620 408 620 c 2
 354 620 l 1
 354 109 l 2
 354 36 368 23 450 19 c 1
 450 0 l 1
 158 0 l 1
 158 19 l 1
 241 24 252 35 252 120 c 2
 252 620 l 1
EndSplineSet
Validated: 1
EndChar

StartChar: U
Encoding: 85 85 86
Width: 721
GlyphClass: 2
Flags: MW
LayerCount: 2
Fore
SplineSet
207 233 m 2
 207 111 241 30 379 30 c 0
 454 30 518 61 545 109 c 0
 561 139 568 177 568 245 c 2
 568 515 l 2
 568 615 552 637 474 643 c 1
 474 662 l 1
 706 662 l 1
 706 643 l 1
 624 633 612 617 612 515 c 2
 612 254 l 2
 612 111 570 -14 356 -14 c 0
 186 -14 105 68 105 241 c 2
 105 553 l 2
 105 626 94 637 15 643 c 1
 15 662 l 1
 298 662 l 1
 298 643 l 1
 218 636 207 625 207 553 c 2
 207 233 l 2
EndSplineSet
Validated: 1
EndChar

StartChar: V
Encoding: 86 86 87
Width: 701
GlyphClass: 2
Flags: MW
LayerCount: 2
Fore
SplineSet
691 662 m 1
 691 643 l 1
 643 640 631 630 599 550 c 2
 377 -11 l 1
 362 -11 l 1
 116 538 l 2
 76 628 59 641 10 643 c 1
 10 662 l 1
 276 662 l 1
 276 643 l 1
 262 642 251 641 247 641 c 0
 215 639 201 629 201 610 c 0
 201 595 209 572 242 499 c 2
 393 161 l 1
 540 528 l 2
 552 558 559 585 559 601 c 0
 559 629 541 640 486 643 c 1
 486 662 l 1
 691 662 l 1
EndSplineSet
Validated: 1
EndChar

StartChar: W
Encoding: 87 87 88
Width: 947
GlyphClass: 2
Flags: MW
LayerCount: 2
Fore
SplineSet
937 662 m 1
 937 643 l 1
 884 633 873 624 854 572 c 0
 745 278 735 250 650 -11 c 1
 635 -11 l 1
 475 412 l 1
 321 -11 l 1
 306 -11 l 1
 113 526 l 2
 79 621 61 638 10 643 c 1
 10 662 l 1
 255 662 l 1
 255 643 l 1
 204 640 190 633 190 611 c 0
 190 600 194 583 201 565 c 2
 345 189 l 1
 452 471 l 1
 419 553 l 2
 387 634 375 642 318 643 c 1
 318 662 l 1
 585 662 l 1
 585 643 l 1
 531 642 508 632 508 608 c 0
 508 591 520 566 535 527 c 2
 667 186 l 1
 792 525 l 2
 802 553 808 579 808 600 c 0
 808 627 790 638 739 643 c 1
 739 662 l 1
 937 662 l 1
EndSplineSet
Validated: 1
EndChar

StartChar: X
Encoding: 88 88 89
Width: 714
GlyphClass: 2
Flags: MW
LayerCount: 2
Fore
SplineSet
696 662 m 1
 696 643 l 1
 632 639 611 628 547 549 c 2
 401 367 l 1
 593 93 l 2
 634 34 651 25 704 19 c 1
 704 0 l 1
 407 0 l 1
 407 19 l 1
 457 24 484 30 484 50 c 0
 484 65 466 99 433 148 c 2
 338 288 l 1
 219 140 l 2
 182 94 167 69 167 54 c 0
 167 31 185 23 243 19 c 1
 243 0 l 1
 10 0 l 1
 10 19 l 1
 61 23 68 26 155 133 c 2
 312 326 l 1
 203 486 l 2
 107 627 87 640 22 643 c 1
 22 662 l 1
 324 662 l 1
 324 643 l 1
 296 642 l 2
 263 641 248 633 248 613 c 0
 248 591 272 548 333 463 c 2
 375 404 l 1
 488 542 l 2
 517 578 528 596 528 611 c 0
 528 634 512 641 458 643 c 1
 458 662 l 1
 696 662 l 1
EndSplineSet
Validated: 1
EndChar

StartChar: Y
Encoding: 89 89 90
Width: 701
GlyphClass: 2
Flags: MW
LayerCount: 2
Fore
SplineSet
691 662 m 1
 691 643 l 1
 640 639 612 619 553 529 c 2
 405 303 l 1
 405 109 l 2
 405 33 419 21 508 19 c 1
 508 0 l 1
 202 0 l 1
 202 19 l 1
 293 23 303 33 303 120 c 2
 303 294 l 1
 172 486 l 2
 75 629 58 641 10 643 c 1
 10 662 l 1
 290 662 l 1
 290 643 l 1
 249 640 219 634.666992188 219 613 c 0
 219 602 225 585 236 569 c 2
 384 347 l 1
 527 573 l 2
 536 588 541 600 541 610 c 0
 541 634 524 642 472 643 c 1
 472 662 l 1
 691 662 l 1
EndSplineSet
Validated: 1
EndChar

StartChar: Z
Encoding: 90 90 91
Width: 613
GlyphClass: 2
Flags: MW
LayerCount: 2
Fore
SplineSet
403 38 m 2
 538 38 555 110 575 176 c 1
 598 176 l 1
 574 0 l 1
 10 0 l 1
 10 15 l 1
 447 624 l 1
 226 624 l 2
 84 624 70 559 58 491 c 1
 32 491 l 1
 52 662 l 1
 578 662 l 1
 578 647 l 1
 146 38 l 1
 403 38 l 2
EndSplineSet
Validated: 1
EndChar

StartChar: bracketleft
Encoding: 91 91 92
Width: 265
GlyphClass: 2
Flags: MW
LayerCount: 2
Fore
SplineSet
212 22 m 0
 212 12 206 10 194 8 c 1
 97 8 l 2
 86 8 77 12 69 12 c 0
 59 12 49 19 49 27 c 0
 48 29 48 32 48 34 c 0
 48 39 49 47 49 57 c 2
 49 125 l 2
 49 156 54 197 54 252 c 0
 54 335 58 404 58 460 c 0
 58 534.333333333 58 608.666666667 58 683 c 0
 58 695 60 699 73 702 c 0
 80 704 90 706 100 706 c 0
 110 708 122 708 134 708 c 0
 155 708 176 708 197 708 c 1
 212 705 219 705 219 691 c 0
 219 677 215 676 200 676 c 2
 154 676 l 2
 139 676 137 672 137 657 c 2
 137 642 l 2
 137 626 136 604 136 577 c 0
 136 521 136 465 136 409 c 0
 136 364 130 319 130 277 c 0
 130 234 127 196 127 163 c 2
 127 80 l 2
 127 49 128 39 148 39 c 0
 155 38 163 39 171 39 c 2
 193 39 l 2
 208 39 212 35 212 22 c 0
EndSplineSet
Validated: 1
EndChar

StartChar: backslash
Encoding: 92 92 93
Width: 380
GlyphClass: 2
Flags: HMW
LayerCount: 2
Fore
SplineSet
52.7998046875 679.360351562 m 1
 124.959960938 679.360351562 l 1
 355.51953125 -7.0400390625 l 1
 281.599609375 -7.0400390625 l 1
 52.7998046875 679.360351562 l 1
EndSplineSet
Validated: 1
EndChar

StartChar: bracketright
Encoding: 93 93 94
Width: 265
GlyphClass: 2
Flags: MW
LayerCount: 2
Fore
SplineSet
48 23 m 0
 48 35 51 39 67 39 c 2
 111 39 l 2
 132 39 132 49 132 79 c 2
 132 162 l 2
 132 197 128 234 128 276 c 0
 128 319 123 364 123 410 c 0
 123 491 123 572 123 653 c 0
 123 671 122 676 106 676 c 2
 60 676 l 2
 44 676 40 678 40 690 c 0
 40 706 48 704 62 708 c 1
 125 708 l 2
 137 708 150 708 158 706 c 0
 169 706 180 704 187 702 c 0
 201 699 202 696 202 679 c 0
 202 605.666666667 202 532.333333333 202 459 c 0
 202 405 206 334 206 252 c 0
 206 197 211 157 211 125 c 2
 211 28 l 2
 211 19 201 12 190 12 c 0
 183 12 172 9 162 9 c 2
 65 9 l 2
 53 9 48 12 48 23 c 0
EndSplineSet
Validated: 1
EndChar

StartChar: asciicircum
Encoding: 94 94 95
Width: 438
GlyphClass: 2
Flags: MW
LayerCount: 2
Fore
SplineSet
102.080078125 429.440429688 m 1
 45.759765625 429.440429688 l 1
 195.360351562 732.16015625 l 1
 244.640625 732.16015625 l 1
 394.240234375 429.440429688 l 1
 337.919921875 429.440429688 l 1
 220 668.80078125 l 1
 102.080078125 429.440429688 l 1
EndSplineSet
Validated: 1
EndChar

StartChar: underscore
Encoding: 95 95 96
Width: 737
GlyphClass: 2
Flags: MW
LayerCount: 2
Fore
SplineSet
21.1201171875 42.240234375 m 1
 723.360351562 42.240234375 l 1
 702.240234375 0 l 1
 0 0 l 1
 21.1201171875 42.240234375 l 1
EndSplineSet
Validated: 1
EndChar

StartChar: grave
Encoding: 96 96 97
Width: 295
GlyphClass: 2
Flags: HMW
LayerCount: 2
Fore
SplineSet
267.51953125 520.959960938 m 1
 225.279296875 520.958984375 l 1
 66.87890625 623.0390625 l 2
 47.5185546875 635.359375 35.19921875 649.439453125 35.19921875 667.0390625 c 0
 35.19921875 686.399414062 49.279296875 698.719726562 70.3994140625 698.719726562 c 0
 86.2392578125 698.719726562 96.798828125 693.439453125 114.399414062 675.83984375 c 2
 267.51953125 520.959960938 l 1
EndSplineSet
Validated: 1
EndChar

StartChar: a
Encoding: 97 97 98
Width: 435
GlyphClass: 2
Flags: MW
LayerCount: 2
Fore
SplineSet
25 97 m 0
 25 205 151 242 275 292 c 1
 275 353 l 2
 275 407 248 436 199 436 c 0
 159 436 127 414 127 387 c 0
 127 373 132 356 132 347 c 0
 132 325 111 305 87 305 c 0
 64 305 44 325 44 348 c 0
 44 411 118 460 212 460 c 0
 328 460 356 400 356 300 c 2
 356 105 l 2
 356 61 363 47 386 47 c 0
 401 47 413 52 430 66 c 1
 430 40 l 1
 395 2 374 -10 340 -10 c 0
 299 -10 281 11 276 63 c 1
 215 11 174 -10 130 -10 c 0
 69 -10 25 34 25 97 c 0
275 123 m 2
 275 268 l 1
 154 224 113 188 113 129 c 0
 113 68.8017578125 150.799804688 48 176 48 c 0
 197 48 225 57 249 71 c 0
 270 83 275 92 275 123 c 2
EndSplineSet
Validated: 1
EndChar

StartChar: b
Encoding: 98 98 99
Width: 500
GlyphClass: 2
Flags: MW
LayerCount: 2
Fore
SplineSet
160 681 m 1
 160 375 l 1
 180 424 238 460 299 460 c 0
 399 460 475 366 475 243 c 0
 475 100 373 -10 241 -10 c 0
 161 -10 76 23 76 54 c 2
 76 573 l 2
 76 615 67 624 27 624 c 0
 20 624 16 624 10 623 c 1
 10 639 l 1
 58.662109375 651.10546875 107.032226562 665.490234375 155 683 c 1
 160 681 l 1
160 322 m 2
 160 70 l 2
 160 45 205 22 257 22 c 0
 339 22 387 86 387 197 c 0
 387 319 337 397 259 397 c 0
 207 397 160 361 160 322 c 2
EndSplineSet
Validated: 1
EndChar

StartChar: c
Encoding: 99 99 100
Width: 444
GlyphClass: 2
Flags: MW
LayerCount: 2
Fore
SplineSet
25 213 m 0
 25 367 133 460 244 460 c 0
 328 460 398 413 398 357 c 0
 398 334 376 315 350 315 c 0
 329 315 311 333 303 361 c 2
 297 383 l 2
 287 420 274 431 238 431 c 0
 157 431 102 360 102 257 c 0
 102 142 166 62 257 62 c 0
 314 62 350 86 398 156 c 1
 412 147 l 1
 391 106 333 -10 215 -10 c 0
 104 -10 25 83 25 213 c 0
EndSplineSet
Validated: 1
EndChar

StartChar: d
Encoding: 100 100 101
Width: 499
GlyphClass: 2
Flags: MW
LayerCount: 2
Fore
SplineSet
342 -10 m 1
 338 -7 l 1
 338 57 l 1
 304 10 266 -10 210 -10 c 0
 100 -10 25 77 25 205 c 0
 25 347 118 460 233 460 c 0
 273 460 300 449 338 417 c 1
 338 573 l 2
 338 614 329 624 292 624 c 0
 284 624 278 624 270 623 c 1
 270 639 l 1
 334 656 369 666 417 683 c 1
 422 681 l 1
 422 114 l 2
 422 68 430 57 466 57 c 0
 469 57 471 57 489 58 c 1
 489 42 l 1
 342 -10 l 1
249 42 m 0
 306 42 338 85 338 102 c 2
 338 332 l 2
 338 385 289 432 236 432 c 0
 160 432 111 358 111 245 c 0
 111 122 166 42 249 42 c 0
EndSplineSet
Validated: 1
EndChar

StartChar: e
Encoding: 101 101 102
Width: 444
GlyphClass: 2
Flags: MW
LayerCount: 2
Fore
SplineSet
97 277 m 1
 103 99 188 59 253 59 c 0
 317 59 360 88 408 164 c 1
 424 157 l 1
 382 49 307 -10 212 -10 c 0
 97 -10 25 76 25 214 c 0
 25 363 113 460 234 460 c 0
 337 460 390 398 405 277 c 1
 97 277 l 1
99 309 m 1
 303 309 l 1
 290 396 266 424 205 424 c 0
 144 424 110 387 99 309 c 1
EndSplineSet
Validated: 1
EndChar

StartChar: f
Encoding: 102 102 103
Width: 373
GlyphClass: 2
Flags: MW
LayerCount: 2
Fore
SplineSet
331 580 m 0
 283 580 290 655 233 655 c 0
 195 655 176 624 176 566 c 2
 176 450 l 1
 299 450 l 1
 299 418 l 1
 177 418 l 1
 177 104 l 2
 177 29 188 18 270 15 c 1
 270 0 l 1
 10 0 l 1
 10 15 l 1
 82 19 93 31 93 104 c 2
 93 418 l 1
 11 418 l 1
 11 450 l 1
 93 450 l 1
 95 589 137 683 269 683 c 0
 329 683 373 657 373 621 c 0
 373 598 354 580 331 580 c 0
EndSplineSet
Validated: 1
EndChar

StartChar: g
Encoding: 103 103 104
Width: 467
GlyphClass: 2
Flags: MW
LayerCount: 2
Fore
SplineSet
60 54 m 0
 60 80 70 89 149 163 c 1
 83 196 56 234 56 297 c 0
 56 388 130 460 223 460 c 0
 297.575195312 460 319.163085938 427 380 427 c 2
 457 427 l 1
 457 388 l 1
 374 388 l 1
 388 356 393 333 393 304 c 0
 393 208 317 149 237 149 c 0
 225.599609375 149 191.37109375 152.737304688 180 154 c 1
 153 146 120 111 120 91 c 0
 120 75 145 66 198 64 c 2
 327 58 l 2
 401 55 448 13 448 -49 c 0
 448 -150.400390625 306.193359375 -218 188 -218 c 0
 93 -218 15 -174 15 -121 c 0
 15 -84 42 -51 113 1 c 1
 72 21 60 33 60 54 c 0
134 -2 m 1
 92 -52 85 -65 85 -88 c 0
 85 -132 143 -161 231 -161 c 0
 344 -161 420 -122 420 -64 c 0
 420 -28 387 -15 296 -15 c 0
 247 -15 167 -9 134 -2 c 1
316 265 m 0
 316 298 301 432 213 432 c 0
 167 432 139 397 139 338 c 0
 139 210.82421875 200.200195312 174 241 174 c 0
 287 174 316 209 316 265 c 0
EndSplineSet
Validated: 1
EndChar

StartChar: h
Encoding: 104 104 105
Width: 498
GlyphClass: 2
Flags: MW
LayerCount: 2
Fore
SplineSet
158 343 m 1
 158 102 l 2
 158 33 168 21 226 15 c 1
 226 0 l 1
 10 0 l 1
 10 15 l 1
 68 23 74 32 74 102 c 2
 74 573 l 2
 74 616 66.6669921875 625 28 625 c 0
 24.0625 625 14.9091796875 623.818359375 11 623 c 1
 11 639 l 1
 68 654 97 663 153 683 c 1
 158 680 l 1
 158 376 l 1
 204 436 246 460 305 460 c 0
 386 460 428 406 428 301 c 2
 428 102 l 2
 428 33 434 25 488 15 c 1
 488 0 l 1
 276 0 l 1
 276 15 l 1
 334 21 344 34 344 102 c 2
 344 300 l 2
 344 370 319 406 269 406 c 0
 230 406 200 389 158 343 c 1
EndSplineSet
Validated: 1
EndChar

StartChar: i
Encoding: 105 105 106
Width: 278
GlyphClass: 2
Flags: MW
LayerCount: 2
Fore
SplineSet
62 393 m 0
 53 393 35.3330078125 392.333007812 20 390 c 1
 20 405 l 1
 71.6669921875 419.596679688 123.333007812 438.594726562 175 460 c 1
 179 457 l 1
 179 102 l 2
 179 30 187 20 253 15 c 1
 253 0 l 1
 16 0 l 1
 16 15 l 1
 85 19 95 30 95 102 c 2
 95 334 l 2
 95 378 86 393 62 393 c 0
128 683 m 0
 157 683 180 660 180 632 c 0
 180 603 157 581 128 581 c 0
 100 581 78 604 78 632 c 0
 78 660 101 683 128 683 c 0
EndSplineSet
Validated: 1
EndChar

StartChar: j
Encoding: 106 106 107
Width: 348
GlyphClass: 2
Flags: MW
LayerCount: 2
Fore
SplineSet
147 393 m 0
 123 393 102 390 102 390 c 1
 102 406 l 1
 161 424 199 437 258 460 c 1
 263 457 l 1
 263 0 l 2
 263 -142 204 -218 94 -218 c 0
 40 -218 0 -195 0 -163 c 0
 0 -141 18 -124 41 -124 c 0
 82 -124 93 -184 131 -184 c 0
 173 -184 179 -139 179 -45 c 2
 179 334 l 2
 179 377 170 393 147 393 c 0
212 683 m 0
 241 683 264 660 264 632 c 0
 264 603 241 581 212 581 c 0
 184 581 162 604 162 632 c 0
 162 660 185 683 212 683 c 0
EndSplineSet
Validated: 1
EndChar

StartChar: k
Encoding: 107 107 108
Width: 513
GlyphClass: 2
Flags: MW
LayerCount: 2
Fore
SplineSet
10 623 m 1
 10.0009765625 639 l 1
 72.0009765625 654 110.333984375 664.666992188 165.000976562 683 c 1
 169.000976562 681 l 1
 169.000976562 261 l 1
 306.000976562 383 l 2
 320.000976562 395 329.000976562 409 329.000976562 417 c 0
 329.000976562 431 318.000976562 435 279.000976562 436 c 1
 279.000976562 450 l 1
 483.000976562 450 l 1
 483.000976562 435 l 1
 434.46484375 435 400.732421875 433.509765625 267 309 c 2
 238 282 l 1
 391 88 l 1
 433 37 464 18 508 15 c 1
 508 0 l 1
 290 0 l 1
 290 15 l 1
 317 15 330 17 330 30 c 0
 330 40 317 52 309 64 c 2
 169 251 l 1
 169 80 l 2
 169 31.5 175 26.5 244 15 c 1
 244 0 l 1
 10 0 l 1
 10 15 l 1
 82 27 85 30 85 82 c 2
 85 564 l 2
 85 612 75 625 42 625 c 0
 32 625 21.63671875 624.2734375 10 623 c 1
EndSplineSet
Validated: 1
EndChar

StartChar: l
Encoding: 108 108 109
Width: 258
GlyphClass: 2
Flags: MW
LayerCount: 2
Fore
SplineSet
10 623 m 1
 10 639 l 1
 79 656 117 666 169 683 c 1
 173 681 l 1
 173 84 l 2
 173 29 185 19 248 15 c 1
 248 0 l 1
 12 0 l 1
 12 15 l 1
 75 20 89 33 89 87 c 2
 89 564 l 2
 89 611 79 625 47 625 c 0
 33.775390625 625 22.6669921875 624.5 10 623 c 1
EndSplineSet
Validated: 1
EndChar

StartChar: m
Encoding: 109 109 110
Width: 779
GlyphClass: 2
Flags: MW
LayerCount: 2
Fore
SplineSet
13 398 m 1
 13 415 l 1
 68 430 102 441 153 460 c 1
 160 458 l 1
 160 383 l 1
 243 446 271 460 315 460 c 0
 369 460 403 433 421 376 c 1
 475 434 526 460 584 460 c 0
 661 460 700 400 700 282 c 2
 700 76 l 2
 700 37 713 19 743 17 c 2
 769 15 l 1
 769 0 l 1
 550 0 l 1
 550 15 l 1
 608 22 616 30 616 87 c 2
 616 298 l 2
 616 381 598 408 541 408 c 0
 495 408 462 390 432 347 c 1
 432 95 l 2
 432 33 447 16 504 15 c 1
 504 0 l 1
 280 0 l 1
 280 15 l 1
 337 19 348 30 348 86 c 2
 348 303 l 2
 348 373 326 408 282 408 c 0
 252.717773438 408 195.383789062 394.650390625 164 349 c 1
 164 67 l 2
 164 28 179 17 232 15 c 1
 232 0 l 1
 10 0 l 1
 10 15 l 1
 66 16 80 31 80 85 c 2
 80 338 l 2
 80 386 71 402 45 402 c 0
 34 402 26 401 13 398 c 1
EndSplineSet
Validated: 1
EndChar

StartChar: n
Encoding: 110 110 111
Width: 489
GlyphClass: 2
Flags: MW
LayerCount: 2
Fore
SplineSet
10 398 m 1
 10 415 l 1
 65 431 99 442 148 460 c 1
 155 458 l 1
 155 379 l 1
 223 443 254 460 300 460 c 0
 374 460 418 404 418 310 c 2
 418 81 l 2
 418 32 430 20 479 15 c 1
 479 0 l 1
 271 0 l 1
 271 15 l 1
 321 19 334 36 334 99 c 2
 334 308 l 2
 334 374 310 405 261 405 c 0
 228 405 206 393 158 348 c 1
 158 67 l 2
 158 31 173 19 224 15 c 1
 224 0 l 1
 12 0 l 1
 12 15 l 1
 63 19 74 33 74 90 c 2
 74 338 l 2
 74 387 65 402 37 402 c 0
 26 402 16 401 10 398 c 1
EndSplineSet
Validated: 1
EndChar

StartChar: o
Encoding: 111 111 112
Width: 491
GlyphClass: 2
Flags: MW
LayerCount: 2
Fore
SplineSet
246 460 m 0
 374 460 466 365 466 234 c 0
 466 96 370 -10 244 -10 c 0
 118 -10 25 91 25 226 c 0
 25 364 116 460 246 460 c 0
115 275 m 0
 115 136 170 18 256 18 c 0
 331 18 376 86 376 199 c 0
 376 336 317 432 233 432 c 0
 162 432 115 370 115 275 c 0
EndSplineSet
Validated: 1
EndChar

StartChar: p
Encoding: 112 112 113
Width: 500
GlyphClass: 2
Flags: MW
LayerCount: 2
Fore
SplineSet
14 393 m 1
 14 409 l 1
 69 426 104 439 158 460 c 1
 164 458 l 1
 164 381 l 1
 208 435 252 460 308 460 c 0
 405 460 475 371 475 247 c 0
 475 102 383 -10 265 -10 c 0
 223 -10 199 0 164 33 c 1
 164 -124 l 2
 164 -187 177 -198 252 -199 c 1
 252 -217 l 1
 10 -217 l 1
 10 -200 l 1
 69 -194 80 -183 80 -131 c 2
 80 337 l 2
 80 384 73 394 39 394 c 0
 30 394 23 394 14 393 c 1
164 334 m 2
 164 88 l 2
 164 58 221 22 268 22 c 0
 340 22 389 97 389 208 c 0
 389 324 340 400 266 400 c 0
 220 400 164 364 164 334 c 2
EndSplineSet
Validated: 1
EndChar

StartChar: q
Encoding: 113 113 114
Width: 499
GlyphClass: 2
Flags: MW
LayerCount: 2
Fore
SplineSet
361 425 m 1
 415 457 l 1
 426 457 l 1
 426 -141 l 2
 426 -183 434 -191 489 -203 c 1
 489 -217 l 1
 253 -217 l 1
 253 -200 l 1
 324 -195 342 -180 342 -124 c 2
 342 64 l 1
 298 16 243 -10 185 -10 c 0
 91 -10 25 79 25 205 c 0
 25 349 121 461 246 461 c 0
 285 461 315 452 361 425 c 1
111 241 m 0
 111 167 137 51 242 51 c 0
 273 51 306 63 328 82 c 0
 338 90 342 103 342 127 c 2
 342 333 l 2
 342 400 311 433 249 433 c 0
 164 433 111 359 111 241 c 0
EndSplineSet
Validated: 1
EndChar

StartChar: r
Encoding: 114 114 115
Width: 345
GlyphClass: 2
Flags: MW
LayerCount: 2
Fore
SplineSet
301 362 m 0
 274 362 251 397 235 397 c 0
 208 397 165 347 165 315 c 2
 165 90 l 2
 165 33 182 18 250 15 c 1
 250 0 l 1
 10 0 l 1
 10 15 l 1
 74 27 81 34 81 84 c 2
 81 334 l 2
 81 378 72 394 47 394 c 0
 35 394 26 393 12 390 c 1
 12 406 l 1
 71 425 107 438 160 460 c 1
 165 458 l 1
 165 366 l 1
 214 437 243 460 285 460 c 0
 319 460 340 440 340 407 c 0
 340 379 325 362 301 362 c 0
EndSplineSet
Validated: 1
EndChar

StartChar: s
Encoding: 115 115 116
Width: 367
GlyphClass: 2
Flags: MW
LayerCount: 2
Fore
SplineSet
268 440 m 0
 274 440 278 446 284 450 c 1
 295 450 l 1
 299 314 l 1
 284 314 l 1
 261 403 231 437 174 437 c 0
 128 437 97 409 97 369 c 0
 97 342 112 317 140 301 c 2
 248 237 l 2
 308 201 332 168 332 118 c 0
 332 48 268 -10 191 -10 c 0
 146 -10 97 8 72 8 c 0
 60 8 56 6 49 -4 c 1
 36 -4 l 1
 36 152 l 1
 52 152 l 1
 61 112 77 12 179 12 c 0
 230 12 262 40 262 84 c 0
 262 115 245 139 210 159 c 2
 152 192 l 2
 67 240 35 280 35 336 c 0
 35 408 92 459 171 459 c 0
 229 459 246 440 268 440 c 0
EndSplineSet
Validated: 1
EndChar

StartChar: t
Encoding: 116 116 117
Width: 283
GlyphClass: 2
Flags: MW
LayerCount: 2
Fore
SplineSet
259 450 m 1
 259 418 l 1
 158 418 l 1
 158 132 l 2
 158 69 173 42 210 42 c 0
 232 42 249 52 270 77 c 1
 283 66 l 1
 250 14 212 -10 163 -10 c 0
 104 -10 74 33 74 117 c 2
 74 418 l 1
 21 418 l 1
 18 420 17 422 17 425 c 0
 17 445 42 423 131 551 c 0
 138 561 144 570 151 579 c 1
 157 579 158 576 158 566 c 2
 158 450 l 1
 259 450 l 1
EndSplineSet
Validated: 1
EndChar

StartChar: u
Encoding: 117 117 118
Width: 490
GlyphClass: 2
Flags: MW
LayerCount: 2
Fore
SplineSet
480 50 m 1
 480 36 l 1
 429 22 393 11 343 -9 c 1
 339 -7 l 1
 339 76 l 1
 304.283203125 41.283203125 265.177734375 -10 193 -10 c 0
 120 -10 72 41 72 120 c 2
 72 372 l 2
 72 418 58 433 10 436 c 1
 10 450 l 1
 156 450 l 1
 156 124 l 2
 156 82 188 48 227 48 c 0
 247.379882812 48 334 58.712890625 334 135 c 2
 334 370 l 2
 334 420 322 430 260 433 c 1
 260 450 l 1
 418 450 l 1
 418 107 l 2
 418 61 429 50 475 50 c 2
 480 50 l 1
EndSplineSet
Validated: 1
EndChar

StartChar: v
Encoding: 118 118 119
Width: 468
GlyphClass: 2
Flags: MW
LayerCount: 2
Fore
SplineSet
463 450 m 1
 463 435 l 1
 433 432 425 426 398 357 c 2
 270 36 l 2
 255 -1 248 -14 242 -14 c 0
 237 -14 230 -10 216 33 c 1
 96 320 l 2
 52.484375 424.07421875 43 433 5 435 c 1
 5 450 l 1
 201 450 l 1
 201 435 l 1
 166 432 155 425 155 407 c 0
 155 398 158 384 164 370 c 2
 266 114 l 1
 365 373 l 2
 369 383 371 393 371 403 c 0
 371 422 356 432 324 435 c 1
 324 450 l 1
 463 450 l 1
EndSplineSet
Validated: 1
EndChar

StartChar: w
Encoding: 119 119 120
Width: 683
GlyphClass: 2
Flags: MW
LayerCount: 2
Fore
SplineSet
335 310 m 1
 299 419 289 430 246 435 c 1
 246 450 l 1
 449 450 l 1
 449 435 l 1
 402 428 391 421 391 399 c 0
 391 386 391 386 408 340 c 2
 492 116 l 1
 582 338 l 2
 593 365 599 389 599 404 c 0
 599 421 589 428 555 435 c 1
 555 450 l 1
 678 450 l 1
 678 435 l 1
 658 428 654 423 637 381 c 2
 499 35 l 2
 483 -5 478 -14 471 -14 c 0
 465 -14 461 -8 447 29 c 2
 356 265 l 1
 244 25 l 2
 232 -1 224 -14 219 -14 c 0
 213 -14 205 0 193 30 c 2
 58 372 l 2
 37.6064453125 423.663085938 28 433 5 435 c 1
 5 450 l 1
 185 450 l 1
 185 435 l 1
 151 431 139 423 139 402 c 0
 139 392 141 382 145 372 c 2
 244 111 l 1
 335 310 l 1
EndSplineSet
Validated: 1
EndChar

StartChar: x
Encoding: 120 120 121
Width: 482
GlyphClass: 2
Flags: MW
LayerCount: 2
Fore
SplineSet
241 304 m 1
 279 362 308 391 308 413 c 0
 308 427 298 433 268 435 c 1
 268 450 l 1
 426 450 l 1
 426 435 l 1
 394 434 364 418 345 391 c 2
 262 271 l 1
 390 75 l 2
 419.430664062 29.9345703125 441 15 472 15 c 1
 472 0 l 1
 271 0 l 1
 271 15 l 1
 304 17 311 21 311 39 c 0
 311 45 309 51 305 57 c 2
 214 197 l 1
 135 74 l 2
 122 54 115 39 115 33 c 0
 115 20 127 15 155 15 c 1
 155 0 l 1
 10 0 l 1
 10 15 l 1
 43 18 54 24 83 66 c 2
 197 231 l 1
 103 375 l 2
 64.9482421875 433.291992188 49.75 434.25 17 435 c 1
 17 450 l 1
 224 450 l 1
 224 435 l 1
 194 434 181 427 181 413 c 0
 181 400 199 366 227 324 c 1
 241 304 l 1
EndSplineSet
Validated: 1
EndChar

StartChar: y
Encoding: 121 121 122
Width: 471
GlyphClass: 2
Flags: MW
LayerCount: 2
Fore
SplineSet
142 -134 m 0
 183 -134 232 -11 232 19 c 0
 232 34 213.627929688 68.744140625 188 120 c 1
 56 404 l 2
 48 421 31 432 5 436 c 1
 5 450 l 1
 211 450 l 1
 211 435 l 1
 168 433 153 426 153 408 c 0
 153 397 157 384 163 370 c 2
 278 117 l 1
 375 393 l 2
 378 400 379 406 379 410 c 0
 379 426 363 435 331 435 c 1
 331 450 l 1
 466 450 l 1
 466 435 l 1
 442 432 430 422 418 390 c 2
 264 -18 l 2
 210 -162 162 -218 95 -218 c 0
 53 -218 21 -193 21 -160 c 0
 21 -136 41 -116 64 -116 c 0
 102 -116 125 -134 142 -134 c 0
EndSplineSet
Validated: 1
EndChar

StartChar: z
Encoding: 122 122 123
Width: 417
GlyphClass: 2
Flags: MW
LayerCount: 2
Fore
SplineSet
255 30 m 2
 361 30 368 63 383 139 c 1
 401 135 l 1
 387 0 l 1
 10 0 l 1
 10 15 l 1
 276 420 l 1
 138 420 l 2
 78 420 63 405 54 332 c 1
 36 332 l 1
 39 450 l 1
 386 450 l 1
 386 435 l 1
 117 30 l 1
 255 30 l 2
EndSplineSet
Validated: 1
EndChar

StartChar: braceleft
Encoding: 123 123 124
Width: 295
GlyphClass: 2
Flags: MW
LayerCount: 2
Fore
SplineSet
260.48046875 -24.6396484375 m 1
 165.440429688 -22.8798828125 112.640625 -5.28125 112.640625 102.079101562 c 2
 112.640625 262.239257812 l 2
 112.640625 323.838867188 96.80078125 344.958984375 35.201171875 364.319335938 c 1
 96.80078125 381.918945312 112.640625 403.0390625 112.640625 466.399414062 c 2
 112.640625 626.559570312 l 2
 112.640625 733.919921875 165.440429688 749.759765625 260.48046875 751.51953125 c 1
 260.48046875 742.719726562 l 1
 198.880859375 725.120117188 179.520507812 698.719726562 179.520507812 631.83984375 c 2
 179.520507812 480.479492188 l 2
 179.520507812 404.799804688 161.920898438 381.919921875 95.041015625 362.559570312 c 1
 161.920898438 346.719726562 179.520507812 322.080078125 179.520507812 248.16015625 c 2
 179.520507812 96.7998046875 l 2
 179.520507812 29.919921875 198.880859375 1.759765625 260.48046875 -14.080078125 c 1
 260.48046875 -24.6396484375 l 1
EndSplineSet
Validated: 1
EndChar

StartChar: bar
Encoding: 124 124 125
Width: 133
GlyphClass: 2
Flags: MW
LayerCount: 2
Fore
SplineSet
95.0400390625 672.3203125 m 1
 95.0400390625 0 l 1
 36.9599609375 0 l 1
 36.9599609375 672.3203125 l 1
 95.0400390625 672.3203125 l 1
EndSplineSet
Validated: 1
EndChar

StartChar: braceright
Encoding: 125 125 126
Width: 293
GlyphClass: 2
Flags: MW
LayerCount: 2
Fore
SplineSet
35.2001953125 762.080078125 m 1
 130.240234375 760.3203125 183.040039062 742.721679688 183.040039062 635.361328125 c 2
 183.040039062 475.201171875 l 2
 183.040039062 413.6015625 198.879882812 392.481445312 260.479492188 373.12109375 c 1
 198.879882812 355.521484375 183.040039062 334.401367188 183.040039062 271.041015625 c 2
 183.040039062 110.880859375 l 2
 183.040039062 3.5205078125 130.240234375 -12.3193359375 35.2001953125 -14.0791015625 c 1
 35.2001953125 -5.279296875 l 1
 96.7998046875 12.3212890625 116.16015625 38.720703125 116.16015625 105.600585938 c 2
 116.16015625 256.9609375 l 2
 116.16015625 332.640625 133.759765625 355.520507812 200.639648438 374.880859375 c 1
 133.759765625 390.720703125 116.16015625 415.360351562 116.16015625 489.280273438 c 2
 116.16015625 640.640625 l 2
 116.16015625 707.520507812 96.7998046875 735.680664062 35.2001953125 751.520507812 c 1
 35.2001953125 762.080078125 l 1
EndSplineSet
Validated: 1
EndChar

StartChar: asciitilde
Encoding: 126 126 127
Width: 536
GlyphClass: 2
Flags: MW
LayerCount: 2
Fore
SplineSet
160.16015625 401.280273438 m 0
 255.200195312 401.280273438 295.680664062 337.920898438 371.360351562 337.920898438 c 0
 403.040039062 337.920898438 420.639648438 348.48046875 445.279296875 385.440429688 c 1
 499.838867188 355.520507812 l 1
 454.079101562 293.920898438 422.399414062 274.560546875 376.639648438 274.560546875 c 0
 281.599609375 274.560546875 239.359375 339.680664062 165.439453125 339.680664062 c 0
 133.759765625 339.680664062 116.16015625 327.360351562 91.51953125 290.400390625 c 1
 36.9599609375 320.3203125 l 1
 82.7197265625 381.919921875 114.400390625 401.280273438 160.16015625 401.280273438 c 0
EndSplineSet
Validated: 1
EndChar

StartChar: currency
Encoding: 164 164 129
Width: 559
GlyphClass: 2
Flags: MW
LayerCount: 2
Fore
SplineSet
35.2001953125 135.51953125 m 1
 123.200195312 221.758789062 l 1
 96.7998046875 260.478515625 86.240234375 292.158203125 86.240234375 334.3984375 c 0
 86.240234375 378.3984375 96.7998046875 411.838867188 123.200195312 448.798828125 c 1
 35.2001953125 536.798828125 l 1
 79.2001953125 579.0390625 l 1
 165.440429688 492.798828125 l 1
 205.920898438 519.19921875 235.840820312 527.999023438 279.840820312 527.999023438 c 0
 322.081054688 527.999023438 357.28125 517.439453125 392.481445312 492.799804688 c 1
 480.481445312 579.040039062 l 1
 522.721679688 536.799804688 l 1
 436.481445312 448.799804688 l 1
 462.881835938 410.080078125 471.681640625 380.16015625 471.681640625 336.16015625 c 0
 471.681640625 292.16015625 462.881835938 262.240234375 436.481445312 221.759765625 c 1
 522.721679688 135.51953125 l 1
 480.481445312 91.5185546875 l 1
 392.481445312 179.51953125 l 1
 357.28125 153.119140625 322.081054688 142.559570312 279.840820312 142.559570312 c 0
 239.360351562 142.559570312 204.16015625 153.119140625 165.440429688 179.51953125 c 1
 79.2001953125 91.5185546875 l 1
 35.2001953125 135.51953125 l 1
281.600585938 469.918945312 m 0
 205.920898438 469.918945312 147.840820312 410.079101562 147.840820312 334.399414062 c 0
 147.840820312 260.479492188 205.920898438 198.879882812 279.840820312 198.879882812 c 0
 352.000976562 198.879882812 410.081054688 260.479492188 410.081054688 336.159179688 c 0
 410.081054688 410.079101562 352.000976562 469.918945312 281.600585938 469.918945312 c 0
EndSplineSet
Validated: 1
EndChar

StartChar: brokenbar
Encoding: 166 166 130
Width: 135
GlyphClass: 2
Flags: MW
LayerCount: 2
Fore
SplineSet
35.2001953125 0 m 1
 35.2001953125 272.799804688 l 1
 100.3203125 272.799804688 l 1
 100.3203125 0 l 1
 35.2001953125 0 l 1
35.2001953125 392.479492188 m 1
 35.2001953125 663.51953125 l 1
 100.3203125 663.51953125 l 1
 100.3203125 392.479492188 l 1
 35.2001953125 392.479492188 l 1
EndSplineSet
Validated: 1
EndChar

StartChar: section
Encoding: 167 167 131
Width: 369
GlyphClass: 2
Flags: MW
LayerCount: 2
Fore
SplineSet
211.200195312 580.799804688 m 0
 211.200195312 608.959960938 239.362304688 619.517578125 239.362304688 628.317382812 c 0
 239.362304688 642.397460938 214.72265625 654.717773438 186.5625 654.717773438 c 0
 144.322265625 654.717773438 116.162109375 630.078125 116.162109375 594.877929688 c 0
 116.162109375 573.7578125 126.721679688 549.118164062 144.321289062 535.038085938 c 2
 258.721679688 439.998046875 l 2
 308.001953125 399.517578125 334.40234375 364.317382812 334.40234375 320.317382812 c 0
 334.40234375 260.477539062 293.921875 218.237304688 235.841796875 218.237304688 c 2
 221.76171875 218.237304688 l 1
 285.122070312 163.677734375 300.961914062 139.038085938 300.961914062 96.7978515625 c 0
 300.961914062 31.677734375 253.442382812 -12.322265625 179.522460938 -12.322265625 c 0
 114.40234375 -12.322265625 63.3623046875 26.3984375 63.3623046875 73.91796875 c 0
 63.3623046875 100.318359375 82.7216796875 119.678710938 109.122070312 119.678710938 c 0
 132.001953125 119.678710938 149.6015625 103.838867188 149.6015625 82.71875 c 0
 149.6015625 58.0791015625 119.681640625 45.7587890625 119.681640625 36.958984375 c 0
 119.681640625 21.119140625 149.6015625 7.0390625 179.521484375 7.0390625 c 0
 225.28125 7.0390625 253.44140625 31.6787109375 253.44140625 72.1591796875 c 0
 253.44140625 170.71875 35.201171875 197.119140625 35.201171875 344.958984375 c 0
 35.201171875 401.279296875 75.6806640625 443.51953125 132.000976562 443.51953125 c 2
 153.12109375 443.51953125 l 1
 84.4814453125 499.83984375 68.640625 524.479492188 68.640625 570.239257812 c 0
 68.640625 630.079101562 116.161132812 672.319335938 184.80078125 672.319335938 c 0
 246.400390625 672.319335938 293.919921875 637.119140625 293.919921875 589.599609375 c 0
 293.919921875 561.439453125 276.3203125 545.599609375 249.919921875 545.599609375 c 0
 227.040039062 545.599609375 211.200195312 559.6796875 211.200195312 580.799804688 c 0
290.40234375 292.158203125 m 0
 290.40234375 355.518554688 172.483398438 425.918945312 137.283203125 425.918945312 c 0
 103.842773438 425.918945312 79.203125 403.0390625 79.203125 369.598632812 c 0
 79.203125 311.518554688 179.522460938 237.598632812 232.322265625 237.598632812 c 0
 264.001953125 237.598632812 290.40234375 262.23828125 290.40234375 292.158203125 c 0
EndSplineSet
Validated: 1
EndChar

StartChar: logicalnot
Encoding: 172 172 132
Width: 658
GlyphClass: 2
Flags: MW
LayerCount: 2
Fore
SplineSet
545.599609375 123.200195312 m 1
 545.599609375 320.3203125 l 1
 35.2001953125 320.3203125 l 1
 35.2001953125 381.919921875 l 1
 623.040039062 381.919921875 l 1
 623.040039062 123.200195312 l 1
 545.599609375 123.200195312 l 1
EndSplineSet
Validated: 1
EndChar

StartChar: macron
Encoding: 175 175 133
Width: 455
GlyphClass: 2
Flags: MW
LayerCount: 2
Fore
SplineSet
36.9599609375 661.759765625 m 1
 418.879882812 661.759765625 l 1
 418.879882812 594.879882812 l 1
 36.9599609375 594.879882812 l 1
 36.9599609375 661.759765625 l 1
EndSplineSet
Validated: 1
EndChar

StartChar: degree
Encoding: 176 176 134
Width: 367
GlyphClass: 2
Flags: MW
LayerCount: 2
Fore
SplineSet
184.799804688 674.080078125 m 0
 267.51953125 674.080078125 334.400390625 608.9609375 334.400390625 524.48046875 c 0
 334.400390625 441.760742188 267.520507812 376.640625 183.040039062 376.640625 c 0
 102.080078125 376.640625 36.9599609375 443.520507812 36.9599609375 526.240234375 c 0
 36.9599609375 608.959960938 102.080078125 674.080078125 184.799804688 674.080078125 c 0
184.80078125 638.880859375 m 0
 126.720703125 638.880859375 77.44140625 587.83984375 77.44140625 526.240234375 c 0
 77.44140625 464.640625 126.720703125 411.840820312 184.80078125 411.840820312 c 0
 244.640625 411.840820312 293.920898438 462.880859375 293.920898438 526.241210938 c 0
 293.920898438 587.840820312 242.880859375 638.880859375 184.80078125 638.880859375 c 0
EndSplineSet
Validated: 1
EndChar

StartChar: paragraph
Encoding: 182 182 135
Width: 473
GlyphClass: 2
Flags: MW
LayerCount: 2
Fore
SplineSet
202.400390625 350.240234375 m 1
 103.840820312 352 36.9609375 392.479492188 36.9609375 522.719726562 c 0
 36.9609375 635.359375 89.7607421875 681.119140625 214.720703125 681.119140625 c 2
 440.000976562 681.119140625 l 1
 440.000976562 665.279296875 l 1
 373.12109375 659.999023438 364.321289062 649.439453125 364.321289062 587.83984375 c 2
 364.321289062 80.9599609375 l 2
 364.321289062 19.3603515625 374.880859375 5.2802734375 440.000976562 -0 c 1
 440.000976562 -15.83984375 l 1
 308.000976562 -15.83984375 l 1
 308.000976562 663.51953125 l 1
 258.720703125 663.51953125 l 1
 258.720703125 -15.83984375 l 1
 126.720703125 -15.83984375 l 1
 126.720703125 0 l 1
 193.600585938 3.51953125 202.400390625 17.599609375 202.400390625 89.759765625 c 2
 202.400390625 350.240234375 l 1
202.400390625 663.51953125 m 1
 139.040039062 658.239257812 102.080078125 638.879882812 102.080078125 526.240234375 c 0
 102.080078125 418.879882812 128.48046875 376.639648438 202.400390625 367.83984375 c 1
 202.400390625 663.51953125 l 1
EndSplineSet
Validated: 1
EndChar

StartChar: Euro
Encoding: 8364 8364 139
Width: 465
GlyphClass: 2
Flags: MW
LayerCount: 2
Fore
SplineSet
16 322 m 1
 16 332 l 1
 36 358 l 1
 63 358 l 1
 82 515 169 611 288 611 c 0
 343 611 387 595 422 595 c 1
 433 547 443 496 443 441 c 1
 434 437 427 436 418 436 c 2
 411 436 l 1
 394 506 363 576 286 576 c 0
 204 576 148 478 148 358 c 1
 381 358 l 1
 362 322 l 1
 146 322 l 1
 146 268 l 1
 344 268 l 1
 325 232 l 1
 148 232 l 1
 160 94 216 24 294 24 c 0
 368 24 390 85 412 156 c 1
 424 155 436 153 446 148 c 1
 437 96 426 48 410 7 c 1
 380 5 338 -11 284 -11 c 0
 158 -11 78 80 62 232 c 1
 0 232 l 1
 0 242 l 1
 21 268 l 1
 60 268 l 1
 59 275 59 284 59 291 c 0
 59 302 59 311 60 322 c 1
 16 322 l 1
EndSplineSet
Validated: 1
EndChar

StartChar: uni25CC
Encoding: 9676 9676 140
Width: 841
GlyphClass: 2
Flags: MW
AnchorPoint: "Tonal" 89 800 basechar 0
AnchorPoint: "Podchashie" 424 -102 basechar 0
AnchorPoint: "Right" 908 374 basechar 0
LayerCount: 2
Fore
SplineSet
80 428 m 0
 105 428 110 428 126 410 c 0
 137 398 138 394 138 384 c 2
 138 366 l 2
 138 340 138 340 122 323 c 0
 106 306 106 306 80 306 c 0
 54 306 54 306 37 324 c 0
 20 341 20 341 20 366 c 0
 20 391 20 391 39 409 c 0
 57 428 57 428 80 428 c 0
186 195 m 0
 212 195 212 195 229 178 c 0
 245 160 245 160 245 134 c 0
 245 109 245 109 228 92 c 0
 210 74 210 74 186 74 c 0
 161 74 161 74 143 92 c 0
 126 109 126 109 126 134 c 0
 126 157 126 157 144 176 c 0
 163 195 163 195 186 195 c 0
186 683 m 0
 210 683 210 679 228 662 c 0
 245 644 245 648 245 623 c 0
 245 597 245 597 229 579 c 0
 212 561 212 561 186 561 c 0
 161 561 161 561 143 580 c 0
 126 598 126 598 126 623 c 0
 126 644 126 642 145 662 c 0
 164 681 164 683 186 683 c 0
421 102 m 0
 448 102 448 102 464 84 c 0
 479 67 479 67 479 40 c 0
 479 16 479 18 463 0 c 0
 446 -18 446 -19 421 -19 c 0
 397 -19 397 -18 379 0 c 0
 362 18 362 16 362 40 c 0
 362 63 362 63 380 83 c 0
 398 102 398 102 421 102 c 0
421 783 m 0
 446 783 446 783 463 766 c 0
 479 748 479 748 479 723 c 0
 479 697 479 697 464 679 c 0
 448 662 448 662 421 662 c 0
 397 662 397 662 379 680 c 0
 362 699 362 699 362 723 c 0
 362 744 362 744 381 764 c 0
 400 783 400 783 421 783 c 0
652 195 m 0
 678 195 678 195 695 178 c 0
 712 160 712 160 712 134 c 0
 712 107 712 107 695 91 c 0
 678 74 678 74 652 74 c 0
 629 74 629 74 611 92 c 0
 594 109 594 109 594 134 c 0
 594 157 594 157 612 176 c 0
 631 195 631 195 652 195 c 0
652 693 m 0
 678 693 678 693 695 676 c 0
 712 658 712 658 712 632 c 0
 712 605 712 605 695 588 c 0
 678 570 678 570 652 570 c 0
 629 570 629 570 611 589 c 0
 594 607 594 607 594 632 c 0
 594 653 594 653 612 673 c 0
 631 693 631 693 652 693 c 0
763 428 m 0
 787 428 787 428 804 410 c 0
 821 392 821 392 821 366 c 0
 821 340 821 340 805 323 c 0
 789 306 789 306 763 306 c 0
 738 306 738 306 721 324 c 0
 703 341 703 341 703 366 c 0
 703 389 703 389 721 408 c 0
 740 428 740 428 763 428 c 0
EndSplineSet
Validated: 1
EndChar

StartChar: uniEA57
Encoding: 59991 59991 141
Width: 901
GlyphClass: 2
Flags: HMW
AnchorPoint: "Tonal" 266 243 basechar 0
AnchorPoint: "Podchashie" 488 119 basechar 0
AnchorPoint: "Right" 930 412 basechar 0
LayerCount: 2
Fore
SplineSet
39 21 m 2
 24.3163603413 21 17 28.4445475021 17 44 c 0
 17 56 23 68 34 73 c 0
 288 176 464 247 825 396 c 0
 832 402 847 405 858 405 c 0
 874 405 879 398 881 381 c 0
 881 367 865 359 851 354 c 0
 545 224 330 126 59 21 c 0
 55 22 50 21 46 21 c 2
 39 21 l 2
EndSplineSet
Validated: 1
Colour: ff00
EndChar

StartChar: uniEA80
Encoding: 60032 60032 142
Width: 375
GlyphClass: 3
Flags: MW
LayerCount: 2
Fore
SplineSet
286.33984375 305.83984375 m 0
 319.779296875 305.83984375 354.98046875 281.201171875 354.98046875 254.80078125 c 0
 354.98046875 228.400390625 330.340820312 217.840820312 307.461914062 217.840820312 c 0
 272.260742188 217.840820312 238.8203125 247.760742188 238.8203125 272.400390625 c 0
 238.8203125 288.240234375 254.66015625 305.83984375 286.33984375 305.83984375 c 0
131.4609375 87.6005859375 m 1
 177.220703125 99.9208984375 200.098632812 117.5234375 249.379882812 117.5234375 c 0
 268.739257812 117.5234375 284.579101562 112.243164062 284.579101562 84.0830078125 c 0
 284.579101562 59.443359375 180.739257812 20.72265625 112.099609375 20.72265625 c 0
 83.939453125 20.72265625 61.060546875 27.7626953125 55.779296875 43.6025390625 c 0
 41.69921875 80.5625 25.859375 124.5625 20.580078125 168.5625 c 1
 48.740234375 186.162109375 75.140625 189.681640625 89.220703125 189.681640625 c 0
 120.900390625 189.681640625 115.62109375 149.201171875 131.4609375 87.6005859375 c 1
EndSplineSet
Validated: 1
Ligature2: "'ccmp' Znamenny Ligatures 0-1" uniEE75 uniEE50
Ligature2: "'ccmp' Znamenny Ligatures 0-1" uniEE75 uniEE5A
LCarets2: 1 0
Colour: ffff
EndChar

StartChar: uniEA99
Encoding: 60057 60057 143
Width: 432
GlyphClass: 3
Flags: MW
LayerCount: 2
Fore
SplineSet
277.360351562 349.83984375 m 0
 277.360351562 365.6796875 293.201171875 386.799804688 326.641601562 386.799804688 c 0
 356.561523438 386.799804688 395.28125 367.439453125 395.28125 339.279296875 c 0
 395.28125 316.399414062 368.880859375 302.319335938 342.48046875 302.319335938 c 0
 310.80078125 302.319335938 277.360351562 323.439453125 277.360351562 349.83984375 c 0
310.801757812 54.16015625 m 0
 206.961914062 156.240234375 145.362304688 231.919921875 43.2822265625 358.639648438 c 0
 30.9619140625 372.719726562 20.40234375 383.279296875 20.40234375 402.639648438 c 0
 20.40234375 425.51953125 45.0419921875 441.359375 71.4423828125 441.359375 c 0
 78.482421875 441.359375 85.521484375 439.599609375 92.5615234375 432.559570312 c 0
 208.721679688 284.719726562 272.08203125 203.759765625 405.841796875 73.51953125 c 0
 409.361328125 68.240234375 411.12109375 62.9599609375 411.12109375 57.6796875 c 0
 411.12109375 41.83984375 397.041015625 24.240234375 379.44140625 20.7197265625 c 1
 333.681640625 22.48046875 331.921875 33.0400390625 310.801757812 54.16015625 c 0
EndSplineSet
Validated: 1
Ligature2: "'ccmp' Znamenny Ligatures 0-1" u1CF5C u1CF3C
Ligature2: "'ccmp' Znamenny Ligatures 0-1" uniEE78 uniEE5A
Colour: ffff
EndChar

StartChar: uniEA9C
Encoding: 60060 60060 144
Width: 484
GlyphClass: 3
Flags: MW
LayerCount: 2
Fore
SplineSet
402 294 m 0
 434 294 464 276 464 248 c 0
 464 218 429 200 399 200 c 0
 367 200 341 225 341 251 c 0
 341 274 365 294 402 294 c 0
242 396 m 0
 242 413 263 429 293 429 c 0
 325 429 358 411 358 383 c 0
 358 360 334 346 306 346 c 0
 276 346 242 367 242 396 c 0
20 403 m 0
 20 426 45 441 71 441 c 0
 78 441 86 440 93 433 c 0
 209 285 272 204 406 74 c 0
 409 68 411 63 411 58 c 0
 411 42 397 24 379 21 c 0
 334 22 332 33 311 54 c 0
 202 149 145 232 43 359 c 0
 31 373 20 383 20 403 c 0
EndSplineSet
Validated: 1
Ligature2: "'ccmp' Znamenny Ligatures 0-1" u1CF5C u1CF3D
Colour: ffff
EndChar

StartChar: uniEA9F
Encoding: 60063 60063 145
Width: 604
GlyphClass: 3
Flags: MW
LayerCount: 2
Fore
SplineSet
138 21 m 0
 118 21 92 33 92 64 c 0
 92 75 105 77 117 91 c 0
 121 95 122 98 122 101 c 0
 122 109 111 120 102 120 c 0
 99 119 85 109 73 109 c 0
 71 109 70 109 68 110 c 0
 45 119 40 135 20 151 c 1
 20 153 l 2
 20 174 57 183 93 183 c 0
 163 183 228 140 228 86 c 0
 228 49 174 21 138 21 c 0
308 54 m 0
 292 54 281 64 281 81 c 0
 281 93 290 102 302 109 c 0
 334 125 360 137 386 149 c 1
 339 214 l 2
 337 216 337 220 337 221 c 0
 337 237 360 251 378 251 c 0
 386 251 394 250 399 242 c 2
 448 174 l 1
 466 181 522 206 552 206 c 0
 570 206 584 184 584 170 c 0
 584 167 582 163 577 162 c 0
 547 154 515 142 480 130 c 1
 522 70 l 2
 524 66 526 63 526 61 c 0
 526 45 504 31 487 31 c 0
 478 31 469 35 464 42 c 2
 420 103 l 1
 397 93 376 82 351 70 c 0
 340 65 326 54 308 54 c 0
EndSplineSet
Validated: 1
Ligature2: "'ccmp' Znamenny Ligatures 0-1" u1CF5D u1CF81
Colour: ffff
EndChar

StartChar: uniEAC5
Encoding: 60101 60101 146
Width: 398
GlyphClass: 3
Flags: MW
LayerCount: 2
Fore
SplineSet
226 288 m 0
 226 268 200 256 181 256 c 0
 149 256 122 286 122 311 c 0
 122 330 144 341 165 341 c 0
 195 341 226 319 226 288 c 0
337 205 m 0
 360 205 378 187 378 161 c 0
 378 121 376 99 348 68 c 0
 314 31 277 22 226 22 c 0
 145 22 100 52 59 96 c 0
 36 121 20 143 20 170 c 0
 20 187 42 200 61 200 c 0
 68 200 75 198 80 194 c 0
 114 173 115 142 147 119 c 0
 172 99 189 89 221 89 c 0
 246 89 265 96 281 115 c 0
 300 140 286 166 304 193 c 0
 311 205 323 205 337 205 c 0
EndSplineSet
Validated: 1
Ligature2: "'ccmp' Znamenny Ligatures 0-1" u1CF6F u1CF30
Ligature2: "'ccmp' Znamenny Ligatures 0-1" u1CF6F u1CF3C
Colour: ffff
EndChar

StartChar: uniEAFA
Encoding: 60154 60154 147
Width: 696
GlyphClass: 3
Flags: MW
LayerCount: 2
Fore
SplineSet
579 -199 m 0
 554 -199 537 -190 537 -169 c 2
 537 93 l 2
 537 125 538 142 538 176 c 0
 538 221 547 246 552 292 c 1
 508 295 456 313 456 359 c 0
 456 420 531 427 567 507 c 1
 521 533 473 544 473 596 c 0
 473 654 533 686 561 718 c 1
 563 709 565 705 565 697 c 0
 565 686 579 683 579 672 c 0
 579 640 565 624 565 593 c 0
 565 575 588 568 607 568 c 0
 635 568 676 566 676 536 c 0
 676 459 568 448 568 371 c 0
 568 331 647 341 647 301 c 0
 647 251 625 227 625 179 c 2
 625 -169 l 2
 625 -183 609 -199 579 -199 c 0
157 94 m 0
 138 94 121 112 121 133 c 0
 121 142 125 150 134 153 c 0
 241 195 255 202 348 239 c 0
 352 241 356 241 360 241 c 0
 378 241 391 225 391 206 c 0
 391 195 386 186 376 181 c 0
 288 146 251 128 167 96 c 0
 164 95 160 94 157 94 c 0
52 225 m 0
 33 225 18 241 18 263 c 0
 18 272 21 280 28 283 c 0
 137 325 151 332 244 369 c 0
 248 371 252 372 256 372 c 0
 272 372 287 356 287 337 c 0
 287 326 282 316 271 311 c 0
 185 276 148 258 63 227 c 0
 59 225 55 225 52 225 c 0
EndSplineSet
Validated: 1
Ligature2: "'ccmp' Znamenny Ligatures 0-1" u1CF86 u1CF85
Colour: ffff
EndChar

StartChar: uniEAFD
Encoding: 60157 60157 148
Width: 481
GlyphClass: 3
Flags: MW
LayerCount: 2
Fore
SplineSet
409 358 m 0
 437 358 467 335 467 312 c 0
 467 291 448 282 427 282 c 0
 397 282 369 307 369 328 c 0
 369 342 383 358 409 358 c 0
155 22 m 0
 137 22 121 38 121 60 c 0
 121 69 124 77 133 80 c 0
 240 122 254 129 348 166 c 0
 352 168 356 169 360 169 c 0
 378 169 390 152 390 132 c 0
 390 122 386 112 376 108 c 0
 288 73 251 55 166 24 c 0
 162 22 159 22 155 22 c 0
51 152 m 0
 32 152 17 168 17 190 c 0
 17 199 20 207 27 210 c 0
 136 253 150 260 244 297 c 0
 248 299 251 299 255 299 c 0
 272 299 286 280 286 263 c 0
 286 253 281 243 270 238 c 0
 184 203 147 186 62 154 c 0
 58 152 54 152 51 152 c 0
EndSplineSet
Validated: 1
Ligature2: "'ccmp' Znamenny Ligatures 0-1" u1CF86 u1CF30
Ligature2: "'ccmp' Znamenny Ligatures 0-1" uniEE8F uniEE50
Colour: ffff
EndChar

StartChar: uniEB01
Encoding: 60161 60161 149
Width: 736
GlyphClass: 3
Flags: MW
LayerCount: 2
Fore
SplineSet
657 324 m 0
 685 324 715 301 715 278 c 0
 715 257 696 248 675 248 c 0
 645 248 617 273 617 294 c 0
 617 308 631 324 657 324 c 0
388 327 m 0
 388 350 414 366 439 366 c 0
 446 366 455 364 460 357 c 0
 529 274 604 190 692 77 c 0
 705 61 710 51 712 32 c 0
 712 16 696 3 680 3 c 0
 648 3 636 23 615 44 c 0
 478 211 458 230 411 283 c 0
 398 297 388 308 388 327 c 0
144 21 m 2
 122 21 110 38 110 60 c 0
 110 70 113 78 122 81 c 0
 235 111 249 116 348 144 c 1
 355 144 l 2
 374 144 386 125 386 109 c 0
 386 97 381 86 367 83 c 0
 277 58 239 44 151 21 c 1
 144 21 l 2
54 162 m 0
 34 162 20 178 20 200 c 0
 20 211 24 220 34 222 c 0
 147 253 159 257 258 285 c 1
 267 285 l 2
 284 285 297 267 297 250 c 0
 297 237 291 227 279 223 c 0
 189 199 149 186 63 164 c 0
 59 162 57 162 54 162 c 0
EndSplineSet
Validated: 1
Ligature2: "'ccmp' Znamenny Ligatures 0-1" u1CF8B u1CF30
Ligature2: "'ccmp' Znamenny Ligatures 0-1" uniEE93 uniEE50
Colour: ffff
EndChar

StartChar: uniEB0D
Encoding: 60173 60173 150
Width: 562
GlyphClass: 3
Flags: MW
LayerCount: 2
Fore
SplineSet
542 186 m 0
 542 157 512 147 487 147 c 0
 457 147 436 172 436 193 c 0
 436 212 454 228 486 228 c 0
 512 228 542 209 542 186 c 0
410 358 m 0
 438 358 468 335 468 312 c 0
 468 291 449 282 427 282 c 0
 398 282 369 307 369 328 c 0
 369 342 383 358 410 358 c 0
156 22 m 0
 138 22 121 39 121 60 c 0
 121 69 125 77 134 80 c 0
 241 122 255 129 348 166 c 0
 352 168 356 169 360 169 c 0
 378 169 391 153 391 133 c 0
 391 122 386 113 376 108 c 0
 288 73 251 55 167 24 c 0
 163 22 160 22 156 22 c 0
52 152 m 0
 33 152 18 168 18 190 c 0
 18 199 21 207 28 210 c 0
 137 253 151 260 244 297 c 0
 248 299 252 299 255 299 c 0
 273 299 287 280 287 263 c 0
 287 253 282 243 271 238 c 0
 185 203 148 186 63 154 c 0
 59 152 55 152 52 152 c 0
EndSplineSet
Validated: 1
Ligature2: "'ccmp' Znamenny Ligatures 0-1" u1CF86 u1CF31
Ligature2: "'ccmp' Znamenny Ligatures 0-1" uniEE8F uniEE51
Colour: ffff
EndChar

StartChar: uniEB52
Encoding: 60242 60242 151
Width: 630
GlyphClass: 3
Flags: MW
LayerCount: 2
Fore
SplineSet
23 197 m 0
 23 252 189 316 302 316 c 0
 452 316 582 261 615 95 c 0
 616 90 618 81 618 70 c 0
 618 52 613 32 590 32 c 0
 559 32 546 53 538 76 c 0
 533 92 533 110 532 117 c 0
 514 218 396 256 336 256 c 0
 96 256 101 166 68 166 c 0
 44 166 23 172 23 197 c 0
317 90 m 1
 363 101 386 120 435 120 c 0
 455 120 470 113 470 85 c 0
 470 60 367 22 298 22 c 0
 270 22 249 29 242 45 c 0
 228 83 212 126 206 170 c 1
 235 187 263 192 275 192 c 0
 308 192 301 152 317 90 c 1
EndSplineSet
Validated: 1
Ligature2: "'ccmp' Znamenny Ligatures 0-1" u1CF56 u1CFC0
Colour: ffff
EndChar

StartChar: uniEB53
Encoding: 60243 60243 152
Width: 630
GlyphClass: 3
Flags: MW
LayerCount: 2
Fore
SplineSet
320 22 m 0
 300 22 274 34 274 65 c 0
 274 76 287 78 301 92 c 0
 304 95 305 98 305 101 c 0
 305 110 294 120 284 120 c 0
 282 119 269 110 258 110 c 0
 256 110 254 110 252 111 c 0
 229 119 222 134 202 150 c 1
 202 152 l 2
 202 175 239 184 275 184 c 0
 345 184 410 141 410 87 c 0
 410 50 356 22 320 22 c 0
23 197 m 0
 23 252 189 316 302 316 c 0
 452 316 582 261 615 95 c 0
 616 90 618 81 618 70 c 0
 618 52 613 32 590 32 c 0
 559 32 546 53 538 76 c 0
 533 92 533 110 532 117 c 0
 514 218 396 256 336 256 c 0
 96 256 101 166 68 166 c 0
 44 166 23 172 23 197 c 0
EndSplineSet
Validated: 1
Ligature2: "'ccmp' Znamenny Ligatures 0-1" u1CF5D u1CFC0
Colour: ffff
EndChar

StartChar: uniEB54
Encoding: 60244 60244 153
Width: 630
GlyphClass: 3
Flags: MW
LayerCount: 2
Fore
SplineSet
394 22 m 0
 374 22 348 35 348 66 c 0
 348 77 361 79 375 93 c 0
 378 96 379 99 379 102 c 0
 379 111 368 120 358 120 c 0
 356 119 343 111 332 111 c 0
 330 111 328 111 326 112 c 0
 303 119 296 135 276 151 c 1
 276 153 l 2
 276 175 313 184 349 184 c 0
 419 184 479 142 484 87 c 0
 484 50 430 22 394 22 c 0
198 0 m 0
 178 0 152 12 152 43 c 0
 152 54 165 56 179 70 c 0
 182 73 183 76 183 79 c 0
 183 88 172 98 162 98 c 0
 160 97 147 88 136 88 c 0
 134 88 132 88 130 89 c 0
 107 97 100 112 80 128 c 1
 80 130 l 2
 80 153 117 162 153 162 c 0
 223 162 283 119 288 65 c 0
 288 28 234 0 198 0 c 0
23 197 m 0
 23 252 189 316 302 316 c 0
 452 316 582 261 615 95 c 0
 616 90 618 81 618 70 c 0
 618 52 613 32 590 32 c 0
 559 32 546 53 538 76 c 0
 533 92 533 110 532 117 c 0
 514 218 396 256 336 256 c 0
 96 256 101 166 68 166 c 0
 44 166 23 172 23 197 c 0
EndSplineSet
Validated: 1
Ligature2: "'ccmp' Znamenny Ligatures 0-1" u1CF6B u1CFC0
Colour: ffff
EndChar

StartChar: uniEB55
Encoding: 60245 60245 154
Width: 630
GlyphClass: 3
Flags: MW
LayerCount: 2
Fore
SplineSet
531.5 55 m 0
 500.5 55 487.5 76 479.5 99 c 0
 474.5 115 474.5 133 473.5 140 c 0
 463.5 220 355.5 287 295.5 287 c 0
 227.5 287 183.5 269 109.5 269 c 0
 92.5 269 70.5 269 70.5 294 c 0
 70.5 328 172.5 344 239.5 344 c 0
 391.5 344 519.5 285 556.5 118 c 0
 557.5 113 559.5 104 559.5 93 c 0
 559.5 75 554.5 55 531.5 55 c 0
235.5 191 m 0
 235.5 211 260.5 216 277.5 216 c 0
 293.5 216 302.5 211 313.5 198 c 0
 327.5 184 448.5 70 448.5 17 c 0
 448.5 -1 437.5 -6 425.5 -6 c 0
 409.5 -6 392.5 1 383.5 10 c 0
 323.5 61 297.5 100 249.5 163 c 0
 242.5 172 235.5 181 235.5 191 c 0
71.5 186 m 0
 71.5 204 94.5 211 108.5 211 c 0
 135.5 211 144.5 205 156.5 189 c 0
 170.5 170 284.5 47 284.5 -8 c 0
 284.5 -23 270.5 -32 254.5 -32 c 0
 239.5 -32 225.5 -23 212.5 -11 c 0
 152.5 47 129.5 89 84.5 158 c 0
 78.5 168 71.5 177 71.5 186 c 0
EndSplineSet
Validated: 1
Ligature2: "'ccmp' Znamenny Ligatures 0-1" u1CF7D u1CFC0
Colour: ffff
EndChar

StartChar: uniEB56
Encoding: 60246 60246 155
Width: 560
GlyphClass: 3
Flags: MW
AnchorPoint: "Tonal" 300 489 basechar 0
AnchorPoint: "Right" 648 210 basechar 0
AnchorPoint: "Podchashie" 400 0 basechar 0
LayerCount: 2
Fore
SplineSet
506 109 m 0
 475 109 462 130 454 153 c 0
 449 169 449 187 448 194 c 0
 438 274 330 341 270 341 c 0
 202 341 158 323 84 323 c 0
 67 323 45 323 45 348 c 0
 45 382 147 398 214 398 c 0
 366 398 494 339 531 172 c 0
 532 167 534 158 534 147 c 0
 534 129 529 109 506 109 c 0
135 22 m 0
 116 22 99 40 99 61 c 0
 99 70 103 78 112 81 c 0
 219 123 233 130 326 167 c 0
 330 169 334 169 338 169 c 0
 356 169 369 153 369 134 c 0
 369 123 364 114 354 109 c 0
 266 74 229 54 145 22 c 0
 142 21 138 22 135 22 c 0
59 124 m 0
 40 124 25 140 25 162 c 0
 25 171 28 179 35 182 c 0
 144 224 158 231 251 268 c 0
 255 270 259 271 263 271 c 0
 279 271 294 255 294 236 c 0
 294 225 289 215 278 210 c 0
 192 175 155 155 70 124 c 0
 66 122 62 124 59 124 c 0
EndSplineSet
Validated: 1
LCarets2: 1 0
Ligature2: "'ccmp' Znamenny Ligatures 0-1" u1CF86 u1CFC0
Colour: ffff
EndChar

StartChar: uniEB57
Encoding: 60247 60247 156
Width: 541
GlyphClass: 2
Flags: MW
LayerCount: 2
Fore
SplineSet
196 259 m 0
 341 259 520 201 520 67 c 0
 520 39 506 22 455 22 c 0
 397 22 367 83 335 83 c 1
 337 94 330 117 360 117 c 0
 406 117 409 85 434 85 c 1
 436 92 436 97 436 104 c 0
 436 184 307 210 247 210 c 0
 179 210 133 185 59 185 c 0
 42 185 20 185 20 210 c 0
 20 245 130 259 196 259 c 0
EndSplineSet
Validated: 1
Colour: ffff
EndChar

StartChar: uniEB5F
Encoding: 60255 60255 157
Width: 797
GlyphClass: 3
Flags: MW
LayerCount: 2
Fore
SplineSet
466 195 m 0
 451 195 431 199 416 199 c 0
 403 199 393 196 393 182 c 0
 393 164 413 157 430 157 c 0
 445 157 456 169 456 184 c 0
 456 190 472 195 466 195 c 0
280 361 m 2
 409 361 506 282 506 235 c 1
 539 219 557 196 594 196 c 0
 683 196 706 287 754 287 c 2
 756 287 l 2
 770 287 777 273 777 259 c 0
 777 238 759 224 738 224 c 1
 738 171 680 155 618 155 c 0
 580 155 539 161 513 168 c 1
 477 148 462 118 421 118 c 0
 379 118 330 136 330 178 c 0
 330 213 347 252 382 252 c 0
 402 252 412 249 432 249 c 1
 374 272 345 309 284 309 c 0
 256 309 217 294 192 294 c 0
 175 294 164 301 164 319 c 0
 164 358 208 361 250 361 c 2
 280 361 l 2
104 62 m 0
 185 95 195 100 266 129 c 0
 269 129 273 130 274 130 c 0
 288 130 299 115 299 102 c 0
 299 95 295 88 287 83 c 0
 220 56 192 44 128 19 c 0
 127 18 123 18 121 18 c 0
 107 18 93 35 93 48 c 0
 93 55 95 60 104 62 c 0
206 208 m 1
 219 208 229 190 229 183 c 0
 229 174 223 166 215 162 c 0
 149 136 121 122 56 97 c 0
 54 97 51 95 47 95 c 0
 33 95 21 109 21 125 c 0
 21 132 24 137 30 141 c 0
 91 164 156 190 206 208 c 1
EndSplineSet
Validated: 1
Ligature2: "'ccmp' Znamenny Ligatures 0-1" u1CF86 u1CFC3
Colour: ffff
EndChar

StartChar: uniEC22
Encoding: 60450 60450 158
Width: 1514
GlyphClass: 3
Flags: MW
AnchorPoint: "Tonal" 1077 392 basechar 0
AnchorPoint: "Podchashie" 1144 228 basechar 0
AnchorPoint: "Right" 1570 374 basechar 0
LayerCount: 2
Fore
SplineSet
168 284 m 1
 158 287 149 288 140 288 c 0
 127 288 114 285 100 280 c 0
 88 276 81 262 81 248 c 0
 81 238 85 227 96 223 c 0
 111 216 123 213 136 213 c 0
 145 213 154 214 166 217 c 1
 165 222 165 227 165 231 c 0
 165 246 168 257 168 284 c 1
351 246 m 0
 351 274 317 283 290 283 c 0
 286 283 282 283 279 282 c 0
 279 275 278 269 278 264 c 0
 278 248 280 238 280 222 c 1
 292 217 300 216 308 216 c 0
 319 216 327 219 340 225 c 0
 348 229 351 237 351 246 c 0
226 454 m 0
 236 454 248 454 260 450 c 0
 284 443 310 438 310 410 c 0
 310 391 289 381 285 360 c 0
 284 352 282 344 282 337 c 0
 282 329 284 323 291 318 c 0
 319 299 345 316 375 300 c 0
 394 290 409 279 409 255 c 0
 409 233 409 221 395 209 c 0
 368 186 351 172 312 172 c 0
 299 172 287 174 273 174 c 1
 273 150 l 2
 273 134 274 122 274 109 c 0
 274 101 273 92 273 83 c 2
 273 69 l 2
 273 63 272 57 267 51 c 0
 250 33 236 22 212 22 c 0
 188 22 184 27 172 39 c 0
 167 44 166 50 166 57 c 2
 166 102 l 2
 166 130 169 148 169 178 c 1
 155 178 l 2
 119 178 88 184 49 202 c 0
 24 214 20 236 20 263 c 0
 20 306 59 313 101 313 c 0
 122 313 143 311 160 311 c 0
 165 311 170 312 174 312 c 0
 178 324 180 336 180 347 c 0
 180 359 178 371 172 382 c 0
 165 396 150 398 150 417 c 0
 150 450 193 454 226 454 c 0
1465 391 m 0
 1483 391 1494 385 1494 370 c 0
 1494 348 1477 344 1458 342 c 0
 1167 307 1019 289 840 258 c 1
 826 268 804 259 804 283 c 0
 804 298 808 312 823 315 c 0
 887 329 1141 363 1442 389 c 0
 1448 390 1457 391 1465 391 c 0
531 149 m 2
 509 149 497 165 497 186 c 0
 497 198 501 210 513 212 c 0
 630 227 643 231 744 244 c 0
 746 245 748 245 750 245 c 0
 767 245 778 228 778 211 c 0
 778 198 771 185 756 182 c 0
 664 168 622 160 534 149 c 1
 531 149 l 2
517 299 m 2
 497 299 484 316 484 335 c 0
 484 349 489 360 501 362 c 0
 616 378 612 375 711 390 c 0
 712 391 714 391 715 391 c 0
 735 391 747 371 747 353 c 0
 747 340 740 329 725 327 c 0
 631 314 610 310 521 299 c 1
 517 299 l 2
EndSplineSet
Validated: 1
Ligature2: "'ccmp' Znamenny Ligatures 0-1" u1CFC1 u1CF92
Colour: ffff
EndChar

StartChar: uniEE50
Encoding: 61008 61008 159
Width: 0
GlyphClass: 4
Flags: MW
AnchorPoint: "Tonal" -114 387 mark 0
LayerCount: 2
Fore
SplineSet
-134 493 m 0
 -97 493 -63 465 -63 445 c 0
 -63 415 -84 391 -114 391 c 0
 -148 391 -176 414 -176 447 c 0
 -176 472 -162 493 -134 493 c 0
EndSplineSet
Validated: 1
Colour: ffff00
EndChar

StartChar: uniEE51
Encoding: 61009 61009 160
Width: 0
GlyphClass: 4
Flags: MW
AnchorPoint: "Tonal" -316 318 mark 0
LayerCount: 2
Fore
SplineSet
-143 496 m 0
 -106 496 -72 470 -72 449 c 0
 -72 419 -93 394 -123 394 c 0
 -157 394 -185 419 -185 451 c 0
 -185 475 -171 496 -143 496 c 0
-336 426 m 0
 -299 426 -266 400 -266 378 c 0
 -266 348 -287 324 -317 324 c 0
 -350 324 -378 348 -378 380 c 0
 -378 405 -364 426 -336 426 c 0
EndSplineSet
Validated: 1
Colour: ffff00
EndChar

StartChar: uniEE52
Encoding: 61010 61010 161
Width: 0
GlyphClass: 4
Flags: MW
AnchorPoint: "Tonal" -490 320 mark 0
LayerCount: 2
Fore
SplineSet
-141 574 m 0
 -102 574 -69 546 -69 526 c 0
 -69 496 -92 472 -120 472 c 0
 -153 472 -181 496 -181 528 c 0
 -181 553 -169 574 -141 574 c 0
-315 496 m 0
 -276 496 -243 470 -243 449 c 0
 -243 419 -266 394 -294 394 c 0
 -327 394 -356 419 -356 451 c 0
 -356 475 -343 496 -315 496 c 0
-509 426 m 0
 -470 426 -436 400 -436 378 c 0
 -436 348 -459 324 -488 324 c 0
 -521 324 -549 348 -549 380 c 0
 -549 405 -537 426 -509 426 c 0
EndSplineSet
Validated: 1
Colour: ffff00
EndChar

StartChar: uniEE53
Encoding: 61011 61011 162
Width: 500
GlyphClass: 2
Flags: MW
LayerCount: 2
Fore
SplineSet
37 770 m 1
 464 770 l 1
 464 0 l 1
 37 0 l 1
 37 770 l 1
66 748 m 1
 250 398 l 1
 435 748 l 1
 66 748 l 1
258 383 m 1
 442 34 l 1
 442 733 l 1
 258 383 l 1
435 19 m 1
 250 369 l 1
 66 19 l 1
 435 19 l 1
59 733 m 1
 59 34 l 1
 243 383 l 1
 59 733 l 1
EndSplineSet
Validated: 1
Colour: ffff00
EndChar

StartChar: uniEE54
Encoding: 61012 61012 163
Width: 500
GlyphClass: 2
Flags: MW
LayerCount: 2
Fore
SplineSet
37 770 m 1
 464 770 l 1
 464 0 l 1
 37 0 l 1
 37 770 l 1
66 748 m 1
 250 398 l 1
 435 748 l 1
 66 748 l 1
258 383 m 1
 442 34 l 1
 442 733 l 1
 258 383 l 1
435 19 m 1
 250 369 l 1
 66 19 l 1
 435 19 l 1
59 733 m 1
 59 34 l 1
 243 383 l 1
 59 733 l 1
EndSplineSet
Validated: 1
Colour: ffff00
EndChar

StartChar: uniEE55
Encoding: 61013 61013 164
Width: 0
GlyphClass: 4
Flags: MW
AnchorPoint: "Podchashie" -243 395 mark 0
LayerCount: 2
Fore
SplineSet
-110.879882812 397.759765625 m 0
 -88 397.759765625 -70.3994140625 380.158203125 -70.3994140625 353.7578125 c 0
 -70.3994140625 313.27734375 -72.1591796875 292.157226562 -100.319335938 260.477539062 c 0
 -133.759765625 223.517578125 -170.719726562 214.717773438 -221.759765625 214.717773438 c 0
 -302.719726562 214.717773438 -348.479492188 244.637695312 -388.959960938 288.637695312 c 0
 -411.83984375 313.27734375 -427.6796875 336.157226562 -427.6796875 362.557617188 c 0
 -427.6796875 380.157226562 -406.559570312 392.477539062 -387.19921875 392.477539062 c 0
 -380.159179688 392.477539062 -373.119140625 390.717773438 -367.838867188 387.198242188 c 0
 -334.3984375 366.078125 -332.638671875 334.3984375 -300.958984375 311.518554688 c 0
 -276.319335938 292.158203125 -258.719726562 281.598632812 -227.040039062 281.598632812 c 0
 -202.400390625 281.598632812 -183.040039062 288.638671875 -167.200195312 307.999023438 c 0
 -147.83984375 332.638671875 -161.919921875 359.0390625 -144.3203125 385.439453125 c 0
 -137.280273438 397.759765625 -124.959960938 397.759765625 -110.879882812 397.759765625 c 0
EndSplineSet
Validated: 1
Colour: ffff00
EndChar

StartChar: uniEE56
Encoding: 61014 61014 165
Width: 0
GlyphClass: 4
Flags: MW
AnchorPoint: "Tonal" -226 374 mark 0
LayerCount: 2
Fore
SplineSet
-81 461 m 0
 -81 434 -117 422 -140 407 c 1
 -174 394 -203 381 -246 381 c 0
 -275 381 -310 387 -358 403 c 0
 -361 408 -362 416 -362 424 c 0
 -362 447 -351 482 -323 482 c 0
 -299 482 -272 455 -236 455 c 0
 -192 455 -171 490 -142 505 c 0
 -136 508 -130 509 -125 509 c 0
 -105 509 -81 486 -81 461 c 0
EndSplineSet
Validated: 1
Colour: ffff00
EndChar

StartChar: uniEE57
Encoding: 61015 61015 166
Width: 0
GlyphClass: 4
Flags: MW
AnchorPoint: "Tonal" -226 371 mark 0
LayerCount: 2
Fore
SplineSet
-247 585 m 0
 -219 585 -189 562 -189 539 c 0
 -189 518 -208 509 -230 509 c 0
 -259 509 -288 534 -288 555 c 0
 -288 569 -275 585 -247 585 c 0
-81 458 m 0
 -81 431 -117 419 -140 404 c 1
 -174 391 -203 378 -246 378 c 0
 -275 378 -310 384 -358 400 c 0
 -361 405 -362 413 -362 421 c 0
 -362 444 -351 479 -323 479 c 0
 -299 479 -272 452 -236 452 c 0
 -192 452 -171 487 -142 502 c 0
 -136 505 -130 506 -125 506 c 0
 -105 506 -81 483 -81 458 c 0
EndSplineSet
Validated: 1
Colour: ffff00
EndChar

StartChar: uniEE58
Encoding: 61016 61016 167
Width: 0
GlyphClass: 4
Flags: MW
AnchorPoint: "Tonal" -183 426 mark 0
LayerCount: 2
Fore
SplineSet
-181 480 m 0
 -250 480 -257 407 -294 407 c 0
 -322 407 -348 442 -348 465 c 1
 -260 553 -213 553 -151 558 c 1
 -118 554 -70 563 -70 517 c 0
 -70 493 -83 470 -109 470 c 0
 -136 470 -153 480 -181 480 c 0
EndSplineSet
Validated: 1
Colour: ffff00
EndChar

StartChar: uniEE59
Encoding: 61017 61017 168
Width: 0
GlyphClass: 4
Flags: MW
AnchorPoint: "Tonal" -193 266 mark 0
LayerCount: 2
Fore
SplineSet
-180 290 m 0
 -180 278 -185 269 -201 269 c 0
 -211 269 -218 273 -229 276 c 0
 -252 283 -264 289 -285 296 c 0
 -304 301 -313 312 -333 312 c 0
 -356 312 -364 289 -389 289 c 0
 -407 289 -417 299 -429 312 c 0
 -435 317 -442 326 -442 333 c 0
 -442 334 -440 336 -438 338 c 0
 -412 359 -391 368 -356 368 c 0
 -331 368 -320 350 -282 350 c 0
 -273 350 -271 354 -271 361 c 0
 -271 377 -282 401 -282 419 c 0
 -282 433 -275 445 -253 445 c 0
 -245 445 -238 442 -232 433 c 0
 -215 407 -229 375 -201 356 c 1
 -176 380 -134 422 -79 438 c 1
 -62 428 -42 429 -32 410 c 0
 -25 398 -21 387 -21 375 c 0
 -21 366 -25 357 -28 347 c 0
 -31 341 -36 339 -42 339 c 0
 -49 339 -57 342 -63 345 c 0
 -77 350 -76 366 -88 373 c 0
 -97 378 -106 377 -114 371 c 0
 -141 356 -158 348 -178 324 c 0
 -180 320 -181 315 -181 310 c 0
 -181 304 -180 297 -180 290 c 0
EndSplineSet
Validated: 1
Colour: ffff00
EndChar

StartChar: uniEE5A
Encoding: 61018 61018 169
Width: 0
GlyphClass: 4
Flags: MW
AnchorPoint: "Right" -160 422 mark 0
LayerCount: 2
Fore
SplineSet
-128.48046875 475.200195312 m 0
 -100.3203125 475.200195312 -70.4013671875 452.3203125 -70.4013671875 429.440429688 c 0
 -70.4013671875 408.3203125 -89.7607421875 399.520507812 -110.880859375 399.520507812 c 0
 -140.80078125 399.520507812 -168.9609375 424.16015625 -168.9609375 445.280273438 c 0
 -168.9609375 459.360351562 -156.640625 475.200195312 -128.48046875 475.200195312 c 0
EndSplineSet
Validated: 1
Colour: ffff00
EndChar

StartChar: uniEE5B
Encoding: 61019 61019 170
Width: 0
GlyphClass: 4
Flags: MW
AnchorPoint: "Right" -116 218 mark 0
LayerCount: 2
Fore
SplineSet
-56.3203125 156.639648438 m 0
 -70.400390625 156.639648438 -84.48046875 174.239257812 -84.48046875 186.559570312 c 0
 -84.48046875 205.919921875 -63.3603515625 228.799804688 -42.240234375 228.799804688 c 0
 -28.16015625 228.799804688 -17.599609375 214.719726562 -17.599609375 200.639648438 c 0
 -17.599609375 177.759765625 -36.9599609375 156.639648438 -56.3203125 156.639648438 c 0
-168.959960938 281.599609375 m 0
 -168.959960938 297.439453125 -160.16015625 315.0390625 -144.3203125 315.0390625 c 0
 -126.720703125 315.0390625 -105.600585938 290.399414062 -105.600585938 271.0390625 c 0
 -105.600585938 260.479492188 -114.400390625 248.159179688 -128.48046875 248.159179688 c 0
 -142.560546875 248.159179688 -153.120117188 260.479492188 -160.16015625 267.51953125 c 0
 -163.6796875 272.799804688 -168.959960938 276.319335938 -168.959960938 281.599609375 c 0
EndSplineSet
Validated: 1
Colour: ffff00
EndChar

StartChar: uniEE5C
Encoding: 61020 61020 171
Width: 500
GlyphClass: 2
Flags: MW
LayerCount: 2
Fore
SplineSet
37 770 m 1
 464 770 l 1
 464 0 l 1
 37 0 l 1
 37 770 l 1
66 748 m 1
 250 398 l 1
 435 748 l 1
 66 748 l 1
258 383 m 1
 442 34 l 1
 442 733 l 1
 258 383 l 1
435 19 m 1
 250 369 l 1
 66 19 l 1
 435 19 l 1
59 733 m 1
 59 34 l 1
 243 383 l 1
 59 733 l 1
EndSplineSet
Validated: 1
Colour: ffff00
EndChar

StartChar: uniEE5D
Encoding: 61021 61021 172
Width: 500
GlyphClass: 2
Flags: MW
LayerCount: 2
Fore
SplineSet
37 770 m 1
 464 770 l 1
 464 0 l 1
 37 0 l 1
 37 770 l 1
66 748 m 1
 250 398 l 1
 435 748 l 1
 66 748 l 1
258 383 m 1
 442 34 l 1
 442 733 l 1
 258 383 l 1
435 19 m 1
 250 369 l 1
 66 19 l 1
 435 19 l 1
59 733 m 1
 59 34 l 1
 243 383 l 1
 59 733 l 1
EndSplineSet
Validated: 1
Colour: ffff00
EndChar

StartChar: uniEE5E
Encoding: 61022 61022 173
Width: 500
GlyphClass: 2
Flags: MW
LayerCount: 2
Fore
SplineSet
37 770 m 1
 464 770 l 1
 464 0 l 1
 37 0 l 1
 37 770 l 1
66 748 m 1
 250 398 l 1
 435 748 l 1
 66 748 l 1
258 383 m 1
 442 34 l 1
 442 733 l 1
 258 383 l 1
435 19 m 1
 250 369 l 1
 66 19 l 1
 435 19 l 1
59 733 m 1
 59 34 l 1
 243 383 l 1
 59 733 l 1
EndSplineSet
Validated: 1
Colour: ffff00
EndChar

StartChar: uniEE70
Encoding: 61040 61040 174
Width: 1147
GlyphClass: 2
Flags: MW
AnchorPoint: "Tonal" 526 253 basechar 0
AnchorPoint: "Podchashie" 667 53 basechar 0 {} {150-150 6}
AnchorPoint: "Right" 1165 340 basechar 0
LayerCount: 2
Fore
SplineSet
1127 344 m 0
 1127 340.666666667 1127 337.333333333 1127 334 c 0
 1127 305 1114 303 1105 303 c 2
 1085 303 l 2
 1055 303 1045 301 1008 293 c 0
 805 229 554 155 195 30 c 0
 179 27 170 20 152 20 c 0
 107 20 34 136 20 150 c 1
 40 155 61 159 78 159 c 0
 105 159 130 152 144 129 c 0
 152 113 161 92 161 92 c 1
 1020 361 l 1
 1029 365 1057 365 1078 365 c 2
 1096 365 l 2
 1111 365 1127 365 1127 344 c 0
EndSplineSet
Validated: 1
Colour: ffff00
EndChar

StartChar: uniEE71
Encoding: 61041 61041 175
Width: 500
GlyphClass: 2
Flags: MW
LayerCount: 2
Fore
SplineSet
37 770 m 1
 464 770 l 1
 464 0 l 1
 37 0 l 1
 37 770 l 1
66 748 m 1
 250 398 l 1
 435 748 l 1
 66 748 l 1
258 383 m 1
 442 34 l 1
 442 733 l 1
 258 383 l 1
435 19 m 1
 250 369 l 1
 66 19 l 1
 435 19 l 1
59 733 m 1
 59 34 l 1
 243 383 l 1
 59 733 l 1
EndSplineSet
Validated: 1
Colour: ffff00
EndChar

StartChar: uniEE72
Encoding: 61042 61042 176
Width: 711
GlyphClass: 2
Flags: MW
LayerCount: 2
Fore
SplineSet
121 492 m 2
 174 492 l 1
 174 492 186 481 186 471 c 0
 186 451 203 450 218 450 c 2
 225 450 l 2
 262 450 254 464 286 464 c 0
 307 467 327 469 346 469 c 0
 362 469 378 467 394 464 c 1
 172 159 l 1
 172 126 l 1
 174 126 l 2
 182 126 249 157 300 180 c 1
 408 207 483 228 575 254 c 1
 609.666666667 254 644.333333333 254 679 254 c 0
 688 254 691 243 691 230 c 2
 691 217 l 2
 691 209 691 198 689 187 c 0
 689 170 663 166 631 166 c 2
 545 166 l 1
 455 147 272 108 182 82 c 0
 161 77 100 22 56 22 c 0
 42 22 20 24 20 48 c 0
 20 59 31 92 50 117 c 0
 117 226 156 288 207 377 c 1
 144 386 133 429 100 473 c 0
 98 474 98 475 98 477 c 0
 98 484 112 492 121 492 c 2
EndSplineSet
Validated: 1
Colour: ffff00
EndChar

StartChar: uniEE73
Encoding: 61043 61043 177
Width: 975
GlyphClass: 2
Flags: MW
LayerCount: 2
Fore
SplineSet
474 226 m 1
 490 194 513 147 527 127 c 1
 598 148 777 185 879 185 c 0
 925 185 955 178 955 161 c 2
 955 155 l 2
 955 130 942 122 925 122 c 0
 897 122 858 143 858 143 c 1
 751 143 378 22 161 22 c 0
 77 22 20 41 20 96 c 0
 20 166 68 206 119 206 c 0
 131 206 135 201 135 192 c 0
 135 173 121 141 121 113 c 0
 121 87 135 64 189 64 c 0
 210 64 237 66 269 71 c 1
 230 154 l 1
 272 171 276 170 309 184 c 1
 328 161 334 138 362 90 c 1
 388 96 416 103 446 110 c 1
 432 138 l 2
 420 161 416 183 409 206 c 1
 474 226 l 1
EndSplineSet
Validated: 1
Colour: ffff00
EndChar

StartChar: uniEE74
Encoding: 61044 61044 178
Width: 1148
GlyphClass: 2
Flags: MW
AnchorPoint: "Tonal" 601 300 basechar 0
AnchorPoint: "Podchashie" 351 -14 basechar 0
AnchorPoint: "Right" 1174 339 basechar 0
LayerCount: 2
Fore
SplineSet
1127 343 m 4
 1127 339.666666667 1127 336.333333333 1127 333 c 4
 1127 304 1114 302 1105 302 c 6
 1085 302 l 6
 1055 302 1045 300 1008 292 c 4
 867 248 703 198 496 131 c 5
 533 117 l 6
 540 114 543 107 543 100 c 4
 543 89 538 80 526 80 c 4
 522 80 520 80 517 82 c 6
 478 96 l 5
 492 61 l 6
 494 57 494 54 494 49 c 4
 494 31 476 19 460 19 c 4
 448 19 438 26 430 40 c 5
 408 101 l 5
 341 80 270 56 195 29 c 4
 179 26 170 19 152 19 c 4
 107 19 34 135 20 149 c 5
 40 154 61 158 78 158 c 4
 105 158 130 151 144 128 c 4
 152 112 161 91 161 91 c 5
 339 147 l 5
 309 158 l 6
 302 160 300 167 300 174 c 4
 300 184 307 195 318 195 c 6
 323 195 l 5
 381 172 l 5
 364 221 l 6
 362 226 360 232 360 235 c 4
 360 256 376 267 392 267 c 4
 402 267 415 260 420 248 c 4
 429 225 438 202 446 181 c 5
 1020 360 l 5
 1029 364 1057 364 1078 364 c 6
 1096 364 l 6
 1111 364 1127 364 1127 343 c 4
EndSplineSet
Validated: 1
Colour: ffff00
EndChar

StartChar: uniEE75
Encoding: 61045 61045 179
Width: 305
GlyphClass: 2
Flags: MW
LayerCount: 2
Fore
SplineSet
131 90 m 1
 177 101 200 120 249 120 c 0
 269 120 284 113 284 85 c 0
 284 60 181 22 112 22 c 0
 84 22 63 29 56 45 c 0
 42 83 26 126 20 170 c 1
 49 187 77 192 89 192 c 0
 122 192 115 152 131 90 c 1
EndSplineSet
Validated: 1
Colour: ffff00
EndChar

StartChar: uniEE76
Encoding: 61046 61046 180
Width: 527
GlyphClass: 3
Flags: MW
LayerCount: 2
Fore
SplineSet
436 379 m 0
 473 379 506 353 506 331 c 0
 506 302 485 277 455 277 c 0
 422 277 394 302 394 333 c 0
 394 358 408 379 436 379 c 0
249 291 m 0
 286 291 320 265 320 243 c 0
 320 214 298 189 269 189 c 0
 235 189 207 214 207 245 c 0
 207 270 221 291 249 291 c 0
131 89 m 1
 177 101 200 119 249 119 c 0
 269 119 284 113 284 85 c 0
 284 60 181 22 112 22 c 0
 84 22 61 29 56 45 c 0
 42 82 26 126 20 170 c 1
 49 187 75 191 89 191 c 0
 121 191 115 150 131 89 c 1
EndSplineSet
Validated: 1
Ligature2: "'ccmp' Znamenny Ligatures 0-1" uniEE75 uniEE51
Colour: ffff00
EndChar

StartChar: uniEE77
Encoding: 61047 61047 181
Width: 507
GlyphClass: 2
Flags: MW
AnchorPoint: "Tonal" 208 273 basechar 0
AnchorPoint: "Podchashie" 298 -17 basechar 0
AnchorPoint: "Right" 558 169 basechar 0
LayerCount: 2
Fore
SplineSet
397 50 m 0
 376 50 357 60 351 89 c 1
 351 93 l 2
 351 104 363 105 378 120 c 0
 380 123 381 126 381 129 c 0
 381 138 371 148 360 148 c 0
 358 147 346 139 335 139 c 0
 332 139 330 139 328 140 c 0
 306 147 298 163 279 178 c 1
 279 180 l 2
 279 203 316 212 351 212 c 0
 422 212 487 170 487 115 c 0
 487 78 432 50 397 50 c 0
131 90 m 1
 177 101 200 120 249 120 c 0
 269 120 284 113 284 85 c 0
 284 60 181 22 112 22 c 0
 84 22 63 29 56 45 c 0
 42 83 26 126 20 170 c 1
 49 187 77 192 89 192 c 0
 122 192 115 152 131 90 c 1
EndSplineSet
Validated: 1
Colour: ffff00
EndChar

StartChar: uniEE78
Encoding: 61048 61048 182
Width: 426
GlyphClass: 2
Flags: MW
LayerCount: 2
Fore
SplineSet
20 403 m 0
 20 426 45 441 71 441 c 0
 78 441 86 440 93 433 c 0
 209 285 272 204 406 74 c 0
 409 68 411 63 411 58 c 0
 411 42 397 24 379 21 c 0
 334 22 332 33 311 54 c 0
 202 149 145 232 43 359 c 0
 31 373 20 383 20 403 c 0
EndSplineSet
Validated: 1
Colour: ffff00
EndChar

StartChar: uniEE79
Encoding: 61049 61049 183
Width: 484
GlyphClass: 3
Flags: MW
LayerCount: 2
Fore
SplineSet
402 294 m 0
 434 294 464 276 464 248 c 0
 464 218 429 200 399 200 c 0
 367 200 341 225 341 251 c 0
 341 274 365 294 402 294 c 0
242 396 m 0
 242 413 263 429 293 429 c 0
 325 429 358 411 358 383 c 0
 358 360 334 346 306 346 c 0
 276 346 242 367 242 396 c 0
20 403 m 0
 20 426 45 441 71 441 c 0
 78 441 86 440 93 433 c 0
 209 285 272 204 406 74 c 0
 409 68 411 63 411 58 c 0
 411 42 397 24 379 21 c 0
 334 22 332 33 311 54 c 0
 202 149 145 232 43 359 c 0
 31 373 20 383 20 403 c 0
EndSplineSet
Validated: 1
Ligature2: "'ccmp' Znamenny Ligatures 0-1" uniEE78 uniEE5B
Colour: ffff00
EndChar

StartChar: uniEE7A
Encoding: 61050 61050 184
Width: 249
GlyphClass: 2
Flags: MW
LayerCount: 2
Fore
SplineSet
138 22 m 0
 118 22 92 34 92 65 c 0
 92 76 105 78 119 92 c 0
 122 95 123 98 123 101 c 0
 123 110 112 120 102 120 c 0
 100 119 87 110 76 110 c 0
 74 110 72 110 70 111 c 0
 47 119 40 134 20 150 c 1
 20 152 l 2
 20 175 57 184 93 184 c 0
 163 184 228 141 228 87 c 0
 228 50 174 22 138 22 c 0
EndSplineSet
Validated: 1
Colour: ffff00
EndChar

StartChar: uniEE7B
Encoding: 61051 61051 185
Width: 604
GlyphClass: 2
Flags: MW
LayerCount: 2
Fore
SplineSet
138 21 m 0
 118 21 92 33 92 64 c 0
 92 75 105 77 117 91 c 0
 121 95 122 98 122 101 c 0
 122 109 111 120 102 120 c 0
 99 119 85 109 73 109 c 0
 71 109 70 109 68 110 c 0
 45 119 40 135 20 151 c 1
 20 153 l 2
 20 174 57 183 93 183 c 0
 163 183 228 140 228 86 c 0
 228 49 174 21 138 21 c 0
308 54 m 0
 292 54 281 64 281 81 c 0
 281 93 290 102 302 109 c 0
 334 125 360 137 386 149 c 1
 339 214 l 2
 337 216 337 220 337 221 c 0
 337 237 360 251 378 251 c 0
 386 251 394 250 399 242 c 2
 448 174 l 1
 466 181 522 206 552 206 c 0
 570 206 584 184 584 170 c 0
 584 167 582 163 577 162 c 0
 547 154 515 142 480 130 c 1
 522 70 l 2
 524 66 526 63 526 61 c 0
 526 45 504 31 487 31 c 0
 478 31 469 35 464 42 c 2
 420 103 l 1
 397 93 376 82 351 70 c 0
 340 65 326 54 308 54 c 0
EndSplineSet
Validated: 1
Colour: ffff00
EndChar

StartChar: uniEE7C
Encoding: 61052 61052 186
Width: 468
GlyphClass: 2
Flags: MW
LayerCount: 2
Fore
SplineSet
447 57 m 0
 447 22 412 11 384 11 c 0
 349 11 324 39 324 64 c 0
 324 87 345 105 382 105 c 0
 412 105 447 82 447 57 c 0
293 256 m 0
 326 256 361 230 361 203 c 0
 361 178 338 168 315 168 c 0
 280 168 247 196 247 222 c 0
 247 238 263 256 293 256 c 0
137 22 m 0
 117 22 91 35 91 66 c 0
 91 77 104 79 116 92 c 0
 120 96 121 100 121 103 c 0
 121 110 111 122 101 122 c 0
 99 121 85 111 73 111 c 0
 71 111 69 111 67 112 c 0
 44 121 39 136 19 152 c 1
 19 154 l 2
 19 175 56 184 92 184 c 0
 162 184 227 142 227 87 c 0
 227 50 173 22 137 22 c 0
EndSplineSet
Validated: 1
Colour: ffff00
EndChar

StartChar: uniEE7D
Encoding: 61053 61053 187
Width: 396
GlyphClass: 2
Flags: MW
LayerCount: 2
Fore
SplineSet
307 215 m 0
 340 215 375 189 375 162 c 0
 375 137 352 127 329 127 c 0
 294 127 261 155 261 181 c 0
 261 197 277 215 307 215 c 0
122 102 m 0
 122 109 112 121 102 121 c 0
 92 121 83 110 73 110 c 0
 72 110 70 110 68 111 c 0
 45 120 40 135 20 151 c 1
 20 153 l 2
 20 174 57 183 93 183 c 0
 163 183 228 141 228 86 c 0
 228 49 174 21 138 21 c 0
 118 21 92 34 92 65 c 0
 92 76 105 78 117 91 c 0
 121 95 122 99 122 102 c 0
EndSplineSet
Validated: 1
Colour: ffff00
EndChar

StartChar: uniEE7E
Encoding: 61054 61054 188
Width: 797
GlyphClass: 2
Flags: MW
AnchorPoint: "Tonal" 233 369 basechar 0
AnchorPoint: "Podchashie" 374 21 basechar 0
AnchorPoint: "Right" 734 285 basechar 0
LayerCount: 2
Fore
SplineSet
454 368 m 0
 451 374 449 379 449 384 c 0
 449 404 477 421 500 421 c 0
 511 421 519 418 526 407 c 0
 634 282 679 226 771 75 c 0
 775 69 776 64 776 59 c 0
 776 39 752 22 729 22 c 0
 718 22 706 25 699 36 c 0
 540 272 514 302 454 368 c 0
353 189 m 0
 336 189 316 200 316 224 c 0
 316 233 326 234 337 247 c 0
 339 249 340 252 340 254 c 0
 340 262 331 269 323 269 c 0
 315 269 308 261 300 261 c 2
 297 261 l 1
 277 268 272 280 258 295 c 1
 258 296 l 2
 258 314 286 321 316 321 c 0
 372 321 422 286 425 242 c 0
 425 212 381 189 353 189 c 0
122 202 m 0
 122 209 112 221 102 221 c 0
 92 221 83 210 73 210 c 0
 71 210 70 210 68 211 c 0
 45 220 40 235 21 251 c 1
 21 253 l 2
 21 274 58 283 93 283 c 0
 163 283 223 241 228 186 c 0
 228 149 174 121 139 121 c 0
 118 121 92 134 92 165 c 0
 92 176 105 178 117 191 c 0
 121 195 122 199 122 202 c 0
EndSplineSet
Validated: 1
Colour: ffff00
EndChar

StartChar: uniEE7F
Encoding: 61055 61055 189
Width: 805
GlyphClass: 2
Flags: MW
AnchorPoint: "Tonal" 206 270 basechar 0
AnchorPoint: "Podchashie" 398 0 basechar 0
AnchorPoint: "Right" 819 360 basechar 0
LayerCount: 2
Fore
SplineSet
744 309 m 0
 767 309 785 293 785 265 c 0
 785 224 785 203 755 172 c 0
 722 135 685 126 634 126 c 0
 553 126 507 156 466 200 c 0
 445 224 428 249 428 274 c 0
 428 291 449 304 468 304 c 0
 475 304 482 302 488 298 c 0
 521 277 523 247 554 223 c 0
 579 205 598 193 628 193 c 0
 655 193 672 200 688 219 c 0
 708 244 695 270 711 297 c 0
 718 309 730 309 744 309 c 0
326 89 m 0
 308.149655812 89 288 100.340405065 288 125 c 0
 288 133 300 135 310 147 c 0
 319 156 308 165 299 168 c 0
 297.73275999 168.506896004 296.481578953 168.724730504 295.240351717 168.724730504 c 0
 287.648227877 168.724730504 280.428506817 160.574861333 272.184068108 160.574861333 c 0
 271.140088738 160.574861333 270.079678296 160.705542283 269 161 c 0
 250 168 245 181 231 195 c 1
 231 196 l 2
 231 214 259 221 289 221 c 0
 345 221 394 186 398 142 c 0
 398 112 354 89 326 89 c 0
138 21 m 0
 117 21 98 32 93 60 c 0
 93 62 92 64 92 65 c 0
 92 76 105 78 117 92 c 0
 120.903758136 95.6034690486 122.463004336 99.0265910253 122.463004336 102.215209672 c 0
 122.463004336 109.645087604 113.997109126 115.801734524 107 120 c 0
 105 121 104 121 102 121 c 0
 92 121 83 110 73 110 c 0
 71 110 70 110 68 111 c 0
 45 120 40 136 20 151 c 1
 20 153 l 2
 20 174 57 183 93 183 c 0
 163 183 223 141 228 86 c 0
 228 49 174 21 138 21 c 0
EndSplineSet
Validated: 1
Colour: ffff00
EndChar

StartChar: uniEE80
Encoding: 61056 61056 190
Width: 398
GlyphClass: 2
Flags: MW
LayerCount: 2
Fore
SplineSet
337 205 m 0
 360 205 378 187 378 161 c 0
 378 120 376 99 348 67 c 0
 314 31 277 22 226 22 c 0
 145 22 100 52 59 96 c 0
 36 120 20 143 20 170 c 0
 20 187 42 199 61 199 c 0
 68 199 75 198 80 194 c 0
 114 173 115 141 147 119 c 0
 172 99 189 89 221 89 c 0
 246 89 265 96 281 115 c 0
 300 140 286 166 304 192 c 0
 311 205 323 205 337 205 c 0
EndSplineSet
Validated: 1
Colour: ffff00
EndChar

StartChar: uniEE81
Encoding: 61057 61057 191
Width: 398
GlyphClass: 2
Flags: MW
LayerCount: 2
Fore
SplineSet
226 288 m 0
 226 268 200 256 181 256 c 0
 149 256 122 286 122 311 c 0
 122 330 144 341 165 341 c 0
 195 341 226 319 226 288 c 0
337 205 m 0
 360 205 378 187 378 161 c 0
 378 121 376 99 348 68 c 0
 314 31 277 22 226 22 c 0
 145 22 100 52 59 96 c 0
 36 121 20 143 20 170 c 0
 20 187 42 200 61 200 c 0
 68 200 75 198 80 194 c 0
 114 173 115 142 147 119 c 0
 172 99 189 89 221 89 c 0
 246 89 265 96 281 115 c 0
 300 140 286 166 304 193 c 0
 311 205 323 205 337 205 c 0
EndSplineSet
Validated: 1
Colour: ffff00
EndChar

StartChar: uniEE82
Encoding: 61058 61058 192
Width: 636
GlyphClass: 2
Flags: MW
AnchorPoint: "Tonal" 291 281 basechar 0
AnchorPoint: "Podchashie" 312 -21 basechar 0
AnchorPoint: "Right" 638 268 basechar 0
LayerCount: 2
Fore
SplineSet
379 109 m 0
 379 60.3134318463 335.073175586 21 298 21 c 0
 274 21 262 40 262 63 c 0
 262 86 274 107 295 107 c 0
 313 107 307 100 313 84 c 0
 316 75 327 79 332 84 c 0
 337 91 330 100 335 107 c 0
 346 118 357 118 371 125 c 1
 377 122 379 116 379 109 c 0
587 278 m 0
 605 278 615 265 615 260 c 0
 615 253 610 246 601 239 c 1
 394 186 443 198 290 156 c 0
 205 132 133 110 50 91 c 1
 45 91 l 2
 33 91 20 100 20 112 c 0
 20 119 34 132 42 133 c 0
 135 165 235 191 281 206 c 0
 304 213 518 278 587 278 c 0
EndSplineSet
Validated: 1
Colour: ffff00
EndChar

StartChar: uniEE83
Encoding: 61059 61059 193
Width: 636
GlyphClass: 2
Flags: MW
AnchorPoint: "Tonal" 263 241 basechar 0
AnchorPoint: "Podchashie" 342 -17 basechar 0
AnchorPoint: "Right" 645 270 basechar 0
LayerCount: 2
Fore
SplineSet
274 67 m 0
 274 90 293 97 314 97 c 0
 344 97 365 87 365 55 c 0
 365 29 344 22 323 22 c 0
 295 22 274 36 274 67 c 0
587 275 m 0
 605 275 615 263 615 258 c 0
 615 251 610 243 601 236 c 1
 394 184 443 196 290 154 c 0
 205 129 133 108 50 89 c 1
 45 89 l 2
 33 89 20 97 20 110 c 0
 20 117 34 129 42 131 c 0
 135 163 235 189 281 203 c 0
 304 210 518 275 587 275 c 0
EndSplineSet
Validated: 1
Colour: ffff00
EndChar

StartChar: uniEE84
Encoding: 61060 61060 194
Width: 636
GlyphClass: 2
Flags: MW
AnchorPoint: "Tonal" 238 272 basechar 0
AnchorPoint: "Podchashie" 316 8 basechar 0 {} {150-150 -2}
AnchorPoint: "Right" 664 302 basechar 0
LayerCount: 2
Fore
SplineSet
341 107 m 0
 341 130 360 137 379 137 c 0
 409 137 432 126 432 95 c 0
 432 68 409 61 390 61 c 0
 360 61 341 75 341 107 c 0
253 59 m 0
 253 31 225 21 198 21 c 0
 188 21 165 21 152 40 c 1
 152 46 l 2
 152 55 153 69 158 72 c 0
 177 82 198 95 219 95 c 0
 235 95 253 84 253 59 c 0
587 306 m 0
 605 306 615 294 615 288 c 0
 615 281 610 274 601 267 c 1
 394 214 443 227 290 184 c 0
 205 160 133 139 50 119 c 1
 45 119 l 2
 33 119 20 128 20 140 c 0
 20 147 34 160 42 162 c 0
 135 193 235 220 281 234 c 0
 304 241 518 306 587 306 c 0
EndSplineSet
Validated: 1
Colour: ffff00
EndChar

StartChar: uniEE85
Encoding: 61061 61061 195
Width: 636
GlyphClass: 2
Flags: MW
AnchorPoint: "Tonal" 296 298 basechar 0
AnchorPoint: "Podchashie" 404 -13 basechar 0
AnchorPoint: "Right" 640 306 basechar 0
LayerCount: 2
Fore
SplineSet
575 148 m 0
 575 120 548 110 520 110 c 0
 510 110 487 110 474 129 c 1
 474 133 l 2
 474 141 475 156 482 161 c 0
 499 170 522 184 541 184 c 0
 559 184 575 171 575 148 c 0
314 108 m 0
 314 131 334 138 353 138 c 0
 383 138 406 127 406 96 c 0
 406 69 383 62 364 62 c 0
 334 62 314 76 314 108 c 0
226 60 m 0
 226 32 198 22 172 22 c 0
 161 22 138 22 126 41 c 1
 126 53 l 2
 126 61 127 70 131 73 c 0
 151 83 172 96 193 96 c 0
 209 96 226 85 226 60 c 0
587 310 m 0
 605 310 615 298 615 293 c 0
 615 286 610 279 601 272 c 1
 394 219 443 231 290 189 c 0
 205 164 133 143 50 124 c 1
 45 124 l 2
 33 124 20 133 20 145 c 0
 20 152 34 164 42 166 c 0
 135 198 235 224 281 238 c 0
 304 245 518 310 587 310 c 0
EndSplineSet
Validated: 1
Colour: ffff00
EndChar

StartChar: uniEE86
Encoding: 61062 61062 196
Width: 738
GlyphClass: 2
Flags: MW
AnchorPoint: "Tonal" 352 277 basechar 0
AnchorPoint: "Podchashie" 419 22 basechar 0
AnchorPoint: "Right" 775 306 basechar 0
LayerCount: 2
Fore
SplineSet
167.959960938 170.559570312 m 1
 254.200195312 196.959960938 340.442382812 223.360351562 382.682617188 235.680664062 c 0
 405.5625 242.720703125 620.282226562 307.840820312 688.921875 307.840820312 c 0
 706.521484375 307.840820312 717.081054688 295.520507812 717.081054688 290.240234375 c 0
 717.081054688 283.200195312 711.80078125 276.16015625 703.000976562 269.120117188 c 1
 495.321289062 216.3203125 544.6015625 228.640625 391.481445312 186.400390625 c 0
 298.201171875 160 234.840820312 140.639648438 152.12109375 121.279296875 c 1
 79.9609375 121.279296875 34.201171875 239.19921875 20.12109375 253.279296875 c 1
 41.2412109375 258.559570312 62.361328125 262.079101562 79.9609375 262.079101562 c 0
 104.600585938 262.079101562 129.240234375 255.0390625 143.3203125 232.159179688 c 0
 153.879882812 216.319335938 159.16015625 195.19921875 167.959960938 170.559570312 c 1
442.521484375 108.959960938 m 0
 442.521484375 131.83984375 461.881835938 138.879882812 481.2421875 138.879882812 c 0
 511.162109375 138.879882812 534.041992188 128.3203125 534.041992188 96.6396484375 c 0
 534.041992188 70.240234375 511.162109375 63.2001953125 491.801757812 63.2001953125 c 0
 461.881835938 63.2001953125 442.521484375 77.2802734375 442.521484375 108.959960938 c 0
354.521484375 61.4404296875 m 0
 354.521484375 33.2802734375 326.361328125 22.7197265625 299.9609375 22.7197265625 c 0
 289.401367188 22.7197265625 266.521484375 22.7197265625 254.201171875 42.080078125 c 1
 254.201171875 52.6396484375 l 2
 254.201171875 61.4404296875 254.201171875 72 259.481445312 73.759765625 c 0
 278.841796875 84.3203125 299.961914062 96.6396484375 321.08203125 96.6396484375 c 0
 336.921875 96.6396484375 354.521484375 86.080078125 354.521484375 61.4404296875 c 0
EndSplineSet
Validated: 1
Colour: ffff00
EndChar

StartChar: uniEE87
Encoding: 61063 61063 197
Width: 417
GlyphClass: 2
Flags: MW
AnchorPoint: "Tonal" 136 331 basechar 0
AnchorPoint: "Podchashie" 302 -15 basechar 0
AnchorPoint: "Right" 372 211 basechar 0
LayerCount: 2
Fore
SplineSet
184 245 m 0
 184 265 209 270 226 270 c 0
 242 270 251 265 262 252 c 0
 276 238 397 124 397 71 c 0
 397 53 386 48 374 48 c 0
 358 48 341 55 332 64 c 0
 272 115 246 154 198 217 c 0
 191 226 184 235 184 245 c 0
20 240 m 0
 20 258 43 265 57 265 c 0
 84 265 93 259 105 243 c 0
 119 224 233 101 233 46 c 0
 233 31 219 22 203 22 c 0
 188 22 174 31 161 43 c 0
 101 101 78 143 33 212 c 0
 27 222 20 231 20 240 c 0
EndSplineSet
Validated: 1
Colour: ffff00
EndChar

StartChar: uniEE88
Encoding: 61064 61064 198
Width: 615
GlyphClass: 2
Flags: MW
AnchorPoint: "Tonal" 136 329 basechar 0
AnchorPoint: "Podchashie" 302 -17 basechar 0
AnchorPoint: "Right" 614 211 basechar 0
LayerCount: 2
Fore
SplineSet
504 80 m 0
 483 80 464 90 459 119 c 0
 459 121 458 122 458 124 c 0
 458 134 471 136 485 150 c 0
 488 153 489 156 489 159 c 0
 489 168 478 178 468 178 c 0
 466 177 454 169 443 169 c 0
 440 169 438 169 436 170 c 0
 413 177 406 192 386 208 c 1
 386 210 l 2
 386 233 423 242 459 242 c 0
 529 242 594 199 594 145 c 0
 594 106 540 80 504 80 c 0
184 245 m 0
 184 265 209 270 226 270 c 0
 242 270 251 265 262 252 c 0
 276 238 397 124 397 71 c 0
 397 53 386 48 374 48 c 0
 358 48 341 55 332 64 c 0
 272 115 246 154 198 217 c 0
 191 226 184 235 184 245 c 0
20 240 m 0
 20 258 43 265 57 265 c 0
 84 265 93 259 105 243 c 0
 119 224 233 101 233 46 c 0
 233 31 219 22 203 22 c 0
 188 22 174 31 161 43 c 0
 101 101 78 143 33 212 c 0
 27 222 20 231 20 240 c 0
EndSplineSet
Validated: 1
Colour: ffff00
EndChar

StartChar: uniEE89
Encoding: 61065 61065 199
Width: 358
GlyphClass: 2
Flags: MW
LayerCount: 2
Fore
SplineSet
144 84 m 1
 103 73 53 57 47 57 c 0
 34 57 20 70 20 84 c 0
 20 91 22 97 22 104 c 1
 56 121 78 121 114 135 c 1
 114 156 108 169 108 185 c 0
 108 215 122 250 158 250 c 0
 165 250 174 248 182 246 c 0
 202 241 191 193 202 158 c 1
 230 165 263 183 293 183 c 0
 307 183 337 165 337 151 c 0
 337 118 223 95 223 95 c 1
 225 81 233 61 233 46 c 0
 233 24 216 21 193 21 c 0
 154 21 163 60 144 84 c 1
EndSplineSet
Validated: 1
Colour: ffff00
EndChar

StartChar: uniEE8A
Encoding: 61066 61066 200
Width: 310
GlyphClass: 2
Flags: MW
LayerCount: 2
Fore
SplineSet
87 325 m 0
 87 310 67 302 57 302 c 0
 36 302 20 323 20 346 c 0
 20 408 78 443 135 443 c 0
 189 443 232 392 232 334 c 0
 232 318 228 302 223 283 c 0
 207 223 145 206 145 144 c 0
 145 103 161 89 182 89 c 0
 253 89 203 162 262 162 c 0
 286 162 290 135 290 109 c 2
 290 89 l 2
 290 52 235 21 177 21 c 0
 151 21 114 22 89 51 c 0
 70 74 70 75 70 119 c 0
 70 163 82 181 100 220 c 0
 114 253 154 279 154 327 c 0
 154 350 140 360 122 360 c 0
 110 360 86 351 86 335 c 0
 86 332 87 328 87 325 c 0
EndSplineSet
Validated: 1
Colour: ffff00
EndChar

StartChar: uniEE8B
Encoding: 61067 61067 201
Width: 389
GlyphClass: 2
Flags: MW
LayerCount: 2
Fore
SplineSet
369 255 m 0
 369 221 321 221 295 216 c 1
 297 193 300 169 300 146 c 0
 300 77 279 21 196 21 c 0
 168 21 142 22 130 44 c 0
 112 72 110 96 110 126 c 2
 110 184 l 1
 91 181 70 177 47 174 c 0
 44 173 42 173 40 173 c 0
 29 173 20 181 20 197 c 0
 20 213 31 227 45 228 c 0
 68 234 91 237 110 241 c 1
 112 279 115 316 133 350 c 0
 147 378 182 385 218 385 c 0
 274 385 281 322 286 276 c 1
 302 278 320 285 339 285 c 0
 355 285 369 274 369 255 c 0
175 133 m 2
 175 116 l 2
 175 89 188 89 193 75 c 1
 209 75 226 84 228 95 c 0
 232 112 232 147 232 172 c 2
 232 206 l 1
 214 202 196 198 177 195 c 1
 177 177 175 156 175 133 c 2
232 265 m 1
 230 299 226 316 212 316 c 0
 188 313 181 299 181 285 c 0
 181 276 179 265 179 255 c 1
 196 258 214 262 232 265 c 1
EndSplineSet
Validated: 1
Colour: ffff00
EndChar

StartChar: uniEE8C
Encoding: 61068 61068 202
Width: 750
GlyphClass: 2
Flags: MW
LayerCount: 2
Fore
SplineSet
34.0400390625 232 m 0
 21.7197265625 232 19.958984375 237.278320312 19.958984375 240.797851562 c 0
 19.958984375 253.118164062 23.4794921875 260.158203125 32.279296875 265.438476562 c 0
 65.71875 293.598632812 107.958984375 319.999023438 166.0390625 319.999023438 c 2
 187.159179688 319.999023438 l 2
 290.999023438 319.999023438 354.359375 240.798828125 403.639648438 210.87890625 c 0
 461.719726562 173.918945312 507.479492188 166.87890625 576.119140625 166.87890625 c 2
 583.159179688 166.87890625 l 2
 625.399414062 166.87890625 650.0390625 196.798828125 697.55859375 196.798828125 c 0
 715.158203125 196.798828125 729.23828125 189.758789062 729.23828125 172.159179688 c 0
 729.23828125 147.51953125 706.358398438 138.719726562 685.23828125 129.919921875 c 0
 655.318359375 117.599609375 620.118164062 110.559570312 581.3984375 110.559570312 c 0
 563.798828125 110.559570312 509.239257812 115.83984375 491.639648438 119.359375 c 0
 414.19921875 135.19921875 398.359375 149.279296875 364.918945312 166.87890625 c 0
 327.958984375 186.239257812 306.838867188 200.319335938 269.87890625 223.19921875 c 0
 250.518554688 235.51953125 241.71875 244.319335938 220.598632812 253.119140625 c 0
 190.678710938 261.918945312 158.999023438 267.19921875 134.359375 267.19921875 c 0
 116.759765625 267.19921875 86.83984375 258.399414062 63.9599609375 244.319335938 c 0
 53.400390625 237.279296875 46.3603515625 233.759765625 34.0400390625 232 c 0
699.319335938 316.478515625 m 0
 699.319335938 279.518554688 634.198242188 260.158203125 598.998046875 260.158203125 c 0
 546.198242188 260.158203125 512.7578125 267.198242188 468.7578125 291.837890625 c 0
 403.637695312 330.557617188 356.118164062 369.27734375 306.837890625 397.4375 c 0
 268.118164062 418.557617188 250.518554688 427.357421875 213.55859375 427.357421875 c 0
 194.198242188 427.357421875 173.078125 427.357421875 153.717773438 422.077148438 c 0
 132.59765625 418.557617188 123.797851562 415.038085938 102.677734375 415.038085938 c 0
 83.318359375 415.038085938 65.7177734375 418.557617188 65.7177734375 437.91796875 c 0
 65.7177734375 448.477539062 74.517578125 457.27734375 83.318359375 462.557617188 c 0
 116.7578125 481.91796875 143.158203125 490.717773438 180.118164062 490.717773438 c 0
 250.518554688 490.717773438 292.758789062 476.637695312 350.838867188 446.717773438 c 0
 431.798828125 406.237304688 502.19921875 332.317382812 563.798828125 316.477539062 c 0
 569.079101562 312.958007812 588.439453125 312.958007812 593.719726562 312.958007812 c 0
 625.399414062 312.958007812 637.719726562 339.358398438 674.6796875 339.358398438 c 0
 688.759765625 339.358398438 699.319335938 328.798828125 699.319335938 316.478515625 c 0
EndSplineSet
Validated: 1
Colour: ffff00
EndChar

StartChar: uniEE8D
Encoding: 61069 61069 203
Width: 261
GlyphClass: 2
Flags: MW
LayerCount: 2
Fore
SplineSet
144 -199 m 0
 119 -199 100 -191 100 -170 c 2
 101 93 l 2
 101 124 103 142 103 175 c 0
 103 221 112 246 117 292 c 1
 71 295 20 313 20 358 c 0
 20 420 96 427 131 506 c 1
 86 533 36 543 36 596 c 0
 36 654 98 686 126 718 c 1
 126 709 128 705 128 696 c 0
 128 686 144 682 144 672 c 0
 144 640 130 624 130 593 c 0
 130 575 152 568 170 568 c 0
 200 568 240 566 240 536 c 0
 240 459 133 448 133 371 c 0
 133 330 212 341 212 300 c 0
 212 251 189 226 189 179 c 2
 189 93 l 1
 188 -170 l 2
 188 -184 174 -199 144 -199 c 0
EndSplineSet
Validated: 1
Colour: ffff00
EndChar

StartChar: uniEE8E
Encoding: 61070 61070 204
Width: 696
GlyphClass: 2
Flags: MW
LayerCount: 2
Fore
SplineSet
579 -199 m 0
 554 -199 537 -190 537 -169 c 2
 537 93 l 2
 537 125 538 142 538 176 c 0
 538 221 547 246 552 292 c 1
 508 295 456 313 456 359 c 0
 456 420 531 427 567 507 c 1
 521 533 473 544 473 596 c 0
 473 654 533 686 561 718 c 1
 563 709 565 705 565 697 c 0
 565 686 579 683 579 672 c 0
 579 640 565 624 565 593 c 0
 565 575 588 568 607 568 c 0
 635 568 676 566 676 536 c 0
 676 459 568 448 568 371 c 0
 568 331 647 341 647 301 c 0
 647 251 625 227 625 179 c 2
 625 -169 l 2
 625 -183 609 -199 579 -199 c 0
157 94 m 0
 138 94 121 112 121 133 c 0
 121 142 125 150 134 153 c 0
 241 195 255 202 348 239 c 0
 352 241 356 241 360 241 c 0
 378 241 391 225 391 206 c 0
 391 195 386 186 376 181 c 0
 288 146 251 128 167 96 c 0
 164 95 160 94 157 94 c 0
52 225 m 0
 33 225 18 241 18 263 c 0
 18 272 21 280 28 283 c 0
 137 325 151 332 244 369 c 0
 248 371 252 372 256 372 c 0
 272 372 287 356 287 337 c 0
 287 326 282 316 271 311 c 0
 185 276 148 258 63 227 c 0
 59 225 55 225 52 225 c 0
EndSplineSet
Validated: 1
Colour: ffff00
EndChar

StartChar: uniEE8F
Encoding: 61071 61071 205
Width: 407
GlyphClass: 2
Flags: MW
AnchorPoint: "Tonal" 349 286 basechar 0
AnchorPoint: "Podchashie" 299 -14 basechar 0
AnchorPoint: "Right" 407 239 basechar 0
LayerCount: 2
Fore
SplineSet
157 22 m 0
 138 22 121 40 121 61 c 0
 121 70 125 78 134 81 c 0
 241 123 255 130 348 167 c 0
 352 169 356 169 360 169 c 0
 378 169 391 153 391 134 c 0
 391 123 386 114 376 109 c 0
 288 74 251 56 167 24 c 0
 164 23 160 22 157 22 c 0
52 153 m 0
 33 153 18 169 18 191 c 0
 18 200 21 208 28 211 c 0
 137 253 151 260 244 297 c 0
 248 299 252 300 256 300 c 0
 272 300 287 284 287 265 c 0
 287 254 282 244 271 239 c 0
 185 204 148 186 63 155 c 0
 59 153 55 153 52 153 c 0
EndSplineSet
Validated: 1
Colour: ffff00
EndChar

StartChar: uniEE90
Encoding: 61072 61072 206
Width: 659
GlyphClass: 2
Flags: MW
AnchorPoint: "Tonal" 384 328 basechar 0
AnchorPoint: "Podchashie" 299 -18 basechar 0
AnchorPoint: "Right" 659 214 basechar 0
LayerCount: 2
Fore
SplineSet
534 146 m 0
 534 154 523 166 512 166 c 0
 502 166 495 155 485 155 c 0
 483 155 482 155 480 156 c 0
 457 165 450 181 431 197 c 1
 431 198 l 2
 431 221 468 228 503 228 c 0
 574 228 633 186 639 132 c 1
 639 95 584 66 549 66 c 0
 529 66 503 79 503 109 c 0
 503 121 515 122 530 137 c 0
 533 140 534 143 534 146 c 0
156 20 m 0
 137 20 121 38 121 60 c 0
 121 68 124 76 132 79 c 0
 241 121 255 128 348 165 c 0
 352 167 356 167 359 167 c 0
 376 167 391 152 391 133 c 0
 391 122 386 112 375 107 c 0
 288 72 251 54 167 22 c 0
 163 21 159 20 156 20 c 0
51 151 m 0
 31 151 17 169 17 191 c 0
 17 199 20 206 28 209 c 0
 137 251 149 258 244 295 c 0
 248 297 252 298 256 298 c 0
 272 298 287 282 287 263 c 0
 287 252 282 242 271 237 c 0
 185 202 146 184 63 153 c 0
 59 151 55 151 51 151 c 0
EndSplineSet
Validated: 1
Colour: ffff00
EndChar

StartChar: uniEE91
Encoding: 61073 61073 207
Width: 775
GlyphClass: 2
Flags: MW
AnchorPoint: "Tonal" 415 381 basechar 0
AnchorPoint: "Podchashie" 299 -14 basechar 0
AnchorPoint: "Right" 801 293 basechar 0
LayerCount: 2
Fore
SplineSet
559 169 m 1
 519 156 469 141 463 141 c 0
 451 141 436 154 436 169 c 0
 436 174 438 179 438 188 c 1
 473 206 496 206 530 220 c 1
 530 225 l 2
 530 243 526 254 526 269 c 0
 526 299 538 334 574 334 c 0
 581 334 589 332 598 331 c 0
 618 324 607 276 618 243 c 1
 647 250 679 267 709 267 c 0
 725 267 755 248 755 234 c 0
 755 200 639 179 639 179 c 1
 639 165 649 144 649 128 c 0
 649 109 632 105 609 105 c 0
 570 105 579 144 559 169 c 1
157 22 m 0
 138 22 121 40 121 61 c 0
 121 70 125 78 134 81 c 0
 241 123 255 130 348 167 c 0
 352 169 356 169 360 169 c 0
 378 169 391 153 391 134 c 0
 391 123 386 114 376 109 c 0
 288 74 251 56 167 24 c 0
 164 23 160 22 157 22 c 0
52 153 m 0
 33 153 18 169 18 191 c 0
 18 200 21 208 28 211 c 0
 137 253 151 260 244 297 c 0
 248 299 252 300 256 300 c 0
 272 300 287 284 287 265 c 0
 287 254 282 244 271 239 c 0
 185 204 148 186 63 155 c 0
 59 153 55 153 52 153 c 0
EndSplineSet
Validated: 1
Colour: ffff00
EndChar

StartChar: uniEE92
Encoding: 61074 61074 208
Width: 964
GlyphClass: 2
Flags: MW
AnchorPoint: "Tonal" 425 362 basechar 0
AnchorPoint: "Podchashie" 299 -16 basechar 0
AnchorPoint: "Right" 981 327 basechar 0
LayerCount: 2
Fore
SplineSet
749 233 m 1
 710 221 658 206 654 206 c 0
 642 206 627 218 627 233 c 0
 627 240 629 245 627 252 c 1
 662 270 685 270 719 284 c 1
 719 290 l 2
 719 307 715 318 715 333 c 0
 715 365 727 400 763 400 c 0
 771 400 778 398 787 395 c 0
 808 390 798 342 807 307 c 1
 837 316 870 331 898 331 c 0
 914 331 944 314 944 300 c 0
 944 266 828 243 828 243 c 1
 831 229 840 210 840 194 c 0
 840 173 821 170 800 170 c 0
 761 170 768 208 749 233 c 1
500 178 m 0
 500 186 489 198 478 198 c 0
 468 198 461 187 451 187 c 0
 449 187 448 187 446 188 c 0
 423 197 416 213 397 229 c 1
 397 230 l 2
 397 253 434 260 469 260 c 0
 540 260 599 218 605 164 c 1
 605 127 550 98 515 98 c 0
 495 98 469 111 469 141 c 0
 469 153 481 154 496 169 c 0
 499 172 500 175 500 178 c 0
156 22 m 0
 137 22 121 40 121 62 c 0
 121 70 124 78 132 81 c 0
 241 123 255 130 348 167 c 0
 352 169 356 169 359 169 c 0
 376 169 391 154 391 135 c 0
 391 124 386 114 375 109 c 0
 288 74 251 56 167 24 c 0
 163 23 159 22 156 22 c 0
51 153 m 0
 31 153 17 171 17 193 c 0
 17 201 20 208 28 211 c 0
 137 253 149 260 244 297 c 0
 248 299 252 300 256 300 c 0
 272 300 287 284 287 265 c 0
 287 254 282 244 271 239 c 0
 185 204 146 186 63 155 c 0
 59 153 55 153 51 153 c 0
EndSplineSet
Validated: 1
Colour: ffff00
EndChar

StartChar: uniEE93
Encoding: 61075 61075 209
Width: 684
GlyphClass: 2
Flags: MW
AnchorPoint: "Tonal" 136 330 basechar 0
AnchorPoint: "Podchashie" 302 -16 basechar 0
AnchorPoint: "Right" 632 266 basechar 0
LayerCount: 2
Fore
SplineSet
340 338 m 0
 340 361 366 377 391 377 c 0
 398 377 407 375 412 368 c 0
 481 285 556 201 644 88 c 0
 657 72 664 62 664 42 c 0
 664 26 648 14 632 14 c 0
 600 14 588 33 567 55 c 0
 430 222 410 241 363 294 c 0
 350 308 340 319 340 338 c 0
144 21 m 2
 122 21 110 38 110 60 c 0
 110 70 113 78 122 81 c 0
 235 110 249 116 348 144 c 1
 355 144 l 2
 374 144 386 125 386 109 c 0
 386 96 381 86 367 82 c 0
 277 58 239 44 151 21 c 1
 144 21 l 2
54 162 m 0
 34 162 20 177 20 200 c 0
 20 211 24 220 34 221 c 0
 147 253 159 257 258 285 c 1
 267 285 l 2
 284 285 297 267 297 250 c 0
 297 237 291 227 279 223 c 0
 189 198 149 186 63 163 c 0
 59 162 57 162 54 162 c 0
EndSplineSet
Validated: 1
Colour: ffff00
EndChar

StartChar: uniEE94
Encoding: 61076 61076 210
Width: 841
GlyphClass: 2
Flags: MW
AnchorPoint: "Tonal" 136 328 basechar 0
AnchorPoint: "Podchashie" 302 -18 basechar 0
AnchorPoint: "Right" 858 278 basechar 0
LayerCount: 2
Fore
SplineSet
715 205 m 0
 715 213 704 223 694 223 c 0
 684 223 675 213 666 213 c 2
 662 213 l 1
 639 222 632 238 613 254 c 1
 613 256 l 2
 613 279 650 287 685 287 c 0
 755 287 820 243 820 191 c 0
 820 152 766 125 731 125 c 0
 709 125 690 136 685 164 c 0
 684 166 684 167 684 169 c 0
 684 180 697 180 711 196 c 0
 714 199 715 202 715 205 c 0
333 342 m 0
 333 365 357 381 384 381 c 0
 391 381 398 379 405 372 c 0
 474 289 547 205 635 92 c 0
 650 76 655 66 655 46 c 0
 655 30 641 18 623 18 c 0
 591 18 579 37 558 59 c 0
 423 226 403 245 356 298 c 0
 343 312 333 323 333 342 c 0
142 21 m 2
 125 21 109 36 109 58 c 0
 109 68 112 78 122 81 c 0
 235 110 249 116 348 144 c 1
 355 144 l 2
 372 144 386 125 386 109 c 0
 386 96 379 86 367 82 c 0
 277 58 237 44 151 21 c 1
 142 21 l 2
54 162 m 0
 34 162 20 177 20 200 c 0
 20 211 24 220 33 221 c 0
 145 253 159 257 258 285 c 1
 265 285 l 2
 284 285 297 267 297 250 c 0
 297 237 291 227 277 223 c 0
 188 198 149 186 61 163 c 0
 59 162 56 162 54 162 c 0
EndSplineSet
Validated: 1
Colour: ffff00
EndChar

StartChar: uniEE95
Encoding: 61077 61077 211
Width: 703
GlyphClass: 2
Flags: MW
AnchorPoint: "Tonal" 136 328 basechar 0
AnchorPoint: "Podchashie" 302 -18 basechar 0
AnchorPoint: "Right" 702 390 basechar 0
LayerCount: 2
Fore
SplineSet
479 351 m 2
 479 337 460 329 450 329 c 0
 429 329 413 350 413 373 c 0
 413 435 471 470 528 470 c 0
 582 470 624 419 624 361 c 0
 624 345 621 329 616 310 c 0
 600 250 538 232 538 171 c 0
 538 130 554 116 575 116 c 0
 645 116 596 188 654 188 c 0
 679 188 682 162 682 136 c 2
 682 116 l 2
 682 79 628 48 570 48 c 0
 543 48 506 49 482 78 c 0
 462 100 462 102 462 146 c 0
 462 190 475 208 492 246 c 0
 506 280 547 306 547 354 c 0
 547 377 533 387 515 387 c 0
 502 387 479 378 479 362 c 2
 479 351 l 2
159 21 m 0
 141 21 125 37 125 59 c 0
 125 68 128 76 137 79 c 0
 244 121 258 128 351 165 c 0
 355 167 358 167 362 167 c 0
 381 167 395 147 395 132 c 0
 395 121 390 112 379 107 c 0
 291 72 254 54 170 22 c 0
 166 21 163 21 159 21 c 0
56 151 m 0
 36 151 20 169 20 190 c 0
 20 198 24 206 31 209 c 0
 140 251 154 258 247 295 c 0
 251 297 254 297 258 297 c 0
 276 297 290 279 290 262 c 0
 290 251 284 242 274 237 c 0
 188 202 151 184 66 153 c 0
 63 151 59 151 56 151 c 0
EndSplineSet
Validated: 1
Colour: ffff00
EndChar

StartChar: uniEE96
Encoding: 61078 61078 212
Width: 835
GlyphClass: 2
Flags: MW
AnchorPoint: "Tonal" 399 306 basechar 0
AnchorPoint: "Podchashie" 299 -19 basechar 0
AnchorPoint: "Right" 834 256 basechar 0
LayerCount: 2
Fore
SplineSet
710 198 m 0
 710 205 699 217 688 217 c 0
 679 217 671 206 661 206 c 0
 660 206 658 207 656 207 c 0
 634 216 627 232 609 248 c 1
 609 251 l 2
 609 273 646 280 679 280 c 0
 750 280 810 237 815 183 c 0
 815 146 760 118 725 118 c 0
 704 118 685 128 679 156 c 1
 679 158 l 2
 679 172 691 173 706 188 c 0
 709 191 710 195 710 198 c 0
506 169 m 0
 506 177 495 189 484 189 c 0
 475 189 467 178 457 178 c 0
 456 178 454 179 452 179 c 0
 429 188 422 204 403 220 c 1
 403 221 l 2
 403 244 440 251 475 251 c 0
 546 251 605 209 611 155 c 1
 611 118 556 89 521 89 c 0
 500 89 480 100 475 128 c 1
 475 133 l 2
 475 144 487 146 502 160 c 0
 504 163 506 166 506 169 c 0
156 19 m 0
 137 19 121 36 121 58 c 0
 121 67 124 75 132 78 c 0
 241 120 255 127 348 164 c 0
 352 166 356 167 359 167 c 0
 377 167 391 148 391 131 c 0
 391 121 386 111 375 106 c 0
 288 71 251 53 167 21 c 0
 163 20 159 19 156 19 c 0
52 149 m 0
 31 149 17 168 17 190 c 0
 17 198 20 205 28 208 c 0
 137 250 149 257 244 294 c 0
 248 296 252 297 256 297 c 0
 273 297 287 278 287 261 c 0
 287 251 282 241 271 236 c 0
 185 201 146 183 63 152 c 0
 59 150 55 149 52 149 c 0
EndSplineSet
Validated: 1
Colour: ffff00
EndChar

StartChar: uniEE97
Encoding: 61079 61079 213
Width: 989
GlyphClass: 2
Flags: MW
AnchorPoint: "Tonal" 427 310 basechar 0
AnchorPoint: "Podchashie" 299 -20 basechar 0
AnchorPoint: "Right" 1002 286 basechar 0
LayerCount: 2
Fore
SplineSet
928 284 m 0
 953 284 969 268 969 240 c 0
 969 199 969 178 939 146 c 0
 906 109 869 101 818 101 c 0
 738 101 691 130 650 174 c 0
 629 199 612 224 612 248 c 0
 612 266 633 278 652 278 c 0
 659 278 666 277 672 273 c 0
 705 252 707 222 738 197 c 0
 765 180 782 167 812 167 c 0
 839 167 856 174 872 194 c 0
 893 218 879 245 895 271 c 0
 904 284 916 284 928 284 c 0
507 166 m 0
 507 174 496 186 485 186 c 0
 475 186 468 175 458 175 c 0
 456 175 455 175 453 176 c 0
 430 185 423 201 404 217 c 1
 404 218 l 2
 404 241 441 248 476 248 c 0
 547 248 606 206 612 152 c 1
 612 115 557 86 522 86 c 0
 502 86 476 99 476 129 c 0
 476 141 488 142 503 157 c 0
 506 160 507 163 507 166 c 0
156 18 m 0
 137 18 121 36 121 58 c 0
 121 66 124 74 132 77 c 0
 241 119 255 126 348 163 c 0
 352 165 355 165 359 165 c 0
 377 165 391 147 391 129 c 0
 391 119 386 110 375 105 c 0
 288 70 251 52 167 20 c 0
 163 19 159 18 156 18 c 0
51 149 m 0
 31 149 17 167 17 189 c 0
 17 197 20 204 28 207 c 0
 137 249 149 256 244 293 c 0
 248 295 252 296 256 296 c 0
 272 296 287 280 287 261 c 0
 287 250 282 240 271 235 c 0
 185 200 146 182 63 151 c 0
 59 149 55 149 51 149 c 0
EndSplineSet
Validated: 1
Colour: ffff00
EndChar

StartChar: uniEE98
Encoding: 61080 61080 214
Width: 761
GlyphClass: 2
Flags: MW
AnchorPoint: "Tonal" 556 371 basechar 0
AnchorPoint: "Podchashie" 302 -17 basechar 0
AnchorPoint: "Right" 814 236 basechar 0
LayerCount: 2
Fore
SplineSet
700 302 m 0
 725 302 741 284 741 258 c 0
 741 217 741 196 711 164 c 0
 677 127 640 119 589 119 c 0
 510 119 463 148 422 192 c 0
 401 217 384 240 384 266 c 0
 384 284 405 296 424 296 c 0
 431 296 438 295 443 291 c 0
 477 270 479 238 510 215 c 0
 535 196 554 185 584 185 c 0
 611 185 628 192 644 212 c 0
 663 236 651 263 667 289 c 0
 676 302 686 302 700 302 c 0
142 22 m 2
 122 22 109 37 109 60 c 0
 109 71 112 81 122 83 c 0
 235 110 249 115 348 140 c 1
 355 140 l 2
 374 140 386 122 386 104 c 0
 386 92 381 82 367 78 c 0
 276 55 237 43 149 22 c 1
 142 22 l 2
54 119 m 2
 34 119 20 134 20 155 c 0
 20 166 24 177 34 178 c 0
 147 207 161 210 260 236 c 1
 267 236 l 2
 286 236 298 217 298 201 c 0
 298 189 293 178 279 175 c 0
 188 152 149 140 61 119 c 1
 54 119 l 2
EndSplineSet
Validated: 1
Colour: ffff00
EndChar

StartChar: uniEE99
Encoding: 61081 61081 215
Width: 445
GlyphClass: 2
Flags: MW
LayerCount: 2
Fore
SplineSet
334 101 m 0
 314 101 288 114 288 145 c 0
 288 156 301 158 315 172 c 0
 318 175 319 178 319 181 c 0
 319 190 308 199 298 199 c 0
 296 198 283 190 272 190 c 0
 270 190 268 190 266 191 c 0
 243 198 236 214 216 230 c 1
 216 232 l 2
 216 254 253 263 289 263 c 0
 359 263 419 221 424 166 c 0
 424 129 370 101 334 101 c 0
138 39 m 0
 118 39 92 51 92 82 c 0
 92 93 105 95 119 109 c 0
 122 112 123 115 123 118 c 0
 123 127 112 137 102 137 c 0
 100 136 87 127 76 127 c 0
 74 127 72 127 70 128 c 0
 47 136 40 151 20 167 c 1
 20 169 l 2
 20 192 57 201 93 201 c 0
 163 201 223 158 228 104 c 0
 228 67 174 39 138 39 c 0
EndSplineSet
Validated: 1
Colour: ffff00
EndChar

StartChar: uniEE9A
Encoding: 61082 61082 216
Width: 1305
GlyphClass: 2
Flags: MW
AnchorPoint: "Tonal" 670 443 basechar 0
AnchorPoint: "Podchashie" 909 344 basechar 0
AnchorPoint: "Right" 1334 612 basechar 0
LayerCount: 2
Fore
SplineSet
443 221 m 2
 428 221 421 228 421 244 c 0
 421 256 427 268 438 273 c 0
 692 376 868 447 1229 596 c 0
 1236 602 1252 605 1262 605 c 0
 1278 605 1283 598 1285 581 c 0
 1285 567 1269 559 1255 554 c 0
 949 424 734 325 463 220 c 0
 459 221 456 221 452 221 c 2
 443 221 l 2
179 21 m 0
 158 21 145 39 145 61 c 0
 145 69 148 76 156 79 c 0
 265 121 277 128 372 165 c 0
 376 167 379 167 383 167 c 0
 401 167 415 148 415 130 c 0
 415 121 409 113 399 107 c 0
 313 72 274 54 191 23 c 0
 186 21 182 21 179 21 c 0
56 118 m 0
 36 118 20 134 20 157 c 0
 20 165 24 172 33 176 c 0
 140 218 137 215 230 253 c 0
 233 255 237 255 240 255 c 0
 260 255 274 236 274 218 c 0
 274 208 269 199 258 195 c 0
 170 160 151 151 66 120 c 0
 63 118 59 118 56 118 c 0
EndSplineSet
Validated: 1
Colour: ffff00
EndChar

StartChar: uniEE9B
Encoding: 61083 61083 217
Width: 500
GlyphClass: 2
Flags: MW
LayerCount: 2
Fore
SplineSet
37 770 m 1
 464 770 l 1
 464 0 l 1
 37 0 l 1
 37 770 l 1
66 748 m 1
 250 398 l 1
 435 748 l 1
 66 748 l 1
258 383 m 1
 442 34 l 1
 442 733 l 1
 258 383 l 1
435 19 m 1
 250 369 l 1
 66 19 l 1
 435 19 l 1
59 733 m 1
 59 34 l 1
 243 383 l 1
 59 733 l 1
EndSplineSet
Validated: 1
Colour: ffff00
EndChar

StartChar: uniEE9C
Encoding: 61084 61084 218
Width: 1294
GlyphClass: 2
Flags: MW
AnchorPoint: "Tonal" 713 475 basechar 0
AnchorPoint: "Podchashie" 922 -12 basechar 0
AnchorPoint: "Right" 1315 614 basechar 0
LayerCount: 2
Fore
SplineSet
851 143 m 1
 810 131 760 116 755 116 c 0
 742 116 728 128 728 143 c 0
 728 150 729 155 729 162 c 1
 763 180 786 180 821 194 c 1
 821 215 816 227 816 243 c 0
 816 273 830 308 865 308 c 0
 872 308 879 305 890 305 c 0
 909 299 898 252 909 217 c 1
 937 224 970 241 1000 241 c 0
 1014 241 1044 224 1044 209 c 0
 1044 176 930 153 930 153 c 1
 932 139 941 120 941 104 c 0
 941 83 921 79 900 79 c 0
 861 79 870 118 851 143 c 1
432 223 m 2
 418 223 411 231 411 246 c 0
 411 258 417 270 427 275 c 0
 682 378 858 449 1217 598 c 0
 1224 604 1240 607 1250 607 c 0
 1268 607 1273 600 1273 583 c 0
 1273 569 1257 561 1245 556 c 0
 939 426 724 327 451 222 c 0
 448 223 444 223 441 223 c 2
 432 223 l 2
179 20 m 0
 159 20 144 36 144 58 c 0
 144 67 147 75 156 78 c 0
 263 120 277 127 372 164 c 0
 376 166 379 166 381 166 c 0
 401 166 415 147 415 129 c 0
 415 120 409 112 399 106 c 0
 313 71 274 53 189 22 c 0
 186 20 182 20 179 20 c 0
56 117 m 0
 36 117 20 133 20 156 c 0
 20 164 24 171 31 175 c 0
 140 217 137 214 230 252 c 0
 233 254 237 254 240 254 c 0
 258 254 272 235 272 217 c 0
 272 207 269 198 256 194 c 0
 170 159 151 150 66 119 c 0
 63 117 59 117 56 117 c 0
EndSplineSet
Validated: 1
Colour: ffff00
EndChar

StartChar: uniEE9D
Encoding: 61085 61085 219
Width: 1490
GlyphClass: 2
Flags: MW
AnchorPoint: "Tonal" 889 461 basechar 0
AnchorPoint: "Podchashie" 971 106 basechar 0
AnchorPoint: "Right" 1539 530 basechar 0
LayerCount: 2
Fore
SplineSet
1028 236 m 0
 1028 261 1058 279 1077 279 c 0
 1107 279 1113 251 1113 226 c 0
 1113 203 1095 185 1074 185 c 0
 1049 185 1028 212 1028 236 c 0
750 189 m 0
 750 215 775 228 798 228 c 0
 831 228 861 207 861 173 c 0
 861 147 842 131 817 131 c 0
 784 131 750 157 750 189 c 0
477 199 m 1
 456 207 437 196 437 224 c 0
 437 238 444 250 456 254 c 0
 755 346 1023 412 1414 525 c 0
 1421 529 1435 530 1445 530 c 0
 1463 530 1470 523 1470 507 c 0
 1470 490 1454 486 1438 479 c 0
 1121 377 754 277 477 199 c 1
170 22 m 0
 149 22 136 39 136 61 c 0
 136 70 139 79 149 82 c 0
 260 115 274 121 371 150 c 0
 374 152 378 152 379 152 c 0
 399 152 411 133 411 115 c 0
 411 105 406 94 394 91 c 0
 304 62 265 46 179 22 c 0
 175 20 172 22 170 22 c 0
63 129 m 0
 59 128 56 128 54 128 c 0
 34 128 20 145 20 166 c 0
 20 177 24 186 33 187 c 0
 145 221 140 219 237 249 c 0
 240 251 242 251 246 251 c 0
 263 251 277 231 277 214 c 0
 277 203 272 193 260 189 c 0
 170 161 149 154 63 129 c 0
EndSplineSet
Validated: 1
Colour: ffff00
EndChar

StartChar: uniEE9E
Encoding: 61086 61086 220
Width: 1338
GlyphClass: 2
Flags: MW
AnchorPoint: "Tonal" 808 350 basechar 0
AnchorPoint: "Podchashie" 956 172 basechar 0 {} {150-150 -3}
AnchorPoint: "Right" 1354 374 basechar 0
LayerCount: 2
Fore
SplineSet
513 167 m 1
 498 171 474 163 474 188 c 0
 474 199 481 211 492 213 c 0
 789 292 909 308 1261 386 c 0
 1266 387 1272 387 1277 387 c 0
 1293 387 1316 379 1316 359 c 0
 1316 343 1296 333 1279 329 c 0
 981 271 802 233 513 167 c 1
318 71 m 0
 300 71 280 82 280 107 c 0
 280 115 290 117 302 129 c 0
 311 138 300 148 291 152 c 1
 288 152 l 2
 281 152 274 144 266 144 c 0
 264 144 263 144 261 145 c 0
 242 152 237 164 221 176 c 1
 221 178 l 2
 221 197 251 204 281 204 c 0
 337 204 386 169 392 125 c 1
 392 94 346 71 318 71 c 0
117 23 m 0
 101 23 79 34 79 59 c 0
 79 67 89 69 101 81 c 0
 103 83 104 86 104 89 c 0
 104 96 97 104 88 104 c 0
 80 104 73 96 65 96 c 0
 64 96 62 96 61 97 c 0
 42 104 36 116 20 129 c 1
 20 130 l 2
 20 150 50 157 80 157 c 0
 137 157 186 122 191 78 c 0
 191 46 145 23 117 23 c 0
EndSplineSet
Validated: 1
Colour: ffff00
EndChar

StartChar: uniEE9F
Encoding: 61087 61087 221
Width: 1318
GlyphClass: 2
Flags: MW
AnchorPoint: "Tonal" 828 368 basechar 0
AnchorPoint: "Podchashie" 944 57 basechar 0 {} {150-150 -7}
AnchorPoint: "Right" 1354 375 basechar 0
LayerCount: 2
Fore
SplineSet
999 168 m 0
 999 193 1029 210 1048 210 c 0
 1078 210 1083 180 1083 156 c 0
 1083 134 1066 115 1045 115 c 0
 1020 115 999 143 999 168 c 0
721 119 m 0
 721 147 745 157 768 157 c 0
 802 157 832 136 832 105 c 0
 832 76 812 61 788 61 c 0
 754 61 721 89 721 119 c 0
475 171 m 2
 463 171 453 176 453 190 c 0
 453 201 460 213 471 215 c 0
 768 295 888 310 1240 388 c 0
 1245 390 1251 390 1256 390 c 0
 1272 390 1295 381 1295 362 c 0
 1295 346 1275 335 1258 332 c 0
 960 274 781 235 492 170 c 0
 489 171 485 171 482 171 c 2
 475 171 l 2
312 81 m 0
 294 81 274 92 274 117 c 0
 274 125 284 127 296 139 c 0
 305 148 294 158 285 162 c 1
 282 162 l 2
 275 162 268 154 260 154 c 0
 258 154 257 154 255 155 c 0
 236 162 231 174 215 187 c 1
 215 188 l 2
 215 208 245 215 275 215 c 0
 331 215 380 180 386 136 c 1
 386 104 340 81 312 81 c 0
117 35 m 0
 101 35 79 46 79 71 c 0
 79 79 89 81 101 93 c 0
 103 95 104 98 104 101 c 0
 104 109 96 117 87 117 c 0
 79 117 72 108 65 108 c 0
 64 108 62 108 61 109 c 0
 42 116 36 128 20 141 c 1
 20 143 l 2
 20 162 50 169 80 169 c 0
 137 169 186 134 191 90 c 0
 191 58 145 35 117 35 c 0
EndSplineSet
Validated: 1
Colour: ffff00
EndChar

StartChar: uniEEA0
Encoding: 61088 61088 222
Width: 1445
GlyphClass: 2
Flags: MW
AnchorPoint: "Tonal" 931 376 basechar 0
AnchorPoint: "Podchashie" 1046 221 basechar 0
AnchorPoint: "Right" 1464 399 basechar 0
LayerCount: 2
Fore
SplineSet
362 286 m 0
 416 286 394 244 406 193 c 1
 436 201 469 217 497 217 c 0
 513 217 543 200 543 186 c 0
 543 152 427 129 427 129 c 1
 430 115 439 96 439 80 c 0
 439 59 420 55 399 55 c 0
 360 55 367 94 348 119 c 1
 313 108 256 92 256 92 c 1
 252 92 l 2
 240 92 226 105 226 119 c 0
 226 126 228 131 226 138 c 1
 262 156 284 156 318 170 c 1
 318 178 l 2
 318 195 314 206 314 219 c 0
 314 251 327 286 362 286 c 0
608 197 m 0
 595 197 583 200 583 216 c 0
 583 227 590 239 601 241 c 0
 898 320 1018 336 1370 414 c 0
 1375 415 1381 415 1386 415 c 0
 1402 415 1425 407 1425 387 c 0
 1425 371 1405 361 1388 357 c 0
 1090 299 911 261 622 195 c 0
 617 197 612 197 608 197 c 0
117 22 m 0
 100 22 80 33 80 58 c 0
 80 66 89 68 101 80 c 0
 103 82 104 85 104 87 c 0
 104 95 96 103 88 103 c 0
 80 103 73 95 65 95 c 0
 64 95 62 95 61 96 c 0
 42 103 36 115 20 128 c 1
 20 129 l 2
 20 149 50 156 80 156 c 0
 137 156 186 121 191 77 c 0
 191 45 145 22 117 22 c 0
EndSplineSet
Validated: 1
Colour: ffff00
EndChar

StartChar: uniEEA1
Encoding: 61089 61089 223
Width: 1441
GlyphClass: 2
Flags: MW
AnchorPoint: "Tonal" 908 378 basechar 0
AnchorPoint: "Podchashie" 1057 91 basechar 0
AnchorPoint: "Right" 1466 399 basechar 0
LayerCount: 2
Fore
SplineSet
1125 190 m 0
 1125 215 1155 232 1174 232 c 0
 1204 232 1209 202 1209 178 c 0
 1209 156 1192 137 1171 137 c 0
 1146 137 1125 165 1125 190 c 0
847 141 m 0
 847 169 871 179 894 179 c 0
 928 179 958 158 958 127 c 0
 958 98 938 83 914 83 c 0
 880 83 847 111 847 141 c 0
348 119 m 1
 310 107 257 92 253 92 c 0
 241 92 226 104 226 119 c 0
 226 126 228 131 226 138 c 1
 262 156 284 156 318 170 c 1
 318 178 l 2
 318 195 314 205 314 219 c 0
 314 251 327 286 362 286 c 0
 416 286 394 244 406 193 c 1
 436 201 469 217 497 217 c 0
 513 217 543 200 543 186 c 0
 543 152 427 129 427 129 c 1
 430 115 439 96 439 80 c 0
 439 59 420 55 399 55 c 0
 360 55 367 94 348 119 c 1
618 193 m 1
 603 197 579 189 579 214 c 0
 579 225 586 237 597 239 c 0
 894 318 1014 334 1366 412 c 0
 1371 413 1377 413 1382 413 c 0
 1398 413 1421 405 1421 385 c 0
 1421 369 1401 359 1384 355 c 0
 1086 297 907 259 618 193 c 1
117 22 m 0
 101 22 79 33 79 58 c 0
 79 66 89 68 101 80 c 0
 103 82 104 85 104 88 c 0
 104 95 97 103 88 103 c 0
 80 103 73 95 65 95 c 0
 64 95 62 95 61 96 c 0
 42 103 36 115 20 128 c 1
 20 129 l 2
 20 149 50 156 80 156 c 0
 137 156 186 121 191 77 c 0
 191 45 145 22 117 22 c 0
EndSplineSet
Validated: 1
Colour: ffff00
EndChar

StartChar: uniEEA2
Encoding: 61090 61090 224
Width: 1339
GlyphClass: 2
Flags: MW
AnchorPoint: "Tonal" 767 446 basechar 0
AnchorPoint: "Podchashie" 907 209 basechar 0
AnchorPoint: "Right" 1388 546 basechar 0
LayerCount: 2
Fore
SplineSet
476 153 m 0
 461.222000978 153 455 161.421093643 455 177 c 0
 455 189 461 200 472 205 c 0
 725 309 901 379 1262 529 c 0
 1269 534 1285 538 1295 538 c 0
 1311 538 1318 531 1318 513 c 0
 1318 499 1302 492 1288 487 c 0
 982 357 767 258 496 152 c 0
 492 153 488 154 484 154 c 0
 481 154 479 153 476 153 c 0
195 278 m 0
 197 293 213 299 228 299 c 0
 251 299 262 291 273 276 c 0
 283 259 384 139 384 84 c 0
 384 65 375 58 362 58 c 0
 347 58 325 70 317 79 c 0
 264 139 244 179 204 250 c 0
 199 259 193 267 195 278 c 0
221 45 m 0
 221 30 209 21 193 21 c 0
 175 21 161 30 149 44 c 0
 93 105 71 149 31 221 c 0
 26 230 20 239 20 248 c 0
 20 267 45 272 59 272 c 0
 86 272 93 264 105 248 c 0
 117 228 221 102 221 45 c 0
EndSplineSet
Validated: 1
Colour: ffff00
EndChar

StartChar: uniEEA3
Encoding: 61091 61091 225
Width: 1320
GlyphClass: 2
Flags: MW
AnchorPoint: "Tonal" 810 390 basechar 0
AnchorPoint: "Podchashie" 978 55 basechar 0
AnchorPoint: "Right" 1347 514 basechar 0
LayerCount: 2
Fore
SplineSet
1025 207 m 1
 1025 234 1046 260 1074 260 c 0
 1095 260 1111 232 1111 205 c 0
 1111 188 1097 165 1074 165 c 0
 1053 165 1030 184 1025 207 c 1
877 100 m 0
 877 73 854 56 826 56 c 0
 798 56 768 73 762 100 c 1
 762 135 782 151 819 151 c 0
 847 151 877 133 877 100 c 0
1276 503 m 0
 1292 503 1299 496 1299 478 c 0
 1299 464 1283 455 1269 450 c 0
 963 320 748 223 477 117 c 0
 472 118 467 118 462 118 c 2
 459 118 l 2
 451 118 443 119 439 126 c 0
 437 131 436 137 436 142 c 0
 436 154 442 165 453 170 c 0
 706 274 882 344 1243 494 c 0
 1250 499 1266 503 1276 503 c 0
195 250 m 0
 190 259 188 267 188 274 c 0
 188 289 197 299 218 299 c 0
 243 299 253 290 264 276 c 0
 274 259 375 139 375 84 c 0
 375 65 366 58 353 58 c 0
 338 58 316 70 308 79 c 0
 255 139 235 179 195 250 c 0
221 46 m 0
 221 31 209 22 193 22 c 0
 175 22 161 31 149 45 c 0
 93 106 71 150 31 222 c 0
 26 231 20 240 20 249 c 0
 20 268 45 273 59 273 c 0
 86 273 93 265 105 249 c 0
 117 229 221 103 221 46 c 0
EndSplineSet
Validated: 1
Colour: ffff00
EndChar

StartChar: uniEEA4
Encoding: 61092 61092 226
Width: 1315
GlyphClass: 2
Flags: MW
AnchorPoint: "Tonal" 748 379 basechar 0
AnchorPoint: "Podchashie" 982 -29 basechar 0
AnchorPoint: "Right" 1344 526 basechar 0
LayerCount: 2
Fore
SplineSet
1064 180 m 0
 1079 180 1109 163 1109 148 c 0
 1109 115 993 92 993 92 c 1
 997 78 1005 59 1005 43 c 0
 1005 22 986 18 963 18 c 0
 926 18 933 57 914 82 c 1
 879 71 822 55 822 55 c 1
 818 55 l 2
 806 55 791 67 791 82 c 0
 791 89 793 94 793 101 c 1
 828 119 851 119 884 133 c 1
 884 141 l 2
 884 157 881 168 881 182 c 0
 881 212 893 249 928 249 c 0
 937 249 944 247 953 244 c 0
 974 238 963 191 972 156 c 1
 1002 164 1035 180 1064 180 c 0
452 134 m 1
 437 134 431 142 431 158 c 0
 431 170 437 181 448 186 c 0
 701 290 877 360 1238 510 c 0
 1245 515 1261 519 1271 519 c 0
 1287 519 1294 512 1294 494 c 0
 1294 480 1274 477 1260 472 c 0
 954 342 723 240 452 134 c 1
187 277 m 0
 189 292 205 298 220 298 c 0
 243 298 254 290 265 275 c 0
 277 258 377 138 377 83 c 0
 377 64 367 57 354 57 c 0
 339 57 317 69 309 78 c 0
 258 138 236 178 198 249 c 0
 191 258 185 266 187 277 c 0
221 45 m 0
 221 30 209 21 193 21 c 0
 175 21 161 30 149 44 c 0
 94 105 71 149 31 221 c 0
 26 230 20 239 20 248 c 0
 20 267 45 272 59 272 c 0
 86 272 93 264 105 248 c 0
 117 228 221 102 221 45 c 0
EndSplineSet
Validated: 1
Colour: ffff00
EndChar

StartChar: uniEEA5
Encoding: 61093 61093 227
Width: 1157
GlyphClass: 2
Flags: MW
AnchorPoint: "Tonal" 576 350 basechar 0
AnchorPoint: "Podchashie" 721 155 basechar 0
AnchorPoint: "Right" 1185 488 basechar 0
LayerCount: 2
Fore
SplineSet
295 98 m 1
 280 98 273 105 273 121 c 0
 273 134 279 145 290 150 c 0
 545 254 721 324 1080 474 c 0
 1087 479 1103 483 1114 483 c 0
 1131 483 1136 476 1136 458 c 0
 1136 444 1121 437 1108 432 c 0
 802 301 567 204 295 98 c 1
54 263 m 0
 78 263 87 256 100 241 c 1
 110 223 210 104 210 49 c 0
 210 30 200 23 189 23 c 0
 172 23 151 35 144 44 c 0
 91 104 70 144 31 215 c 0
 26 222 20 230 20 239 c 0
 20 257 38 263 54 263 c 0
EndSplineSet
Validated: 1
Colour: ffff00
EndChar

StartChar: uniEEA6
Encoding: 61094 61094 228
Width: 1099
GlyphClass: 2
Flags: MW
AnchorPoint: "Tonal" 569 296 basechar 0
AnchorPoint: "Podchashie" 692 130 basechar 0 {} {150-150 1}
AnchorPoint: "Right" 1134 334 basechar 0
LayerCount: 2
Fore
SplineSet
258 125 m 2
 246 125 236 131 236 145 c 0
 236 156 244 167 254 169 c 0
 552 249 671 264 1023 342 c 0
 1029 344 1034 344 1039 344 c 0
 1055 344 1078 335 1078 316 c 0
 1078 300 1059 289 1041 286 c 0
 744 228 564 189 275 124 c 0
 272 125 268 125 265 125 c 2
 258 125 l 2
117 21 m 0
 101 21 79 32 79 57 c 0
 79 65 89 67 101 79 c 0
 103 81 104 84 104 87 c 0
 104 94 97 102 88 102 c 0
 80 102 73 94 65 94 c 0
 64 94 62 94 61 95 c 0
 42 102 36 114 20 127 c 1
 20 128 l 2
 20 148 50 155 80 155 c 0
 137 155 186 120 191 76 c 0
 191 44 145 21 117 21 c 0
EndSplineSet
Validated: 1
Colour: ffff00
EndChar

StartChar: uniEEA7
Encoding: 61095 61095 229
Width: 1345
GlyphClass: 2
Flags: MW
AnchorPoint: "Tonal" 800 322 basechar 0
AnchorPoint: "Podchashie" 954 190 basechar 0
AnchorPoint: "Right" 1375 368 basechar 0
LayerCount: 2
Fore
SplineSet
451 54 m 0
 451 19 416 8 388 8 c 0
 353 8 328 36 328 61 c 0
 328 84 349 101 386 101 c 0
 416 101 451 78 451 54 c 0
297 253 m 0
 330 253 365 226 365 200 c 0
 365 175 342 165 319 165 c 0
 284 165 251 193 251 219 c 0
 251 235 267 253 297 253 c 0
138 22 m 0
 118 22 92 34 92 65 c 0
 92 76 105 78 117 92 c 0
 121 96 122 99 122 102 c 0
 122 110 111 121 102 121 c 0
 99 120 85 110 73 110 c 0
 71 110 70 110 68 111 c 0
 45 120 40 136 20 152 c 1
 20 154 l 2
 20 175 57 184 93 184 c 0
 163 184 228 141 228 87 c 0
 228 50 174 22 138 22 c 0
522 161 m 0
 516 159 510 158 505 158 c 0
 493 158 483 164 483 182 c 0
 483 192 490 203 501 206 c 0
 798 285 918 301 1270 379 c 0
 1275 381 1281 381 1286 381 c 0
 1302 381 1325 372 1325 352 c 0
 1325 337 1305 326 1288 322 c 0
 990 264 811 226 522 161 c 0
EndSplineSet
Validated: 1
Colour: ffff00
EndChar

StartChar: uniEEA8
Encoding: 61096 61096 230
Width: 1478
GlyphClass: 2
Flags: MW
AnchorPoint: "Tonal" 933 382 basechar 0
AnchorPoint: "Podchashie" 1104 266 basechar 0
AnchorPoint: "Right" 1502 428 basechar 0
LayerCount: 2
Fore
SplineSet
116 20 m 0
 99 20 77 30 77 55 c 0
 77 64 89 65 98 78 c 0
 109 87 98 96 88 99 c 0
 77 103 70 89 59 92 c 0
 38 99 35 112 21 126 c 1
 21 127 l 2
 21 145 49 152 77 152 c 0
 133 152 186 117 186 73 c 0
 186 43 144 20 116 20 c 0
600 129 m 0
 600 94 565 83 536 83 c 0
 501 83 477 111 477 136 c 0
 477 159 498 176 535 176 c 0
 565 176 600 153 600 129 c 0
445 328 m 0
 478 328 514 301 514 275 c 0
 514 250 491 240 468 240 c 0
 433 240 399 268 399 294 c 0
 399 310 415 328 445 328 c 0
295 140 m 0
 295 147 284 158 274 158 c 0
 264 158 255 148 245 148 c 2
 240 148 l 1
 217 157 212 173 193 189 c 1
 193 191 l 2
 193 212 230 221 265 221 c 0
 335 221 401 178 401 124 c 0
 401 87 346 59 311 59 c 0
 290 59 270 69 265 97 c 0
 265 99 264 101 264 102 c 0
 264 113 277 115 290 129 c 0
 293 133 295 136 295 140 c 0
655 221 m 0
 649 220 643 219 637 219 c 0
 626 219 617 224 617 242 c 0
 617 252 624 263 634 266 c 0
 932 345 1051 361 1403 439 c 0
 1409 441 1414 441 1419 441 c 0
 1435 441 1458 432 1458 412 c 0
 1458 397 1439 386 1421 382 c 0
 1124 324 944 286 655 221 c 0
EndSplineSet
Validated: 1
Colour: ffff00
EndChar

StartChar: uniEEAA
Encoding: 61098 61098 231
Width: 1110
GlyphClass: 2
Flags: MW
AnchorPoint: "Tonal" 552 295 basechar 0
AnchorPoint: "Podchashie" 697 170 basechar 0
AnchorPoint: "Right" 1147 386 basechar 0
LayerCount: 2
Fore
SplineSet
281 115 m 0
 272 115 262 123 262 135 c 0
 262 145 269 156 278 160 c 0
 569 262 688 287 1033 390 c 0
 1039 392 1044 394 1051 394 c 0
 1068 394 1090 385 1090 368 c 0
 1090 352 1070 341 1054 336 c 0
 762 255 586 202 303 116 c 1
 299 116 l 2
 293 116 287 115 281 115 c 0
111 220 m 0
 137 220 174 218 174 204 c 0
 174 187 121 153 112 100 c 1
 139 95 232 99 232 55 c 0
 232 26 213 23 174 23 c 0
 133 23 81 32 44 48 c 0
 22 57 21 66 21 80 c 2
 21 86 l 1
 24 129 72 176 84 218 c 1
 93 220 102 220 111 220 c 0
EndSplineSet
Validated: 1
Colour: ffff00
EndChar

StartChar: uniEEAB
Encoding: 61099 61099 232
Width: 1514
GlyphClass: 2
Flags: MW
AnchorPoint: "Tonal" 1077 392 basechar 0
AnchorPoint: "Podchashie" 1144 228 basechar 0
AnchorPoint: "Right" 1570 374 basechar 0
LayerCount: 2
Fore
SplineSet
168 284 m 1
 158 287 149 288 140 288 c 0
 127 288 114 285 100 280 c 0
 88 276 81 262 81 248 c 0
 81 238 85 227 96 223 c 0
 111 216 123 213 136 213 c 0
 145 213 154 214 166 217 c 1
 165 222 165 227 165 231 c 0
 165 246 168 257 168 284 c 1
351 246 m 0
 351 274 317 283 290 283 c 0
 286 283 282 283 279 282 c 0
 279 275 278 269 278 264 c 0
 278 248 280 238 280 222 c 1
 292 217 300 216 308 216 c 0
 319 216 327 219 340 225 c 0
 348 229 351 237 351 246 c 0
226 454 m 0
 236 454 248 454 260 450 c 0
 284 443 310 438 310 410 c 0
 310 391 289 381 285 360 c 0
 284 352 282 344 282 337 c 0
 282 329 284 323 291 318 c 0
 319 299 345 316 375 300 c 0
 394 290 409 279 409 255 c 0
 409 233 409 221 395 209 c 0
 368 186 351 172 312 172 c 0
 299 172 287 174 273 174 c 1
 273 150 l 2
 273 134 274 122 274 109 c 0
 274 101 273 92 273 83 c 2
 273 69 l 2
 273 63 272 57 267 51 c 0
 250 33 236 22 212 22 c 0
 188 22 184 27 172 39 c 0
 167 44 166 50 166 57 c 2
 166 102 l 2
 166 130 169 148 169 178 c 1
 155 178 l 2
 119 178 88 184 49 202 c 0
 24 214 20 236 20 263 c 0
 20 306 59 313 101 313 c 0
 122 313 143 311 160 311 c 0
 165 311 170 312 174 312 c 0
 178 324 180 336 180 347 c 0
 180 359 178 371 172 382 c 0
 165 396 150 398 150 417 c 0
 150 450 193 454 226 454 c 0
1465 391 m 0
 1483 391 1494 385 1494 370 c 0
 1494 348 1477 344 1458 342 c 0
 1167 307 1019 289 840 258 c 1
 826 268 804 259 804 283 c 0
 804 298 808 312 823 315 c 0
 887 329 1141 363 1442 389 c 0
 1448 390 1457 391 1465 391 c 0
531 149 m 2
 509 149 497 165 497 186 c 0
 497 198 501 210 513 212 c 0
 630 227 643 231 744 244 c 0
 746 245 748 245 750 245 c 0
 767 245 778 228 778 211 c 0
 778 198 771 185 756 182 c 0
 664 168 622 160 534 149 c 1
 531 149 l 2
517 299 m 2
 497 299 484 316 484 335 c 0
 484 349 489 360 501 362 c 0
 616 378 612 375 711 390 c 0
 712 391 714 391 715 391 c 0
 735 391 747 371 747 353 c 0
 747 340 740 329 725 327 c 0
 631 314 610 310 521 299 c 1
 517 299 l 2
EndSplineSet
Validated: 1
Colour: ffff00
EndChar

StartChar: uniEEAC
Encoding: 61100 61100 233
Width: 435
GlyphClass: 2
Flags: MW
AnchorPoint: "Tonal" 226 500 basechar 0
AnchorPoint: "Podchashie" 351 24 basechar 0
AnchorPoint: "Right" 441 200 basechar 0
LayerCount: 2
Fore
SplineSet
168 262 m 1
 158 265 149 266 140 266 c 0
 127 266 114 263 100 258 c 0
 88 254 81 240 81 226 c 0
 81 216 85 205 96 201 c 0
 111 194 123 191 136 191 c 0
 145 191 154 192 166 195 c 1
 165 200 165 205 165 209 c 0
 165 224 168 235 168 262 c 1
351 224 m 0
 351 252 317 261 290 261 c 0
 286 261 282 261 279 260 c 0
 279 253 278 247 278 242 c 0
 278 226 280 216 280 200 c 1
 292 195 300 194 308 194 c 0
 319 194 327 197 340 203 c 0
 348 207 351 215 351 224 c 0
226 432 m 0
 236 432 248 432 260 428 c 0
 284 421 310 416 310 388 c 0
 310 369 289 359 285 338 c 0
 284 330 282 322 282 315 c 0
 282 307 284 301 291 296 c 0
 319 277 345 294 375 278 c 0
 394 268 409 257 409 233 c 0
 409 211 409 199 395 187 c 0
 368 164 351 150 312 150 c 0
 299 150 287 152 273 152 c 1
 273 128 l 2
 273 112 274 100 274 87 c 0
 274 79 273 70 273 61 c 2
 273 47 l 2
 273 41 272 35 267 29 c 0
 250 11 236 0 212 0 c 0
 188 0 184 5 172 17 c 0
 167 22 166 28 166 35 c 2
 166 80 l 2
 166 108 169 126 169 156 c 1
 155 156 l 2
 119 156 88 162 49 180 c 0
 24 192 20 214 20 241 c 0
 20 284 59 291 101 291 c 0
 122 291 143 289 160 289 c 0
 165 289 170 290 174 290 c 0
 178 302 180 314 180 325 c 0
 180 337 178 349 172 360 c 0
 165 374 150 376 150 395 c 0
 150 428 193 432 226 432 c 0
EndSplineSet
Validated: 1
Colour: ffff00
EndChar

StartChar: uniEEAD
Encoding: 61101 61101 234
Width: 500
GlyphClass: 2
Flags: MW
LayerCount: 2
Fore
SplineSet
37 770 m 1
 464 770 l 1
 464 0 l 1
 37 0 l 1
 37 770 l 1
66 748 m 1
 250 398 l 1
 435 748 l 1
 66 748 l 1
258 383 m 1
 442 34 l 1
 442 733 l 1
 258 383 l 1
435 19 m 1
 250 369 l 1
 66 19 l 1
 435 19 l 1
59 733 m 1
 59 34 l 1
 243 383 l 1
 59 733 l 1
EndSplineSet
Validated: 1
Colour: ffff00
EndChar

StartChar: uniEEAE
Encoding: 61102 61102 235
Width: 653
GlyphClass: 2
Flags: MW
LayerCount: 2
Fore
SplineSet
283.919921875 115.759765625 m 0
 264.559570312 115.759765625 248.719726562 103.440429688 248.719726562 84.080078125 c 0
 248.719726562 66.48046875 268.080078125 59.4404296875 285.6796875 59.4404296875 c 0
 299.759765625 59.4404296875 312.080078125 71.759765625 312.080078125 85.83984375 c 0
 312.080078125 101.6796875 299.759765625 115.759765625 283.919921875 115.759765625 c 0
136.080078125 263.600585938 m 2
 264.560546875 263.600585938 361.362304688 184.40234375 361.362304688 136.8828125 c 1
 394.802734375 121.04296875 412.40234375 98.1630859375 449.362304688 98.1630859375 c 0
 539.122070312 99.9228515625 562.001953125 189.682617188 609.521484375 189.682617188 c 2
 611.28125 189.682617188 l 2
 625.361328125 189.682617188 632.401367188 175.602539062 632.401367188 161.522460938 c 0
 632.401367188 140.40234375 614.801757812 126.322265625 593.681640625 126.322265625 c 1
 593.681640625 73.521484375 535.6015625 57.681640625 474.001953125 57.681640625 c 0
 435.282226562 57.681640625 394.801757812 62.9619140625 368.401367188 70.001953125 c 1
 333.201171875 50.6416015625 317.361328125 20.7216796875 276.880859375 20.7216796875 c 0
 234.640625 20.7216796875 185.360351562 38.322265625 185.360351562 80.5615234375 c 0
 185.360351562 115.76171875 202.959960938 154.481445312 238.16015625 154.481445312 c 0
 257.520507812 154.481445312 268.080078125 152.721679688 287.440429688 150.961914062 c 1
 229.360351562 173.841796875 201.200195312 210.801757812 139.600585938 210.801757812 c 0
 111.440429688 210.801757812 72.7197265625 196.721679688 48.080078125 196.721679688 c 0
 30.48046875 196.721679688 19.919921875 203.76171875 19.919921875 221.361328125 c 0
 19.919921875 260.081054688 63.919921875 263.600585938 106.16015625 263.600585938 c 2
 136.080078125 263.600585938 l 2
EndSplineSet
Validated: 1
Colour: ffff00
EndChar

StartChar: uniEEAF
Encoding: 61103 61103 236
Width: 797
GlyphClass: 2
Flags: MW
LayerCount: 2
Fore
SplineSet
466 195 m 0
 451 195 431 199 416 199 c 0
 403 199 393 196 393 182 c 0
 393 164 413 157 430 157 c 0
 445 157 456 169 456 184 c 0
 456 190 472 195 466 195 c 0
280 361 m 2
 409 361 506 282 506 235 c 1
 539 219 557 196 594 196 c 0
 683 196 706 287 754 287 c 2
 756 287 l 2
 770 287 777 273 777 259 c 0
 777 238 759 224 738 224 c 1
 738 171 680 155 618 155 c 0
 580 155 539 161 513 168 c 1
 477 148 462 118 421 118 c 0
 379 118 330 136 330 178 c 0
 330 213 347 252 382 252 c 0
 402 252 412 249 432 249 c 1
 374 272 345 309 284 309 c 0
 256 309 217 294 192 294 c 0
 175 294 164 301 164 319 c 0
 164 358 208 361 250 361 c 2
 280 361 l 2
104 62 m 0
 185 95 195 100 266 129 c 0
 269 129 273 130 274 130 c 0
 288 130 299 115 299 102 c 0
 299 95 295 88 287 83 c 0
 220 56 192 44 128 19 c 0
 127 18 123 18 121 18 c 0
 107 18 93 35 93 48 c 0
 93 55 95 60 104 62 c 0
206 208 m 1
 219 208 229 190 229 183 c 0
 229 174 223 166 215 162 c 0
 149 136 121 122 56 97 c 0
 54 97 51 95 47 95 c 0
 33 95 21 109 21 125 c 0
 21 132 24 137 30 141 c 0
 91 164 156 190 206 208 c 1
EndSplineSet
Validated: 1
Colour: ffff00
EndChar

StartChar: uniEEB0
Encoding: 61104 61104 237
Width: 1397
GlyphClass: 2
Flags: MW
AnchorPoint: "Tonal" 780 412 basechar 0
AnchorPoint: "Podchashie" 920 140 basechar 0 {} {150-150 8}
AnchorPoint: "Right" 1427 440 basechar 0
LayerCount: 2
Fore
SplineSet
369 278 m 1
 388 283 409 286 427 286 c 0
 453 286 478 279 492 256 c 0
 501 241 502 234 509 219 c 1
 1268 462 l 1
 1273 462 1317 464 1333 464 c 0
 1357 464 1377 461 1377 439 c 2
 1377 436 l 2
 1377 408 1363 404 1342 404 c 2
 1322 404 l 2
 1312 404 1305 404 1282 399 c 0
 1081 336 902 283 543 158 c 0
 527 153 518 147 501 147 c 0
 428 147 383 263 369 278 c 1
166 20 m 0
 145 20 133 37 133 59 c 0
 133 69 136 77 145 80 c 0
 256 113 270 119 367 150 c 1
 376 150 l 2
 395 150 408 131 408 115 c 0
 408 103 402 94 390 89 c 0
 300 62 262 48 175 22 c 0
 172 20 168 20 166 20 c 0
63 141 m 0
 59 141 56 140 54 140 c 0
 34 140 20 159 20 178 c 0
 20 189 24 198 33 201 c 0
 145 235 140 231 237 263 c 1
 246 263 l 2
 263 263 277 243 277 226 c 0
 277 215 272 207 260 201 c 0
 170 175 149 168 63 141 c 0
EndSplineSet
Validated: 1
Colour: ffff00
EndChar

StartChar: uniEEB1
Encoding: 61105 61105 238
Width: 1416
GlyphClass: 2
Flags: MW
AnchorPoint: "Tonal" 799 417 basechar 0
AnchorPoint: "Podchashie" 635 10 basechar 0
AnchorPoint: "Right" 1439 444 basechar 0
LayerCount: 2
Fore
SplineSet
1058 193 m 0
 1058 218 1086 235 1107 235 c 0
 1136 235 1143 207 1143 182 c 0
 1143 160 1123 142 1102 142 c 0
 1077 142 1058 168 1058 193 c 0
778 146 m 0
 778 172 803 184 828 184 c 0
 859 184 891 163 891 130 c 0
 891 103 870 87 845 87 c 0
 812 87 778 114 778 146 c 0
388 283 m 1
 407 288 428 292 446 292 c 0
 472 292 497 285 511 262 c 0
 520 246 521 239 528 225 c 1
 1287 468 l 1
 1292 468 1336 469 1352 469 c 0
 1376 469 1396 466 1396 444 c 2
 1396 438 l 2
 1396 410 1382 410 1361 410 c 2
 1341 410 l 2
 1331 410 1324 410 1301 404 c 0
 1100 341 921 288 562 163 c 0
 546 157 537 153 520 153 c 0
 448 153 402 269 388 283 c 1
166 20 m 0
 145 20 133 37 133 59 c 0
 133 69 136 78 145 80 c 0
 256 113 270 119 367 150 c 1
 376 150 l 2
 395 150 408 131 408 115 c 0
 408 103 402 94 390 89 c 0
 300 62 262 48 175 22 c 0
 172 20 168 20 166 20 c 0
63 142 m 0
 59 142 56 140 54 140 c 0
 34 140 20 159 20 179 c 0
 20 189 24 198 33 201 c 0
 145 235 140 231 237 263 c 1
 246 263 l 2
 263 263 277 244 277 226 c 0
 277 216 272 207 260 201 c 0
 170 175 149 168 63 142 c 0
EndSplineSet
Validated: 1
Colour: ffff00
EndChar

StartChar: uniEEB2
Encoding: 61106 61106 239
Width: 1551
GlyphClass: 2
Flags: MW
AnchorPoint: "Tonal" 858 368 basechar 0
AnchorPoint: "Podchashie" 733 3 basechar 0
AnchorPoint: "Right" 1588 455 basechar 0
LayerCount: 2
Fore
SplineSet
314 65 m 0
 296 65 276 76 276 101 c 0
 276 109 286 111 298 124 c 0
 300 126 301 128 301 131 c 0
 301 138 292 147 284 147 c 0
 276 147 269 138 261 138 c 0
 260 138 259 138 257 139 c 0
 238 146 233 159 217 171 c 1
 217 173 l 2
 217 192 247 199 277 199 c 0
 333 199 382 164 388 120 c 1
 388 88 342 65 314 65 c 0
117 20 m 0
 101 20 79 31 79 55 c 0
 79 64 89 66 101 78 c 0
 103 80 104 83 104 86 c 0
 104 93 97 101 88 101 c 0
 80 101 73 93 66 93 c 0
 64 93 63 93 61 94 c 0
 42 101 36 113 20 125 c 1
 20 127 l 2
 20 146 50 153 80 153 c 0
 137 153 186 118 191 74 c 0
 191 43 145 20 117 20 c 0
401 257 m 1
 420 262 440 267 457 267 c 0
 484 267 514 251 528 228 c 0
 536 213 538 206 545 192 c 1
 897 295 1149 376 1450 459 c 0
 1467 466 1482 468 1494 468 c 0
 1520 468 1531 453 1531 437 c 2
 1531 433 l 2
 1531 406 1341 352 1311 345 c 0
 1108 281 952 243 579 130 c 0
 563 125 554 119 536 119 c 0
 461 119 415 243 401 257 c 1
EndSplineSet
Validated: 1
Colour: ffff00
EndChar

StartChar: uniEEB3
Encoding: 61107 61107 240
Width: 1542
GlyphClass: 2
Flags: MW
AnchorPoint: "Tonal" 849 391 basechar 0
AnchorPoint: "Podchashie" 724 26 basechar 0
AnchorPoint: "Right" 1578 478 basechar 0
LayerCount: 2
Fore
SplineSet
1119 188 m 0
 1119 213 1147 230 1168 230 c 0
 1196 230 1203 202 1203 178 c 0
 1203 155 1184 137 1163 137 c 0
 1138 137 1119 163 1119 188 c 0
839 141 m 0
 839 167 864 179 888 179 c 0
 920 179 952 158 952 125 c 0
 952 98 930 83 906 83 c 0
 872 83 839 109 839 141 c 0
311 70 m 0
 293 70 273 81 273 106 c 0
 273 115 283 116 295 129 c 0
 297 131 298 133 298 136 c 0
 298 144 290 152 281 152 c 0
 273 152 266 143 259 143 c 0
 257 143 256 144 254 144 c 0
 235 151 230 164 214 176 c 1
 214 178 l 2
 214 197 244 204 274 204 c 0
 330 204 379 169 385 125 c 1
 385 93 339 70 311 70 c 0
117 21 m 0
 100 21 80 32 80 57 c 0
 80 65 89 67 101 79 c 0
 103 81 104 83 104 86 c 0
 104 94 96 102 88 102 c 0
 80 102 73 94 65 94 c 0
 64 94 62 94 61 95 c 0
 42 102 36 114 20 126 c 1
 20 128 l 2
 20 147 50 154 80 154 c 0
 137 154 186 119 191 75 c 0
 191 44 145 21 117 21 c 0
392 280 m 1
 411 285 431 290 448 290 c 0
 475 290 505 274 519 251 c 0
 527 236 529 229 536 215 c 1
 888 318 1140 399 1441 482 c 0
 1458 489 1473 491 1485 491 c 0
 1511 491 1522 476 1522 460 c 2
 1522 456 l 2
 1522 429 1332 375 1302 368 c 0
 1099 304 943 266 570 153 c 0
 554 148 545 142 527 142 c 0
 452 142 406 266 392 280 c 1
EndSplineSet
Validated: 1
Colour: ffff00
EndChar

StartChar: uniEEB4
Encoding: 61108 61108 241
Width: 1685
GlyphClass: 2
Flags: MW
AnchorPoint: "Tonal" 992 441 basechar 0
AnchorPoint: "Podchashie" 784 49 basechar 0
AnchorPoint: "Right" 1717 518 basechar 0
LayerCount: 2
Fore
SplineSet
362 285 m 0
 416 285 394 243 406 192 c 1
 436 200 469 216 497 216 c 0
 513 216 543 199 543 185 c 0
 543 151 427 128 427 128 c 1
 430 114 439 95 439 79 c 0
 439 58 420 54 399 54 c 0
 360 54 367 93 348 118 c 1
 313 107 256 91 256 91 c 1
 252 91 l 2
 240 91 226 104 226 118 c 0
 226 125 228 130 226 137 c 1
 262 155 284 155 318 169 c 1
 318 177 l 2
 318 194 314 205 314 218 c 0
 314 250 327 285 362 285 c 0
117 21 m 0
 100 21 80 32 80 57 c 0
 80 65 89 67 101 79 c 0
 103 81 104 84 104 86 c 0
 104 94 96 102 88 102 c 0
 80 102 73 94 65 94 c 0
 64 94 62 94 61 95 c 0
 42 102 36 114 20 127 c 1
 20 128 l 2
 20 148 50 155 80 155 c 0
 137 155 186 120 191 76 c 0
 191 44 145 21 117 21 c 0
535 329 m 1
 554 334 573 340 591 340 c 0
 617 340 647 324 661 301 c 0
 670 285 672 278 679 264 c 1
 1031 368 1283 449 1584 531 c 0
 1601 538 1615 540 1628 540 c 0
 1655 540 1665 524 1665 507 c 2
 1665 505 l 2
 1665 479 1474 424 1445 417 c 0
 1242 354 1086 315 712 202 c 0
 697 197 688 192 670 192 c 0
 594 192 549 315 535 329 c 1
EndSplineSet
Validated: 1
Colour: ffff00
EndChar

StartChar: uniEEB5
Encoding: 61109 61109 242
Width: 1522
GlyphClass: 2
Flags: MW
AnchorPoint: "Tonal" 829 483 basechar 0
AnchorPoint: "Podchashie" 987 200 basechar 0
AnchorPoint: "Right" 1571 504 basechar 0
LayerCount: 2
Fore
SplineSet
184 289 m 0
 186 304 202 310 217 310 c 0
 240 310 251 302 262 287 c 0
 272 270 373 150 373 96 c 0
 373 76 364 69 351 69 c 0
 336 69 314 82 306 90 c 0
 253 150 233 191 193 261 c 0
 188 270 182 279 184 289 c 0
221 47 m 0
 221 31 209 22 193 22 c 0
 175 22 161 31 149 45 c 0
 93 106 71 150 31 223 c 0
 26 231 20 240 20 249 c 0
 20 268 45 274 59 274 c 0
 86 274 93 265 105 249 c 0
 117 230 221 103 221 47 c 0
372 300 m 1
 391 305 411 310 428 310 c 0
 455 310 485 294 499 272 c 0
 507 256 509 249 516 235 c 1
 868 338 1120 419 1421 502 c 0
 1438 509 1453 511 1465 511 c 0
 1491 511 1502 496 1502 480 c 2
 1502 476 l 2
 1502 449 1312 395 1282 388 c 0
 1079 324 923 286 550 173 c 0
 534 168 525 162 507 162 c 0
 432 162 386 286 372 300 c 1
EndSplineSet
Validated: 1
Colour: ffff00
EndChar

StartChar: uniEEB6
Encoding: 61110 61110 243
Width: 1322
GlyphClass: 2
Flags: MW
AnchorPoint: "Tonal" 635 356 basechar 0
AnchorPoint: "Podchashie" 794 136 basechar 0
AnchorPoint: "Right" 1357 401 basechar 0
LayerCount: 2
Fore
SplineSet
117 23 m 0
 100 23 80 34 80 59 c 0
 80 67 89 69 101 81 c 0
 103 83 104 85 104 88 c 0
 104 96 96 104 88 104 c 0
 80 104 73 96 65 96 c 0
 64 96 62 96 61 97 c 0
 42 104 36 116 20 128 c 1
 20 130 l 2
 20 149 50 156 80 156 c 0
 137 156 186 121 191 77 c 0
 191 46 145 23 117 23 c 0
166 262 m 1
 182 266 200 269 214 269 c 0
 247 269 274 259 291 227 c 0
 298 211 300 204 305 190 c 1
 662 273 919 340 1224 405 c 0
 1236 408 1249 410 1259 410 c 0
 1283 410 1304 401 1304 380 c 0
 1304 378 1303 376 1303 373 c 0
 1303 348 1110 304 1080 299 c 0
 874 246 715 216 335 127 c 0
 321 121 312 118 298 118 c 0
 219 118 178 248 166 262 c 1
EndSplineSet
Validated: 1
Colour: ffff00
EndChar

StartChar: uniEEB7
Encoding: 61111 61111 244
Width: 1560
GlyphClass: 2
Flags: MW
AnchorPoint: "Tonal" 881 395 basechar 0
AnchorPoint: "Podchashie" 923 192 basechar 0
AnchorPoint: "Right" 1592 457 basechar 0
LayerCount: 2
Fore
SplineSet
401 318 m 1
 419 322 436 323 451 323 c 0
 484 323 510 313 526 283 c 0
 535 267 537 258 542 244 c 1
 899 329 1156 397 1461 462 c 0
 1471 468 1485 469 1496 469 c 0
 1521 469 1540 461 1540 438 c 2
 1540 432 l 2
 1540 406 1346 362 1315 357 c 0
 1111 304 952 274 572 181 c 0
 558 178 550 173 537 173 c 0
 454 173 417 300 401 318 c 1
422 93 m 0
 422 58 387 47 359 47 c 0
 324 47 299 75 299 100 c 0
 299 123 320 140 357 140 c 0
 387 140 422 117 422 93 c 0
268 292 m 0
 301 292 336 265 336 239 c 0
 336 214 313 204 290 204 c 0
 255 204 222 232 222 258 c 0
 222 274 238 292 268 292 c 0
122 104 m 0
 122 111 112 122 102 122 c 0
 92 122 83 112 73 112 c 2
 68 112 l 1
 45 121 40 137 20 153 c 1
 20 155 l 2
 20 176 57 185 93 185 c 0
 163 185 223 142 228 88 c 0
 228 51 174 23 138 23 c 0
 117 23 98 33 93 61 c 0
 92 63 92 65 92 66 c 0
 92 77 105 79 117 93 c 0
 121 97 122 100 122 104 c 0
EndSplineSet
Validated: 1
Colour: ffff00
EndChar

StartChar: uniEEB8
Encoding: 61112 61112 245
Width: 630
GlyphClass: 2
Flags: MW
LayerCount: 2
Fore
SplineSet
23 197 m 0
 23 252 189 316 302 316 c 0
 452 316 582 261 615 95 c 0
 616 90 618 81 618 70 c 0
 618 52 613 32 590 32 c 0
 559 32 546 53 538 76 c 0
 533 92 533 110 532 117 c 0
 514 218 396 256 336 256 c 0
 96 256 101 166 68 166 c 0
 44 166 23 172 23 197 c 0
317 90 m 1
 363 101 386 120 435 120 c 0
 455 120 470 113 470 85 c 0
 470 60 367 22 298 22 c 0
 270 22 249 29 242 45 c 0
 228 83 212 126 206 170 c 1
 235 187 263 192 275 192 c 0
 308 192 301 152 317 90 c 1
EndSplineSet
Validated: 1
Colour: ffff00
EndChar

StartChar: uniEEB9
Encoding: 61113 61113 246
Width: 511
GlyphClass: 2
Flags: MW
LayerCount: 2
Fore
SplineSet
337 223 m 1
 383 234 406 253 455 253 c 0
 474 253 490 246 490 218 c 0
 490 193 386 154 318 154 c 0
 290 154 269 162 262 177 c 0
 247 216 232 258 226 302 c 1
 254 320 283 325 295 325 c 0
 328 325 321 285 337 223 c 1
138 21 m 0
 118 21 92 33 92 64 c 0
 92 75 105 77 117 91 c 0
 121 95 122 98 122 101 c 0
 122 109 111 120 102 120 c 0
 99 119 85 109 73 109 c 0
 71 109 70 109 68 110 c 0
 45 119 40 135 20 151 c 1
 20 153 l 2
 20 174 57 183 93 183 c 0
 163 183 228 140 228 86 c 0
 228 49 174 21 138 21 c 0
EndSplineSet
Validated: 1
Colour: ffff00
EndChar

StartChar: uniEEBA
Encoding: 61114 61114 247
Width: 1565
GlyphClass: 2
Flags: MW
AnchorPoint: "Tonal" 948 534 basechar 0
AnchorPoint: "Podchashie" 1151 381 basechar 0
AnchorPoint: "Right" 1581 623 basechar 0
LayerCount: 2
Fore
SplineSet
611 324 m 0
 600 324 591 338 591 347 c 0
 591 356 595 364 602 367 c 0
 970 490 1192 543 1482 626 c 0
 1489 627 1500 633 1510 633 c 0
 1524 633 1542 626 1542 610 c 0
 1542 594 1526 578 1510 575 c 0
 1183 494 912 409 634 328 c 0
 625 328 618 324 611 324 c 0
450 345 m 0
 485 345 520 318 520 297 c 0
 520 267 499 243 467 243 c 0
 435 243 407 267 407 299 c 0
 407 324 421 345 450 345 c 0
274 285 m 0
 309 285 344 259 344 237 c 0
 344 208 323 183 291 183 c 0
 259 183 231 208 231 239 c 0
 231 264 245 285 274 285 c 0
80 23 m 0
 38 23 20 33 20 70 c 0
 20 104 34 148 34 181 c 2
 34 193 l 1
 57 211 78 215 94 215 c 2
 101 215 l 2
 110 215 113 211 113 204 c 0
 113 186 96 153 96 116 c 0
 96 107 98 98 99 90 c 1
 145 102 168 120 217 120 c 0
 237 120 252 114 252 86 c 0
 252 61 149 23 80 23 c 0
EndSplineSet
Validated: 1
Colour: ffff00
EndChar

StartChar: uniEEBB
Encoding: 61115 61115 248
Width: 1120
GlyphClass: 2
Flags: MW
AnchorPoint: "Tonal" 735 483 basechar 0
AnchorPoint: "Podchashie" 823 324 basechar 0
AnchorPoint: "Right" 1141 559 basechar 0
LayerCount: 2
Fore
SplineSet
88 22 m 0
 46 22 28 32 28 69 c 0
 28 103 42 147 42 180 c 2
 42 192 l 1
 65 210 86 214 102 214 c 2
 109 214 l 2
 118 214 121 210 121 203 c 0
 121 185 104 152 104 115 c 0
 104 106 106 97 107 89 c 1
 153 101 176 119 225 119 c 0
 245 119 260 113 260 85 c 0
 260 60 157 22 88 22 c 0
1053 572 m 0
 1079 572 1097 572 1097 551 c 0
 1097 549 1097 547 1096 544 c 0
 1092 527 1006 488 915 441 c 1
 775 380 732 353 579 286 c 0
 565 280 529 274 529 274 c 1
 484 274 475 314 475 350 c 0
 475 373 478 394 478 403 c 2
 478 406 l 1
 495 410 513 413 528 413 c 0
 548 413 553 402 553 382 c 2
 553 377 l 1
 554 370 554 368 554 367 c 2
 554 340 l 1
 696 401 867 487 1004 558 c 0
 1021 567 1036 572 1053 572 c 0
348 314 m 0
 383 314 409 285 409 264 c 0
 409 234 396 218 364 218 c 0
 332 218 313 233 313 265 c 0
 313 290 319 314 348 314 c 0
216 252 m 0
 251 252 265 234 265 212 c 0
 265 183 259 166 227 166 c 0
 195 166 177 179 177 210 c 0
 177 235 187 252 216 252 c 0
EndSplineSet
Validated: 1
Colour: ffff00
EndChar

StartChar: uniEEBC
Encoding: 61116 61116 249
Width: 550
GlyphClass: 2
Flags: MW
AnchorPoint: "Tonal" 0 0 basechar 0
AnchorPoint: "Podchashie" 0 0 basechar 0
AnchorPoint: "Right" 0 0 basechar 0
LayerCount: 2
Fore
SplineSet
497 109 m 0
 466 109 453 130 445 153 c 0
 440 169 440 187 439 194 c 0
 429 274 321 341 261 341 c 0
 193 341 149 323 75 323 c 0
 58 323 36 323 36 348 c 0
 36 382 138 398 205 398 c 0
 357 398 485 339 522 172 c 0
 523 167 525 158 525 147 c 0
 525 129 520 109 497 109 c 0
126 22 m 0
 107 22 90 40 90 61 c 0
 90 70 94 78 103 81 c 0
 210 123 224 130 317 167 c 0
 321 169 325 169 329 169 c 0
 347 169 360 153 360 134 c 0
 360 123 355 114 345 109 c 0
 257 74 220 54 136 22 c 0
 133 21 129 22 126 22 c 0
50 124 m 0
 31 124 16 140 16 162 c 0
 16 171 19 179 26 182 c 0
 135 224 149 231 242 268 c 0
 246 270 250 271 254 271 c 0
 270 271 285 255 285 236 c 0
 285 225 280 215 269 210 c 0
 183 175 146 155 61 124 c 0
 57 122 53 124 50 124 c 0
EndSplineSet
Validated: 1
Colour: ffff00
EndChar

StartChar: uniEEBD
Encoding: 61117 61117 250
Width: 1063
GlyphClass: 2
Flags: MW
AnchorPoint: "Tonal" 442 219 basechar 0
AnchorPoint: "Podchashie" 644 92 basechar 0
AnchorPoint: "Right" 1113 334 basechar 0
LayerCount: 2
Fore
SplineSet
20 100 m 0
 20 110 52 125 69 125 c 0
 101 125 110 88 138 72 c 1
 474 179 105 61 953 332 c 0
 962 334 972 336 985 336 c 0
 1006 336 1043 322 1043 279 c 0
 1043 258 1011 237 976 237 c 0
 964 237 955 241 951 255 c 0
 946 264 948 274 960 278 c 0
 967 279 976 281 974 288 c 0
 971 297 962 295 951 292 c 0
 629 186 288 70 140 24 c 0
 133 22 126 21 119 21 c 0
 106 21 96 26 84 33 c 0
 59 49 20 72 20 100 c 0
EndSplineSet
Validated: 1
Colour: ffff00
EndChar

StartChar: uniEEBE
Encoding: 61118 61118 251
Width: 1402
GlyphClass: 2
Flags: MW
AnchorPoint: "Tonal" 700 438 basechar 0
AnchorPoint: "Podchashie" 704 114 basechar 0
AnchorPoint: "Right" 1431 589 basechar 0
LayerCount: 2
Fore
SplineSet
1320 590 m 0
 1341 590 1380 576 1380 535 c 0
 1380 514 1350 493 1315 489 c 0
 1303 489 1294 493 1290 507 c 1
 1283 514 1285 525 1297 530 c 0
 1304 532 1311 533 1310 540 c 0
 1306 549 1297 547 1287 542 c 0
 974 415 639 278 495 222 c 0
 486 220 479 218 472 218 c 0
 461 218 451 222 438 227 c 0
 414 241 372 262 372 290 c 0
 372 301 403 317 421 317 c 0
 451 317 461 283 490 269 c 1
 819 400 1287 583 1287 583 c 2
 1296 586 1308 590 1320 590 c 0
179 22 m 0
 159 22 145 40 145 62 c 0
 145 70 148 77 156 80 c 0
 265 122 277 129 372 166 c 0
 376 168 379 168 383 168 c 0
 401 168 415 149 415 131 c 0
 415 122 409 114 399 108 c 0
 313 73 274 55 191 24 c 0
 186 22 182 22 179 22 c 0
56 119 m 0
 36 119 20 135 20 158 c 0
 20 166 24 173 33 177 c 0
 140 219 137 216 230 254 c 0
 233 256 237 256 240 256 c 0
 260 256 274 237 274 219 c 0
 274 209 269 200 258 196 c 0
 170 161 151 152 66 121 c 0
 63 119 59 119 56 119 c 0
EndSplineSet
Validated: 1
Colour: ffff00
EndChar

StartChar: uniEEBF
Encoding: 61119 61119 252
Width: 541
GlyphClass: 2
Flags: MW
LayerCount: 2
Fore
SplineSet
196 259 m 0
 341 259 520 201 520 67 c 0
 520 39 506 22 455 22 c 0
 397 22 367 83 335 83 c 1
 337 94 330 117 360 117 c 0
 406 117 409 85 434 85 c 1
 436 92 436 97 436 104 c 0
 436 184 307 210 247 210 c 0
 179 210 133 185 59 185 c 0
 42 185 20 185 20 210 c 0
 20 245 130 259 196 259 c 0
EndSplineSet
Validated: 1
Colour: ffff00
EndChar

StartChar: u1CF30
Encoding: 118576 118576 253
Width: 0
GlyphClass: 4
Flags: MW
AnchorPoint: "Stacking" -136 537 basemark 0
AnchorPoint: "Stacking" -114 387 mark 0
AnchorPoint: "Tonal" -114 387 mark 0
LayerCount: 2
Fore
SplineSet
-134 493 m 0
 -97 493 -63 465 -63 445 c 0
 -63 415 -84 391 -114 391 c 0
 -148 391 -176 414 -176 447 c 0
 -176 472 -162 493 -134 493 c 0
EndSplineSet
Validated: 1
EndChar

StartChar: u1CF31
Encoding: 118577 118577 254
Width: 0
GlyphClass: 4
Flags: MW
AnchorPoint: "Stacking" -261 503 basemark 0
AnchorPoint: "Stacking" -191 353 mark 0
AnchorPoint: "Tonal" -190 353 mark 0
LayerCount: 2
Fore
SplineSet
-143 496 m 0
 -106 496 -72 470 -72 449 c 0
 -72 419 -93 394 -123 394 c 0
 -157 394 -185 419 -185 451 c 0
 -185 475 -171 496 -143 496 c 0
-336 426 m 0
 -299 426 -266 400 -266 378 c 0
 -266 348 -287 324 -317 324 c 0
 -350 324 -378 348 -378 380 c 0
 -378 405 -364 426 -336 426 c 0
EndSplineSet
Validated: 1
EndChar

